<?xml version="1.0" encoding="UTF-8"?>
<svg version="1.1" xmlns="http://www.w3.org/2000/svg" width="1135" height="512">
<path d="M0 0 C0.87391891 0.31411331 1.74783783 0.62822662 2.64823914 0.95185852 C4.47800397 1.60958715 6.30663413 2.27048039 8.13415527 2.93441772 C11.49627834 4.15173684 14.86796308 5.34069616 18.24090576 6.52763367 C22.54766751 8.04395735 26.84985863 9.57315459 31.15234375 11.1015625 C32.57305176 11.60620026 32.57305176 11.60620026 34.02246094 12.12103271 C52.47338484 18.6797833 70.87852015 25.36187967 89.27661133 32.06713867 C105.3384651 37.91993369 121.41297782 43.73662077 137.49649048 49.52954102 C145.12055003 52.27572085 152.74324489 55.02568835 160.36601257 57.77545166 C160.99317138 58.00168591 161.62033018 58.22792015 162.2664938 58.46100998 C163.53562983 58.91882775 164.80476244 59.376655 166.07389164 59.83449173 C169.31064032 61.00206579 172.54754538 62.16920363 175.784729 63.33557129 C183.52818973 66.12558541 191.2699807 68.92013353 199.00927734 71.72167969 C201.41310679 72.59093741 203.81755455 73.45848739 206.22265625 74.32421875 C209.54073262 75.51887604 212.8565428 76.71962698 216.171875 77.921875 C217.13982498 78.26880402 218.10777496 78.61573303 219.10505676 78.97317505 C233.96046497 84.38329204 233.96046497 84.38329204 236.52734375 88.8515625 C236.92173788 92.71662501 236.15925669 93.84895104 233.83984375 96.9140625 C231.23828125 98.390625 231.23828125 98.390625 228.21484375 99.5390625 C227.23257812 99.92320312 226.2503125 100.30734375 225.23828125 100.703125 C222.54271313 101.66361479 219.84273262 102.58774126 217.12744141 103.48974609 C216.32279449 103.75725677 215.51814758 104.02476746 214.68911743 104.30038452 C214.07885712 104.50289825 213.4685968 104.70541199 212.83984375 104.9140625 C212.06248891 124.55058596 211.48401364 144.18391879 211.13004208 163.8327322 C210.96116064 172.96093525 210.73106013 182.0793977 210.3503418 191.20141602 C206.37165131 235.42103997 206.37165131 235.42103997 222.52937031 274.40578175 C227.99285401 279.95928086 234.14371894 284.92748898 240.8616581 288.89344215 C245.5705843 291.82148297 245.5705843 291.82148297 246.384305 295.12333393 C246.51249032 298.53407901 246.37246225 301.03100877 244.59376526 303.97999573 C244.01054001 304.42560349 243.42731476 304.87121124 242.82641602 305.33032227 C242.1690596 305.86270508 241.51170319 306.39508789 240.83442688 306.94360352 C240.11562851 307.49201904 239.39683014 308.04043457 238.65625 308.60546875 C237.14899741 309.86631446 235.64823496 311.13495047 234.15332031 312.41040039 C233.37347778 313.07153839 232.59363525 313.73267639 231.79016113 314.41384888 C216.71228901 327.414184 216.71228901 327.414184 210.6015625 345.6953125 C210.17371668 353.44798288 210.84574414 361.14571164 211.61871338 368.8575592 C212.05938618 374.1177147 211.60318651 377.4313988 208.28881836 381.56811523 C204.04658783 385.50870781 200.63222681 387.13178461 194.77734375 387.3515625 C189.76355829 387.11606652 186.0233814 386.13913484 182.40234375 382.44921875 C180.62659059 380.38591465 179.05980212 378.35397924 177.83984375 375.9140625 C178.01257473 373.98315796 178.19328239 372.0525976 178.41650391 370.12687683 C180.86161945 348.52149981 180.86161945 348.52149981 173.57421875 328.79150391 C166.45949795 320.04887474 157.82480271 312.47974392 148.95849609 305.55256653 C145.99523297 303.18017164 144.10904165 301.47379026 142.44726562 298.01855469 C143.09520598 292.89466814 146.01691542 290.22269681 149.83984375 286.9140625 C151.42336694 285.88934325 153.00840552 284.86636296 154.61552334 283.87905979 C165.14397978 277.29695286 174.65947591 268.94978049 177.67681122 256.44556427 C180.90186063 236.19355128 179.54178085 215.13194759 178.78456891 194.7250756 C178.47884113 186.33693011 178.33334497 177.94809929 178.1985811 169.55574286 C177.9185837 152.33429531 177.42490703 135.12825785 176.83984375 117.9140625 C163.30984375 122.8640625 149.77984375 127.8140625 135.83984375 132.9140625 C135.8258252 138.16763672 135.8258252 138.16763672 135.81152344 143.52734375 C135.77773816 155.10642544 135.72238063 166.68534874 135.65594101 178.26428223 C135.61618884 185.28377651 135.58377706 192.30315931 135.56884766 199.32275391 C135.55441582 206.09858985 135.51926095 212.87406763 135.47153473 219.64974976 C135.45671128 222.23323562 135.44880219 224.81677082 135.4479599 227.40029907 C135.44559155 231.02244806 135.41851967 234.64364102 135.38574219 238.265625 C135.39077255 239.3308992 135.39580292 240.3961734 135.40098572 241.49372864 C135.2957382 249.02412584 133.91473558 254.19665596 129.0078125 260.12890625 C94.64902825 290.01494936 43.88354352 297.76076764 -0.03515625 299.4765625 C-1.09669922 299.5182959 -2.15824219 299.5600293 -3.25195312 299.60302734 C-10.56271451 299.87791018 -17.84443287 300.09289129 -25.16015625 299.9140625 C-25.93037109 299.90149414 -26.70058594 299.88892578 -27.49414062 299.87597656 C-72.07146505 299.06155117 -122.58587005 292.55462962 -159.16015625 264.9140625 C-159.86398438 264.39199219 -160.5678125 263.86992187 -161.29296875 263.33203125 C-166.43133745 259.25788536 -169.88927284 254.47813638 -171.16015625 247.9140625 C-171.24711299 246.27494775 -171.28217195 244.63269073 -171.28041077 242.99127197 C-171.28247276 241.50633995 -171.28247276 241.50633995 -171.28457642 239.9914093 C-171.2791835 238.37192635 -171.2791835 238.37192635 -171.27368164 236.71972656 C-171.27382767 235.5779747 -171.27397369 234.43622284 -171.27412415 233.25987244 C-171.27342706 229.48312485 -171.26564412 225.70642648 -171.2578125 221.9296875 C-171.2559476 219.31223579 -171.25452404 216.69478373 -171.25352478 214.07733154 C-171.25041779 207.89028678 -171.24221292 201.7032597 -171.23217529 195.51622272 C-171.22099453 188.47152643 -171.21549875 181.42682929 -171.21047986 174.38212633 C-171.20002979 159.8927626 -171.18244257 145.4034128 -171.16015625 130.9140625 C-172.32526639 130.68989214 -172.32526639 130.68989214 -173.51391411 130.46119308 C-176.1128778 129.92383768 -178.45630429 129.17601495 -180.94580078 128.26269531 C-181.8746962 127.92389343 -182.80359161 127.58509155 -183.76063538 127.23602295 C-184.76130539 126.86680725 -185.7619754 126.49759155 -186.79296875 126.1171875 C-188.37343239 125.53895233 -188.37343239 125.53895233 -189.98582458 124.94903564 C-193.42036867 123.69124751 -196.85287418 122.42800907 -200.28515625 121.1640625 C-202.64049163 120.29868662 -204.99587924 119.43345287 -207.35131836 118.56835938 C-212.06587836 116.83608049 -216.77949975 115.10127474 -221.49267578 113.36523438 C-226.55535994 111.50178529 -231.62227467 109.65042287 -236.69274902 107.80828857 C-239.95798054 106.62114864 -243.22083144 105.42757306 -246.48309326 104.2322998 C-247.96861042 103.68955751 -249.45513697 103.14956956 -250.94268799 102.61242676 C-252.97772395 101.87690786 -255.00874618 101.13124194 -257.0390625 100.3828125 C-258.15869385 99.97482422 -259.2783252 99.56683594 -260.43188477 99.14648438 C-262.99903439 97.98684488 -264.44308225 97.11461296 -266.16015625 94.9140625 C-266.59375 92.9765625 -266.59375 92.9765625 -266.59765625 90.9140625 C-266.61699219 90.2334375 -266.63632812 89.5528125 -266.65625 88.8515625 C-265.94520479 86.07456704 -264.52808576 85.47100148 -262.16015625 83.9140625 C-260.4752081 83.17563569 -258.75966602 82.50501932 -257.02685547 81.88720703 C-255.99077652 81.51391769 -254.95469757 81.14062836 -253.88722229 80.75602722 C-252.75783737 80.35700699 -251.62845245 79.95798676 -250.46484375 79.546875 C-248.63875569 78.89201744 -246.81266794 78.237159 -244.98659229 77.58226681 C-243.02833122 76.88147882 -241.068879 76.18412265 -239.10903931 75.48776245 C-234.98125296 74.02099158 -230.85692038 72.54468031 -226.7331543 71.06665039 C-222.45423247 69.53344832 -218.17513056 68.00076328 -213.8948822 66.4712677 C-201.09330277 61.89647299 -188.30861499 57.27584352 -175.52862549 52.64105225 C-170.74029303 50.90467457 -165.95128154 49.17017367 -161.16229248 47.43560791 C-157.56206491 46.1315784 -153.96193209 44.82728759 -150.36181641 43.52294922 C-143.13214922 40.90375697 -135.90207251 38.28569664 -128.671875 35.66796875 C-127.47252823 35.23373596 -126.27318146 34.79950317 -125.03749084 34.35211182 C-119.03292792 32.17815245 -113.02831974 30.00431812 -107.02368164 27.83056641 C-95.66554146 23.71863371 -84.30779644 19.60561954 -72.95129395 15.48916626 C-68.22497916 13.77600254 -63.4984846 12.06333508 -58.77194977 10.35077858 C-55.54101032 9.18007415 -52.31017688 8.00907896 -49.07958984 6.83740234 C-45.51815262 5.54586132 -41.95637842 4.2552537 -38.39453125 2.96484375 C-36.8143924 2.39138969 -36.8143924 2.39138969 -35.20233154 1.80635071 C-22.12819945 -2.92756124 -13.36983067 -4.92719096 0 0 Z " fill="#00307E" transform="translate(266.16015625,64.0859375)"/>
<path d="M0 0 C10.12287661 0 10.12287661 0 13.53979492 1.27856445 C14.69213371 1.69648506 14.69213371 1.69648506 15.86775208 2.12284851 C16.66807358 2.42906631 17.46839508 2.73528412 18.29296875 3.05078125 C20.06554201 3.70017024 21.8381672 4.3494175 23.61083984 4.99853516 C24.50768494 5.33274475 25.40453003 5.66695435 26.32855225 6.0112915 C30.48921266 7.55116077 34.6771888 9.0115172 38.86328125 10.48046875 C42.34733569 11.71338216 45.82994358 12.95036225 49.3125 14.1875 C50.25963867 14.52392517 51.20677734 14.86035034 52.18261719 15.20697021 C70.63354109 21.7657208 89.0386764 28.44781717 107.43676758 35.15307617 C123.49862135 41.00587119 139.57313407 46.82255827 155.65664673 52.61547852 C163.28070628 55.36165835 170.90340114 58.11162585 178.52616882 60.86138916 C179.15332763 61.08762341 179.78048643 61.31385765 180.42665005 61.54694748 C181.69578608 62.00476525 182.96491869 62.4625925 184.23404789 62.92042923 C187.47079657 64.08800329 190.70770163 65.25514113 193.94488525 66.42150879 C201.68834598 69.21152291 209.43013695 72.00607103 217.16943359 74.80761719 C219.57326304 75.67687491 221.9777108 76.54442489 224.3828125 77.41015625 C227.70088887 78.60481354 231.01669905 79.80556448 234.33203125 81.0078125 C235.29998123 81.35474152 236.26793121 81.70167053 237.26521301 82.05911255 C252.12062122 87.46922954 252.12062122 87.46922954 254.6875 91.9375 C255.08189413 95.80256251 254.31941294 96.93488854 252 100 C249.3984375 101.4765625 249.3984375 101.4765625 246.375 102.625 C245.39273438 103.00914062 244.41046875 103.39328125 243.3984375 103.7890625 C240.70286938 104.74955229 238.00288887 105.67367876 235.28759766 106.57568359 C234.48295074 106.84319427 233.67830383 107.11070496 232.84927368 107.38632202 C232.23901337 107.58883575 231.62875305 107.79134949 231 108 C230.22264516 127.63652346 229.64416989 147.26985629 229.29019833 166.9186697 C229.12131689 176.04687275 228.89121638 185.1653352 228.51049805 194.28735352 C224.53180756 238.50697747 224.53180756 238.50697747 240.68952656 277.49171925 C246.15301026 283.04521836 252.30387519 288.01342648 259.02181435 291.97937965 C263.73074055 294.90742047 263.73074055 294.90742047 264.54446125 298.20927143 C264.67264657 301.62001651 264.5326185 304.11694627 262.75392151 307.06593323 C262.17069626 307.51154099 261.58747101 307.95714874 260.98657227 308.41625977 C260.32921585 308.94864258 259.67185944 309.48102539 258.99458313 310.02954102 C258.27578476 310.57795654 257.55698639 311.12637207 256.81640625 311.69140625 C255.30915366 312.95225196 253.80839121 314.22088797 252.31347656 315.49633789 C251.53363403 316.15747589 250.7537915 316.81861389 249.95031738 317.49978638 C234.87244526 330.5001215 234.87244526 330.5001215 228.76171875 348.78125 C228.33387293 356.53392038 229.00590039 364.23164914 229.77886963 371.9434967 C230.21954243 377.2036522 229.76334276 380.5173363 226.44897461 384.65405273 C222.20674408 388.59464531 218.79238306 390.21772211 212.9375 390.4375 C207.92371454 390.20200402 204.18353765 389.22507234 200.5625 385.53515625 C198.78674684 383.47185215 197.21995837 381.43991674 196 379 C196.17273098 377.06909546 196.35343864 375.1385351 196.57666016 373.21281433 C199.0217757 351.60743731 199.0217757 351.60743731 191.734375 331.87744141 C184.6196542 323.13481224 175.98495896 315.56568142 167.11865234 308.63850403 C164.15538922 306.26610914 162.2691979 304.55972776 160.60742188 301.10449219 C161.25536223 295.98060564 164.17707167 293.30863431 168 290 C169.58352319 288.97528075 171.16856177 287.95230046 172.77567959 286.96499729 C183.30413603 280.38289036 192.81963216 272.03571799 195.83696747 259.53150177 C199.06201688 239.27948878 197.7019371 218.21788509 196.94472516 197.8110131 C196.63899738 189.42286761 196.49350122 181.03403679 196.35873735 172.64168036 C196.07875829 155.42136092 195.60595708 138.21187675 195 121 C193.81559326 121.43868408 192.63118652 121.87736816 191.41088867 122.3293457 C186.97137865 123.97224764 182.52960442 125.60895257 178.0871582 127.24389648 C176.17313387 127.94926691 174.25970858 128.65626526 172.34692383 129.36499023 C153.70193826 136.27108121 153.70193826 136.27108121 145.34387207 138.37860107 C141.01809038 139.52543674 136.84116673 141.09837173 132.640625 142.6328125 C131.19128319 143.15628769 131.19128319 143.15628769 129.71266174 143.69033813 C126.5569662 144.83119674 123.40349684 145.97807945 120.25 147.125 C118.02187519 147.93172034 115.79360117 148.73802866 113.56518555 149.54394531 C108.9708217 151.2063021 104.37735055 152.87108991 99.78466797 154.53808594 C93.40093658 156.85512802 87.01532919 159.16695077 80.62890625 161.4765625 C79.64103622 161.8338443 78.6531662 162.1911261 77.63536072 162.55923462 C75.66700219 163.27110514 73.69863376 163.98294827 71.73025513 164.69476318 C68.8245554 165.74564004 65.9189763 166.79684979 63.01342773 167.84814453 C50.8121585 172.2625225 38.61003433 176.67453316 26.4012146 181.06799316 C24.69265752 181.68311964 22.98433927 182.29890995 21.27627563 182.91540527 C18.94136213 183.75797327 16.60557664 184.59807622 14.26953125 185.4375 C13.58648926 185.68453674 12.90344727 185.93157349 12.19970703 186.18609619 C7.59706535 187.83558679 3.6462273 189.14410379 -1.25 189.0625 C-3.10625 189.0315625 -3.10625 189.0315625 -5 189 C-5 188.67 -5 188.34 -5 188 C-3.35 188 -1.7 188 0 188 C0 125.96 0 63.92 0 0 Z " fill="#1020A1" transform="translate(248,61)"/>
<path d="M0 0 C0 62.04 0 124.08 0 188 C-5.7648995 188 -9.43356028 187.5176912 -14.640625 185.6640625 C-15.40449524 185.40066071 -16.16836548 185.13725891 -16.9553833 184.86587524 C-28.61928956 180.80004323 -40.18090672 176.44053928 -51.75239563 172.12036514 C-55.14368053 170.85497666 -58.53622528 169.59297551 -61.92871094 168.33081055 C-66.11571173 166.77290475 -70.30264804 165.21482832 -74.48907471 163.65538025 C-83.89437058 160.15230801 -93.30466376 156.66296928 -102.71875 153.18359375 C-103.96942522 152.72122211 -105.22009664 152.25884022 -106.47076416 151.79644775 C-111.21569383 150.04236767 -115.96068292 148.28845221 -120.7064209 146.53656006 C-123.93492837 145.34456887 -127.16283128 144.15095358 -130.390625 142.95703125 C-131.78976135 142.44129799 -131.78976135 142.44129799 -133.21716309 141.91514587 C-137.45966108 140.34454151 -141.66965774 138.73079483 -145.85058594 137.00268555 C-150.67729371 135.05141035 -155.59773738 133.56680287 -160.58074951 132.06973267 C-166.52298324 130.21066982 -172.33481293 128.00753134 -178.1640625 125.82421875 C-179.48989832 125.33071038 -180.81585956 124.83753886 -182.14193726 124.34468079 C-185.60449395 123.05680668 -189.06543456 121.76464646 -192.52600098 120.47143555 C-196.67497033 118.92187572 -200.8258171 117.37735317 -204.97649765 115.83238411 C-208.31837452 114.58826611 -211.65966948 113.34263876 -214.99957275 112.0932312 C-220.68460407 109.9679266 -226.37261508 107.85512909 -232.08886719 105.81494141 C-232.97955902 105.49515823 -233.87025085 105.17537506 -234.78793335 104.84590149 C-236.38220113 104.27575672 -237.97888913 103.71230912 -239.57852173 103.15739441 C-245.89766392 100.89175664 -245.89766392 100.89175664 -248 98 C-248.43359375 96.0625 -248.43359375 96.0625 -248.4375 94 C-248.45683594 93.319375 -248.47617188 92.63875 -248.49609375 91.9375 C-247.78504854 89.16050454 -246.36792951 88.55693898 -244 87 C-242.31505185 86.26157319 -240.59950977 85.59095682 -238.86669922 84.97314453 C-237.83062027 84.59985519 -236.79454132 84.22656586 -235.72706604 83.84196472 C-234.59768112 83.44294449 -233.4682962 83.04392426 -232.3046875 82.6328125 C-230.47859944 81.97795494 -228.65251169 81.3230965 -226.82643604 80.66820431 C-224.86817497 79.96741632 -222.90872275 79.27006015 -220.94888306 78.57369995 C-216.82109671 77.10692908 -212.69676413 75.63061781 -208.57299805 74.15258789 C-204.29407622 72.61938582 -200.01497431 71.08670078 -195.73472595 69.5572052 C-182.93314652 64.98241049 -170.14845874 60.36178102 -157.36846924 55.72698975 C-152.58013678 53.99061207 -147.79112529 52.25611117 -143.00213623 50.52154541 C-139.40190866 49.2175159 -135.80177584 47.91322509 -132.20166016 46.60888672 C-124.97199297 43.98969447 -117.74191626 41.37163414 -110.51171875 38.75390625 C-109.31237198 38.31967346 -108.11302521 37.88544067 -106.87733459 37.43804932 C-100.87277167 35.26408995 -94.86816349 33.09025562 -88.86352539 30.91650391 C-77.50538521 26.80457121 -66.14764019 22.69155704 -54.7911377 18.57510376 C-50.06482291 16.86194004 -45.33832835 15.14927258 -40.61179352 13.43671608 C-37.38085407 12.26601165 -34.15002063 11.09501646 -30.91943359 9.92333984 C-27.35799637 8.63179882 -23.79622217 7.3411912 -20.234375 6.05078125 C-18.65423615 5.47732719 -18.65423615 5.47732719 -17.04217529 4.89228821 C-3.53063918 0 -3.53063918 0 0 0 Z " fill="#182FDB" transform="translate(248,61)"/>
<path d="M0 0 C0.09357804 15.24705383 0.16404507 30.49409438 0.20724869 45.74137115 C0.22784508 52.82149372 0.25590929 59.90143752 0.30175781 66.98144531 C0.34599227 73.81548249 0.36914563 80.6493339 0.37950897 87.48350525 C0.38689334 90.0893801 0.40131322 92.69524492 0.42292023 95.30104065 C0.45200386 98.95417138 0.45595374 102.60653754 0.45410156 106.25976562 C0.46848267 107.33439056 0.48286377 108.4090155 0.49768066 109.51620483 C0.45614364 117.0994511 -0.89084043 122.2411653 -5.83203125 128.21484375 C-45.28747601 162.53407677 -103.61661737 166.35388725 -153 168 C-153 130.38 -153 92.76 -153 54 C-144.09 51.03 -135.18 48.06 -126 45 C-117.84309227 42.11104125 -109.69634852 39.20209962 -101.5625 36.25 C-99.37861431 35.46029399 -97.19461157 34.6709116 -95.01049805 33.88183594 C-89.64739554 31.94356397 -84.28555183 30.00183792 -78.92407227 28.05908203 C-74.66382853 26.51604643 -70.40237442 24.9763713 -66.140625 23.4375 C-65.39016907 23.16650986 -64.63971313 22.89551971 -63.86651611 22.61631775 C-62.39747232 22.08588563 -60.92841739 21.55548437 -59.45935059 21.02511597 C-57.33253772 20.25723458 -55.20581038 19.48911675 -53.07910156 18.72094727 C-42.3807018 14.85703597 -31.68095495 10.9968571 -20.97763062 7.14660645 C-19.21101232 6.51084962 -17.44459138 5.87454411 -15.67837524 5.2376709 C-13.24055031 4.35876144 -10.80201505 3.48185261 -8.36328125 2.60546875 C-7.62980469 2.34056137 -6.89632812 2.07565399 -6.140625 1.80271912 C-1.11418551 0 -1.11418551 0 0 0 Z " fill="#00215A" transform="translate(401,196)"/>
<path d="M0 0 C-0.02526544 0.76840934 -0.05053087 1.53681868 -0.07656193 2.32851315 C-0.68496739 21.19037737 -1.10263788 40.04813102 -1.31865025 58.9186697 C-1.42754274 68.04622278 -1.59730999 77.16454962 -1.91674805 86.28735352 C-2.27718235 96.81570646 -2.48309346 107.33620896 -2.44140625 117.87109375 C-2.43637612 119.14335855 -2.43637612 119.14335855 -2.43124437 120.44132566 C-2.27443343 140.26256929 -1.66624586 156.90182273 12.98658752 171.79200745 C17.93248934 176.33526054 23.24625649 180.55461632 29.03457069 183.97937965 C33.73115608 186.90687019 33.73115608 186.90687019 34.54334736 190.20927143 C34.67154988 193.6198993 34.5325976 196.11698093 32.75392151 199.06593323 C31.87908363 199.73434486 31.87908363 199.73434486 30.98657227 200.41625977 C30.32921585 200.94864258 29.67185944 201.48102539 28.99458313 202.02954102 C28.27578476 202.57795654 27.55698639 203.12637207 26.81640625 203.69140625 C25.30915366 204.95225196 23.80839121 206.22088797 22.31347656 207.49633789 C21.53363403 208.15747589 20.7537915 208.81861389 19.95031738 209.49978638 C4.87244526 222.5001215 4.87244526 222.5001215 -1.23828125 240.78125 C-1.66612707 248.53392038 -0.99409961 256.23164914 -0.22113037 263.9434967 C0.21954243 269.2036522 -0.23665724 272.5173363 -3.55102539 276.65405273 C-7.79325592 280.59464531 -11.20761694 282.21772211 -17.0625 282.4375 C-22.07628546 282.20200402 -25.81646235 281.22507234 -29.4375 277.53515625 C-31.21325316 275.47185215 -32.78004163 273.43991674 -34 271 C-33.82726902 269.06909546 -33.64656136 267.1385351 -33.42333984 265.21281433 C-30.9782243 243.60743731 -30.9782243 243.60743731 -38.265625 223.87744141 C-45.3803458 215.13481224 -54.01504104 207.56568142 -62.88134766 200.63850403 C-65.84461078 198.26610914 -67.7308021 196.55972776 -69.39257812 193.10449219 C-68.74472441 187.98129082 -65.82262647 185.30791348 -62 182 C-60.42076551 180.97951495 -58.84001522 179.96076672 -57.23714542 178.9778223 C-46.6795541 172.3882487 -37.21336827 164.02154577 -34.14447784 151.51294708 C-30.79806206 131.13236719 -32.00160353 109.92560312 -32.60989273 89.36563098 C-32.85439702 80.91622627 -32.93979189 72.46726318 -33.01450503 64.01492274 C-33.17124108 46.67152436 -33.51951947 29.33739584 -34 12 C-32.10916227 11.20788767 -30.21788011 10.41683618 -28.32641602 9.6262207 C-27.27325699 9.18558792 -26.22009796 8.74495514 -25.13502502 8.29096985 C-20.77015339 6.49356229 -16.3662283 4.81989538 -11.9375 3.1875 C-11.11056641 2.87619141 -10.28363281 2.56488281 -9.43164062 2.24414062 C-8.63822266 1.95087891 -7.84480469 1.65761719 -7.02734375 1.35546875 C-6.32343506 1.09403076 -5.61952637 0.83259277 -4.89428711 0.56323242 C-3 0 -3 0 0 0 Z " fill="#FEBD00" transform="translate(478,169)"/>
<path d="M0 0 C6.46274954 0.80369483 12.90239114 0.78317849 19.40380859 0.76318359 C21.49453866 0.75778626 23.58505736 0.76317944 25.67578125 0.76953125 C27.02343797 0.76887097 28.37109455 0.76759084 29.71875 0.765625 C30.92241211 0.76449707 32.12607422 0.76336914 33.36621094 0.76220703 C36.57948729 0.63876281 39.57811333 0.22577248 42.734375 -0.3671875 C46.82927885 -0.81888576 49.90145303 -0.86694068 53.546875 1.3203125 C55.72519913 3.62311229 57.15328015 5.90100678 58.734375 8.6328125 C59.41242188 8.29507813 60.09046875 7.95734375 60.7890625 7.609375 C70.65694337 2.88044594 79.7431249 0.77505614 90.734375 1.6328125 C92.47944115 3.37787865 91.96720284 5.82320393 92.05078125 8.19921875 C92.09267578 9.32392578 92.13457031 10.44863281 92.17773438 11.60742188 C92.21705078 12.79142578 92.25636719 13.97542969 92.296875 15.1953125 C92.34005859 16.38318359 92.38324219 17.57105469 92.42773438 18.79492188 C92.53421046 21.74076034 92.63622341 24.6866868 92.734375 27.6328125 C93.394375 27.6328125 94.054375 27.6328125 94.734375 27.6328125 C94.940625 27.0346875 95.146875 26.4365625 95.359375 25.8203125 C97.39105945 22.58808724 99.12227004 21.90021775 102.734375 20.6328125 C109.75730285 19.74288424 115.99475014 20.21979905 121.734375 24.6328125 C126.22929741 30.1650247 126.83696489 34.40288331 127.05078125 41.3671875 C127.11362305 43.31044922 127.11362305 43.31044922 127.17773438 45.29296875 C127.21754171 46.65624726 127.25725406 48.01952856 127.296875 49.3828125 C127.34009774 50.76173125 127.38371321 52.14063776 127.42773438 53.51953125 C127.53381458 56.8905244 127.6358735 60.26159076 127.734375 63.6328125 C129.59429337 64.33132925 129.59429337 64.33132925 131.734375 64.6328125 C135.62954675 61.55290925 137.0707719 59.46763509 137.734375 54.6328125 C138.86624946 45.82558136 138.86624946 45.82558136 136.359375 37.75390625 C134.83670914 36.68592533 133.28693876 35.65684392 131.734375 34.6328125 C131.421875 31.6328125 131.421875 31.6328125 132.734375 28.6328125 C139.38433173 22.13399115 148.84864266 20.5548387 157.921875 20.3203125 C161.734375 20.6328125 161.734375 20.6328125 163.734375 22.6328125 C163.859375 25.2578125 163.859375 25.2578125 163.734375 27.6328125 C164.13527344 27.21128906 164.53617188 26.78976563 164.94921875 26.35546875 C168.8932399 22.55454134 171.98606485 20.66883984 177.51953125 20.39453125 C181.42768404 20.81498508 183.59817066 22.2646582 186.734375 24.6328125 C187.92578125 26.77734375 187.92578125 26.77734375 188.734375 28.6328125 C189.57355469 28.14361328 189.57355469 28.14361328 190.4296875 27.64453125 C198.9935547 22.97708594 208.87936795 19.90650418 218.734375 20.6328125 C221.65179389 23.55023139 221.0510226 26.61665809 221.078125 30.52734375 C221.0927478 31.3117131 221.10737061 32.09608246 221.12243652 32.90422058 C221.16901644 35.41786587 221.20315264 37.93143232 221.234375 40.4453125 C221.27560186 43.74377844 221.32936262 47.04169595 221.390625 50.33984375 C221.39854065 51.47290703 221.39854065 51.47290703 221.40661621 52.62886047 C221.48283461 56.68522988 221.70078918 60.06765042 223.734375 63.6328125 C224.724375 63.9628125 225.714375 64.2928125 226.734375 64.6328125 C227.734375 66.3203125 227.734375 66.3203125 227.734375 68.6328125 C223.734375 74.29947917 223.734375 74.29947917 219.734375 75.6328125 C215.77995867 75.86590916 211.81993721 75.8179855 207.859375 75.8203125 C206.77011719 75.83255859 205.68085937 75.84480469 204.55859375 75.85742188 C203.50542969 75.85935547 202.45226562 75.86128906 201.3671875 75.86328125 C200.40699707 75.86739014 199.44680664 75.87149902 198.45751953 75.87573242 C195.48491995 75.6105597 193.38371629 75.00016856 190.734375 73.6328125 C188.55399405 70.36224107 188.10190745 69.42761781 188.734375 65.6328125 C189.55808594 64.97410156 190.38179687 64.31539063 191.23046875 63.63671875 C194.89021914 59.24616017 194.39952827 55.48170065 194.234375 49.9453125 C194.23695313 48.98302734 194.23953125 48.02074219 194.2421875 47.02929688 C194.22253185 43.3064741 194.22253185 43.3064741 193.734375 39.6328125 C192.744375 38.9728125 191.754375 38.3128125 190.734375 37.6328125 C190.734375 36.9728125 190.734375 36.3128125 190.734375 35.6328125 C190.074375 35.6328125 189.414375 35.6328125 188.734375 35.6328125 C188.651875 36.5815625 188.569375 37.5303125 188.484375 38.5078125 C187.734375 41.6328125 187.734375 41.6328125 185.671875 43.0078125 C185.0325 43.2140625 184.393125 43.4203125 183.734375 43.6328125 C183.734375 44.2928125 183.734375 44.9528125 183.734375 45.6328125 C180.07825456 47.97272958 177.00230124 48.00719199 172.734375 47.6328125 C169.984375 46.2578125 169.984375 46.2578125 167.734375 44.6328125 C166.744375 43.9728125 165.754375 43.3128125 164.734375 42.6328125 C164.734375 48.2428125 164.734375 53.8528125 164.734375 59.6328125 C167.044375 60.9528125 169.354375 62.2728125 171.734375 63.6328125 C172.859375 66.0703125 172.859375 66.0703125 172.734375 68.6328125 C171.51829253 71.38499914 170.54293921 73.10755333 168.00146484 74.75854492 C163.11254096 76.6438816 157.52979165 75.95889027 152.359375 75.9453125 C150.53019531 75.96948242 150.53019531 75.96948242 148.6640625 75.99414062 C146.89289063 75.99510742 146.89289063 75.99510742 145.0859375 75.99609375 C144.01166504 75.99907471 142.93739258 76.00205566 141.83056641 76.00512695 C138.28031004 75.57821156 135.88785969 74.26067742 132.734375 72.6328125 C130.0339711 73.27944817 130.0339711 73.27944817 127.734375 74.6328125 C123.1544404 76.15945737 118.59366472 75.8172396 113.796875 75.8203125 C112.29350586 75.83868164 112.29350586 75.83868164 110.75976562 75.85742188 C109.31053711 75.86032227 109.31053711 75.86032227 107.83203125 75.86328125 C106.95039307 75.86739014 106.06875488 75.87149902 105.16040039 75.87573242 C102.51866372 75.61121315 100.92686575 75.12574888 98.734375 73.6328125 C97.29730973 68.74679057 97.8135317 66.29940407 100.02734375 61.8515625 C102.21945916 54.97243791 101.0513577 46.61069662 99.734375 39.6328125 C97.424375 39.6328125 95.114375 39.6328125 92.734375 39.6328125 C92.67651853 43.59108485 92.64082783 47.5492492 92.609375 51.5078125 C92.58423828 53.19970703 92.58423828 53.19970703 92.55859375 54.92578125 C92.55214844 56.00214844 92.54570313 57.07851563 92.5390625 58.1875 C92.52858887 59.18249512 92.51811523 60.17749023 92.50732422 61.20263672 C92.49058099 63.81452667 92.49058099 63.81452667 94.734375 65.6328125 C95.234375 68.5078125 95.234375 68.5078125 94.734375 71.6328125 C89.54643347 76.43165841 84.55431792 76.21051027 77.734375 76.0703125 C76.27644531 76.08094727 76.27644531 76.08094727 74.7890625 76.09179688 C69.39759121 76.04405224 65.3419041 75.7443906 60.734375 72.6328125 C59.234375 70.1953125 59.234375 70.1953125 58.734375 67.6328125 C59.484375 65.3828125 59.484375 65.3828125 60.734375 63.6328125 C61.394375 63.3028125 62.054375 62.9728125 62.734375 62.6328125 C67.73531601 50.23839395 67.15655644 32.62451297 64.734375 19.6328125 C63.744375 18.9728125 62.754375 18.3128125 61.734375 17.6328125 C61.65960937 18.24769531 61.58484375 18.86257812 61.5078125 19.49609375 C60.43487251 26.09151897 60.43487251 26.09151897 56.984375 28.7578125 C52.51012379 29.9624186 49.54874234 29.44450315 45.359375 27.5703125 C44.823125 27.2609375 44.286875 26.9515625 43.734375 26.6328125 C43.734375 25.6428125 43.734375 24.6528125 43.734375 23.6328125 C43.074375 23.6328125 42.414375 23.6328125 41.734375 23.6328125 C40.234375 21.1328125 40.234375 21.1328125 38.734375 18.6328125 C38.074375 18.6328125 37.414375 18.6328125 36.734375 18.6328125 C36.734375 31.8328125 36.734375 45.0328125 36.734375 58.6328125 C39.044375 59.9528125 41.354375 61.2728125 43.734375 62.6328125 C44.921875 66.1328125 44.921875 66.1328125 44.734375 69.6328125 C42.31492599 73.07587456 39.65524824 74.32933904 35.734375 75.6328125 C31.13872625 76.05202152 26.5347253 75.95713426 21.921875 75.9453125 C20.67599609 75.96142578 19.43011719 75.97753906 18.14648438 75.99414062 C11.30359595 75.9977708 5.90398672 75.69157054 -0.265625 72.6328125 C-2.265625 70.6328125 -2.265625 70.6328125 -2.703125 67.1953125 C-2.4865625 65.431875 -2.4865625 65.431875 -2.265625 63.6328125 C0.046875 61.8828125 0.046875 61.8828125 2.734375 60.6328125 C5.13232867 58.83434724 5.65794728 57.98255982 6.30639648 55.01513672 C6.78047082 51.26851612 6.86018168 47.59621854 6.83203125 43.828125 C6.82990883 42.7421553 6.82990883 42.7421553 6.82774353 41.63424683 C6.82218575 39.34205843 6.80964133 37.04997093 6.796875 34.7578125 C6.79185453 33.19531392 6.78729259 31.63281379 6.78320312 30.0703125 C6.77223019 26.25777415 6.7549951 22.44531038 6.734375 18.6328125 C6.074375 18.6328125 5.414375 18.6328125 4.734375 18.6328125 C2.93470478 20.83593524 1.32455748 23.14558786 -0.31640625 25.46875 C-2.51732698 27.91225718 -4.12967587 28.73034483 -7.265625 29.6328125 C-11.12003103 29.35078279 -13.45074558 28.26119888 -16.265625 25.6328125 C-17.90082164 19.3468618 -16.2986013 14.00097761 -13.265625 8.4453125 C-12.28807082 6.82736982 -11.29572553 5.21781837 -10.265625 3.6328125 C-9.605625 3.6328125 -8.945625 3.6328125 -8.265625 3.6328125 C-8.265625 2.9728125 -8.265625 2.3128125 -8.265625 1.6328125 C-5.21720406 -0.16618521 -3.48032622 -0.54062584 0 0 Z " fill="#000000" transform="translate(776.265625,206.3671875)"/>
<path d="M0 0 C0.89203125 0.00902344 1.7840625 0.01804688 2.703125 0.02734375 C3.37859375 0.03894531 4.0540625 0.05054688 4.75 0.0625 C5.84266243 7.08307121 5.86532882 13.96718303 5.8125 21.0625 C5.80798828 22.21878906 5.80347656 23.37507813 5.79882812 24.56640625 C5.78712529 27.39849225 5.77072996 30.23046811 5.75 33.0625 C7.73 32.4025 9.71 31.7425 11.75 31.0625 C11.255 30.0725 11.255 30.0725 10.75 29.0625 C10.4375 26.125 10.4375 26.125 10.75 23.0625 C13.92948947 19.76945734 17.22356587 19.1687578 21.66796875 18.859375 C28.5463608 18.76076006 34.45539142 19.113812 40.75 22.0625 C41.75 23.0625 41.75 23.0625 41.8125 26.625 C41.791875 27.759375 41.77125 28.89375 41.75 30.0625 C41.14671875 30.30484375 40.5434375 30.5471875 39.921875 30.796875 C35.45093996 32.67178324 31.90166283 34.22569307 28.75 38.0625 C31.51114101 42.31040925 34.45437074 46.33837945 37.578125 50.328125 C38.75 52.0625 38.75 52.0625 38.75 54.0625 C40.235 54.5575 40.235 54.5575 41.75 55.0625 C43.10500919 56.37379922 44.43671343 57.70941687 45.75 59.0625 C47.06558703 60.08573436 48.39377755 61.09376968 49.75 62.0625 C52.00223924 61.1616043 53.44990015 60.49045929 54.859375 58.48046875 C56.12118285 55.05477113 56.11843078 51.72821797 56.125 48.125 C56.16173828 47.07022461 56.16173828 47.07022461 56.19921875 45.99414062 C56.22000343 42.29793089 55.87220461 40.25184171 53.8515625 37.12109375 C51.92231159 35.02098379 51.92231159 35.02098379 49.75 34.0625 C49.38829787 28.63696809 49.38829787 28.63696809 50.8125 26.375 C58.85728094 20.92530968 70.14835703 18.54688202 79.75 19.0625 C80.41 19.3925 81.07 19.7225 81.75 20.0625 C81.75410889 21.15191895 81.75821777 22.24133789 81.76245117 23.36376953 C81.78429807 27.42332638 81.8386443 31.48192162 81.90258789 35.54101562 C81.92571968 37.29450228 81.94015229 39.04812692 81.94555664 40.80175781 C81.95488199 43.32964584 81.99594635 45.85537817 82.04296875 48.3828125 C82.0390361 49.16117462 82.03510345 49.93953674 82.03105164 50.7414856 C82.18614944 56.58685586 83.83657547 58.79436227 87.75 63.0625 C88.0625 66.9375 88.0625 66.9375 87.75 70.0625 C81.48085526 74.57235484 76.20334915 74.64238111 68.625 74.5 C67.55378906 74.50708984 66.48257813 74.51417969 65.37890625 74.52148438 C59.68173851 74.47536782 56.64352749 74.07263103 51.75 71.0625 C49.73673034 71.68795162 47.7399328 72.36635928 45.75 73.0625 C41.56379315 73.45581984 37.38997611 73.47822551 33.1875 73.5 C32.06408203 73.53287109 30.94066406 73.56574219 29.78320312 73.59960938 C21.56266936 73.65333835 21.56266936 73.65333835 17.7734375 70.8984375 C17.10570312 69.96257812 16.43796875 69.02671875 15.75 68.0625 C14.93917969 67.10730469 14.12835937 66.15210938 13.29296875 65.16796875 C12.51566406 64.20503906 11.73835937 63.24210937 10.9375 62.25 C10.14730469 61.27417969 9.35710938 60.29835938 8.54296875 59.29296875 C7.95128906 58.55691406 7.35960937 57.82085937 6.75 57.0625 C6.42 58.3825 6.09 59.7025 5.75 61.0625 C7.07 61.7225 8.39 62.3825 9.75 63.0625 C10.08074549 66.70070044 10.23805542 68.4398086 7.9375 71.375 C2.85118343 75.29872993 -3.49477485 74.32322445 -9.625 74.375 C-11.33042969 74.41850586 -11.33042969 74.41850586 -13.0703125 74.46289062 C-21.41470834 74.52655092 -21.41470834 74.52655092 -25.51953125 72.24609375 C-27.77695035 69.39756716 -27.65255445 67.60497913 -27.25 64.0625 C-26.610625 63.835625 -25.97125 63.60875 -25.3125 63.375 C-23.0316696 62.25029104 -23.0316696 62.25029104 -22.65625 59.83984375 C-20.63543818 46.02448602 -21.14341986 31.98350602 -21.25 18.0625 C-22.03375 17.93875 -22.8175 17.815 -23.625 17.6875 C-26.25 17.0625 -26.25 17.0625 -28.25 15.0625 C-28.375 11.6875 -28.375 11.6875 -27.25 8.0625 C-22.37714254 4.03764631 -15.23841936 2.66144871 -9.25 1.0625 C-8.6003125 0.87171875 -7.950625 0.6809375 -7.28125 0.484375 C-4.81256887 -0.02835108 -2.51916726 -0.03314694 0 0 Z " fill="#000000" transform="translate(595.25,207.9375)"/>
<path d="M0 0 C0 50.82 0 101.64 0 154 C-4.93469787 151.53265106 -7.70170839 148.17334464 -11.3671875 144.1171875 C-13.8402899 141.82300562 -13.8402899 141.82300562 -16.89453125 141.2890625 C-21.49060491 142.3412454 -23.70489397 145.09120068 -26.8125 148.5 C-28.86490344 150.6768601 -30.92781497 152.84184448 -33 155 C-33.33 155 -33.66 155 -34 155 C-34 107.81 -34 60.62 -34 12 C-26.66635961 8.9443165 -19.38295807 5.9318389 -11.9375 3.1875 C-11.11056641 2.87619141 -10.28363281 2.56488281 -9.43164062 2.24414062 C-8.63822266 1.95087891 -7.84480469 1.65761719 -7.02734375 1.35546875 C-5.97148071 0.96331177 -5.97148071 0.96331177 -4.89428711 0.56323242 C-3 0 -3 0 0 0 Z " fill="#FED92C" transform="translate(478,169)"/>
<path d="M0 0 C1.688393 -0.02985904 3.37638171 -0.09493861 5.0625 -0.1875 C8.89914079 -0.25154105 9.91260771 -0.05178803 13.375 2 C17.39883337 6.59866671 19.67425898 10.59765998 20.5 16.6875 C19.90021697 20.66106256 18.94788481 22.29113287 16 25 C13.6875 26.0625 13.6875 26.0625 11 26 C6.02347974 23.68947274 2.78929833 20.99981491 -1 17 C-4.08888522 14.94074319 -4.70935927 14.7609626 -8.1875 14.875 C-9.445625 14.91625 -10.70375 14.9575 -12 15 C-12.495 16.485 -12.495 16.485 -13 18 C-10.86392817 21.20410774 -10.58673958 21.41438722 -7.1484375 22.39453125 C-6.38297607 22.62462891 -5.61751465 22.85472656 -4.82885742 23.09179688 C-4.01908447 23.32962891 -3.20931152 23.56746094 -2.375 23.8125 C4.30616782 25.90927393 9.99115007 27.89839359 15 33 C15.50789062 33.50660156 16.01578125 34.01320312 16.5390625 34.53515625 C20.88841817 39.28543018 21.31382662 43.52946474 21.21875 49.81640625 C20.6062237 55.93073128 18.4893653 61.74085856 14 66 C0.66841453 75.1783721 -13.41887937 75.73807759 -29.25488281 73.71142578 C-34.42600815 72.70973874 -38.70702449 70.95919108 -42.125 66.875 C-45.41885566 61.1811603 -46.7729893 53.49311015 -46 47 C-44.5 44.625 -44.5 44.625 -43 43 C-40.15816107 42.94316322 -38.57243297 42.92256815 -36 44 C-34.12549784 46.20454995 -32.7077767 48.46489076 -31.26171875 50.96875 C-30.15981873 53.13834566 -30.15981873 53.13834566 -28 54 C-28 54.66 -28 55.32 -28 56 C-21.92972642 58.1583195 -16.40629424 58.20852314 -10 58 C-9.67 56.68 -9.34 55.36 -9 54 C-12.00926536 52.41099539 -15.03571475 51.23622433 -18.25 50.125 C-26.55041399 47.11568656 -34.05687794 43.81246173 -40 37 C-40 36.01 -40 35.02 -40 34 C-40.66 34 -41.32 34 -42 34 C-44.55849687 28.34654724 -44.90085996 23.11963488 -44 17 C-41.73835008 12.03611902 -38.22377104 7.46952621 -34 4 C-33.34 4 -32.68 4 -32 4 C-32 3.34 -32 2.68 -32 2 C-20.9316351 -2.46723196 -11.4882761 -3.46815882 0 0 Z " fill="#000000" transform="translate(545,208)"/>
<path d="M0 0 C4.70686179 1.17671545 5.94548966 2.65998488 9.25 6.125 C12.22595611 9.22997155 15.18707356 12.20265498 18.453125 15 C24.36167264 20.11634797 29.97943811 25.53386395 35.56640625 30.99658203 C36.86107915 32.25431098 38.16460234 33.50299011 39.4765625 34.74267578 C41.39184901 36.55447196 43.27593108 38.39420875 45.15625 40.2421875 C45.74361938 40.78624237 46.33098877 41.33029724 46.93615723 41.89083862 C49.90355479 44.87237463 51.4321505 47.1760079 51.79882812 51.43164062 C51.38396732 57.14501507 48.07244998 60.0909013 44.0625 63.8515625 C43.34900391 64.55469574 42.63550781 65.25782898 41.90039062 65.98226929 C39.62057142 68.21851577 37.31124069 70.42129252 35 72.625 C33.47586127 74.11253348 31.95370341 75.60209946 30.43359375 77.09375 C24.3660702 83.01854608 18.25732875 88.85177834 11.84106445 94.39974976 C9.37600133 96.54237863 6.95880487 98.7358141 4.54296875 100.93359375 C3 102 3 102 0 102 C0 68.34 0 34.68 0 0 Z " fill="#FE8B00" transform="translate(461,310)"/>
<path d="M0 0 C5.40488494 3.48147658 9.93964223 6.95176144 11.96484375 13.265625 C12.91681257 22.47692892 12.91681257 22.47692892 10.82739258 26.40283203 C8.96484375 28.265625 8.96484375 28.265625 6.14575195 28.71972656 C5.03031006 28.6987793 3.91486816 28.67783203 2.765625 28.65625 C1.55712891 28.64335937 0.34863281 28.63046875 -0.89648438 28.6171875 C-2.15912109 28.58367187 -3.42175781 28.55015625 -4.72265625 28.515625 C-5.99689453 28.49757813 -7.27113281 28.47953125 -8.58398438 28.4609375 C-11.73512466 28.41372941 -14.88476765 28.34788884 -18.03515625 28.265625 C-18.03515625 29.585625 -18.03515625 30.905625 -18.03515625 32.265625 C-17.41640625 32.575 -16.79765625 32.884375 -16.16015625 33.203125 C-14.78515625 33.890625 -13.41015625 34.578125 -12.03515625 35.265625 C-6.5890491 35.81233846 -3.36053027 35.72592421 0.96484375 32.265625 C4.58984375 31.890625 4.58984375 31.890625 7.96484375 32.265625 C10.32570497 35.80691684 10.53753953 37.09312718 9.96484375 41.265625 C6.39872457 47.09028634 1.54655149 50.45104202 -5.03515625 52.265625 C-14.32933992 53.4573921 -24.61121228 54.03150344 -32.671875 48.65234375 C-34.03515625 47.265625 -34.03515625 47.265625 -35.03515625 44.265625 C-36.36767691 43.59733545 -37.70107076 42.93078522 -39.03515625 42.265625 C-42.99419863 37.09842415 -43.66450464 31.58213825 -43.53515625 25.265625 C-43.550625 24.51023438 -43.56609375 23.75484375 -43.58203125 22.9765625 C-43.53607936 16.29056233 -41.49089013 11.24682158 -37.24609375 6.09375 C-26.85875678 -2.83493965 -12.77492688 -6.75619969 0 0 Z M-17.16015625 10.015625 C-17.77890625 10.758125 -18.39765625 11.500625 -19.03515625 12.265625 C-18.89874248 14.48420753 -18.89874248 14.48420753 -18.03515625 16.265625 C-15.72515625 16.265625 -13.41515625 16.265625 -11.03515625 16.265625 C-10.17157002 14.48420753 -10.17157002 14.48420753 -10.03515625 12.265625 C-11.82706657 9.97347455 -11.82706657 9.97347455 -14.03515625 8.265625 C-15.36530778 8.15967379 -15.36530778 8.15967379 -17.16015625 10.015625 Z " fill="#000000" transform="translate(1114.03515625,229.734375)"/>
<path d="M0 0 C0.495 0.495 0.495 0.495 1 1 C0.62056512 5.09789669 0.30694043 7.53958935 -2 11 C-0.68 13.31 0.64 15.62 2 18 C4.06402968 17.51294288 4.06402968 17.51294288 6 16 C7.00082535 12.57756686 7.00082535 12.57756686 7 9 C6.34 8.01 5.68 7.02 5 6 C4.6875 2.9375 4.6875 2.9375 5 0 C9.52821905 -3.0188127 13.6402358 -3.15331783 19 -3.1875 C20.5159375 -3.20876953 20.5159375 -3.20876953 22.0625 -3.23046875 C26.24311708 -2.90246821 29.02333829 -1.97666171 32 1 C32.0625 3.9375 32.0625 3.9375 31 7 C29.96746094 7.29132813 28.93492188 7.58265625 27.87109375 7.8828125 C21.70738761 10.3087931 19.67467596 17.32918811 17 22.9375 C15.83642713 25.30230603 14.66977494 27.66559948 13.5 30.02734375 C12.64148437 31.76540283 12.64148437 31.76540283 11.765625 33.53857422 C3.89849102 48.96172487 3.89849102 48.96172487 0 52 C-4.56503287 52.5890365 -6.7840529 52.8106314 -10.625 50.25 C-13.50855083 46.81448234 -15.26708279 42.69274853 -17.1875 38.671875 C-19.34725195 34.20738775 -21.76999162 29.8912208 -24.1875 25.5625 C-24.61571045 24.79333252 -25.0439209 24.02416504 -25.48510742 23.23168945 C-26.64885784 21.14989714 -27.82362291 19.07467231 -29 17 C-29.52980469 16.04480469 -30.05960938 15.08960938 -30.60546875 14.10546875 C-32.53586672 11.19094633 -35.04592286 9.79813391 -38 8 C-39 7 -39 7 -39.4375 4.6875 C-39 2 -39 2 -36.375 -0.25 C-26.35030741 -5.44798875 -10.09502142 -4.5886461 0 0 Z " fill="#000000" transform="translate(1040,230)"/>
<path d="M0 0 C1 1 1 1 1.11352539 3.12992859 C1.10828857 4.06891495 1.10305176 5.00790131 1.09765625 5.9753418 C1.09435303 7.03702072 1.0910498 8.09869965 1.08764648 9.19255066 C1.07934814 10.34975113 1.0710498 11.5069516 1.0625 12.69921875 C1.05871338 13.88216019 1.05492676 15.06510162 1.05102539 16.28388977 C1.03462099 21.36630399 1.0066102 26.44863927 0.97949219 31.53100586 C0.96139348 35.23290637 0.94930222 38.93479366 0.9375 42.63671875 C0.92920166 43.78379807 0.92090332 44.93087738 0.91235352 46.11271667 C0.90905029 47.1901564 0.90574707 48.26759613 0.90234375 49.37768555 C0.89710693 50.32064987 0.89187012 51.2636142 0.88647461 52.2351532 C1.01030025 55.25085666 1.33125423 58.05534606 2 61 C2.680625 61.495 3.36125 61.99 4.0625 62.5 C6 64 6 64 6.4375 67 C6 70 6 70 4.6875 71.8125 C-0.202685 75.2537413 -6.66977431 74.22430079 -12.375 74.25 C-13.51195312 74.270625 -14.64890625 74.29125 -15.8203125 74.3125 C-16.91859375 74.31765625 -18.016875 74.3228125 -19.1484375 74.328125 C-20.15052246 74.3374707 -21.15260742 74.34681641 -22.18505859 74.35644531 C-26.41754844 73.82050124 -29.02645373 71.97354627 -32 69 C-32.4375 66.625 -32.4375 66.625 -32 64 C-30.37064759 62.62131719 -28.70250393 61.28725907 -27 60 C-25.57207372 56.35908312 -25.83829197 52.42303503 -25.83203125 48.56640625 C-25.82870285 47.85145493 -25.82537445 47.1365036 -25.82194519 46.39988708 C-25.81689409 44.89119101 -25.8145363 43.38248382 -25.81469727 41.8737793 C-25.81251081 39.57386773 -25.79433645 37.27443617 -25.77539062 34.97460938 C-25.77245625 33.50520997 -25.77047175 32.03580829 -25.76953125 30.56640625 C-25.76234573 29.88292618 -25.75516022 29.19944611 -25.74775696 28.49525452 C-25.76639998 24.57231636 -26.13898662 21.4827245 -28 18 C-28.680625 17.690625 -29.36125 17.38125 -30.0625 17.0625 C-32 16 -32 16 -32.875 13.125 C-33.00741364 9.81465896 -32.72477195 8.73318494 -31 6 C-22.60505517 -0.43822836 -10.07926389 -0.72476312 0 0 Z " fill="#000000" transform="translate(716,208)"/>
<path d="M0 0 C1.0839042 4.33561681 0.96345677 8.11263769 0.54296875 12.546875 C-0.11708575 20.67710633 -0.29199376 28.78801593 -0.35009766 36.94140625 C-0.36683994 38.66159419 -0.39436182 40.38170771 -0.43212891 42.1015625 C-0.48681871 44.62014679 -0.50873006 47.13715294 -0.5234375 49.65625 C-0.54610687 50.42086548 -0.56877625 51.18548096 -0.59213257 51.9732666 C-0.57587409 56.07178134 -0.26723642 57.70418464 2.52490234 60.79492188 C3.34168457 61.52259766 4.1584668 62.25027344 5 63 C5.125 66.625 5.125 66.625 4 70 C-1.42183487 74.12878383 -6.90188547 73.47874599 -13.4375 73.4375 C-14.55705078 73.45748047 -15.67660156 73.47746094 -16.83007812 73.49804688 C-27.44465261 73.49174742 -27.44465261 73.49174742 -32 69 C-32.375 65.25 -32.375 65.25 -32 62 C-30.02 61.505 -30.02 61.505 -28 61 C-26.807872 53.46575107 -26.81630805 45.99109107 -26.8125 38.375 C-26.80025391 37.07820313 -26.78800781 35.78140625 -26.77539062 34.4453125 C-26.77345703 33.19234375 -26.77152344 31.939375 -26.76953125 30.6484375 C-26.76542236 29.51583496 -26.76131348 28.38323242 -26.75708008 27.21630859 C-27.01475048 23.80470072 -27.66498615 21.14631211 -29 18 C-29.86625 17.34 -30.7325 16.68 -31.625 16 C-34 14 -34 14 -34.5625 11 C-33.86727102 7.29211212 -32.97771183 6.27246429 -30 4 C-22.80061637 -0.56546279 -8.0141301 -4.00706505 0 0 Z " fill="#000000" transform="translate(756,209)"/>
<path d="M0 0 C1.12614919 0.95444187 2.2507759 1.91068032 3.37475586 2.86767578 C4.00119492 3.3999881 4.62763397 3.93230042 5.27305603 4.48074341 C7.18484904 6.16261855 8.87415392 7.97085028 10.5625 9.875 C12.82808918 12.13051989 13.80557764 12.94208696 16.9375 13.875 C20.83862806 12.76039198 22.97343586 10.79415196 25.875 8.01953125 C28.48152295 5.54237617 31.23005722 3.29326921 34 1 C34.12422629 6.55004849 34.21463317 12.09927582 34.2746582 17.65039062 C34.29969777 19.53595083 34.33373999 21.42141498 34.37719727 23.30664062 C34.43831786 26.02758564 34.46631493 28.74724027 34.48828125 31.46875 C34.51408768 32.30241089 34.5398941 33.13607178 34.56648254 33.99499512 C34.56937895 40.13229666 32.95275472 44.27485993 29 49 C24.49953676 52.86957119 20.22988656 53.5921424 14.359375 53.31640625 C9.40232852 52.65163677 6.37480104 50.64092649 3.1875 46.9375 C0.63661075 43.51202015 -0.12594319 42.06502422 -0.11352539 37.91748047 C-0.11344986 37.07675995 -0.11337433 36.23603943 -0.11329651 35.36984253 C-0.10813522 34.46146637 -0.10297394 33.55309021 -0.09765625 32.6171875 C-0.0962413 31.68778351 -0.09482635 30.75837952 -0.09336853 29.80081177 C-0.08776053 26.82550876 -0.07520668 23.85028036 -0.0625 20.875 C-0.05748603 18.86067817 -0.05292295 16.84635516 -0.04882812 14.83203125 C-0.0377885 9.88799198 -0.02051849 4.94400865 0 0 Z " fill="#FED92C" transform="translate(444,398)"/>
<path d="M0 0 C1.44430855 2.88861709 1.37688506 4.79647701 1 8 C-2.12533973 11.95263554 -5.38203188 14.08126677 -10 16 C-12.8099484 16.30881611 -15.32713803 16.46604961 -18.125 16.4375 C-19.17880859 16.4674707 -19.17880859 16.4674707 -20.25390625 16.49804688 C-23.69931522 16.49479034 -25.65307387 16.25632758 -28.453125 14.1875 C-30 12 -30 12 -30.625 8.5625 C-29.94309892 4.67566383 -28.96935961 3.26547528 -25.75 1 C-19.00105653 -2.85653913 -6.80889521 -4.52863288 0 0 Z " fill="#000000" transform="translate(676,210)"/>
<path d="M0 0 C2.19921875 1.58984375 2.19921875 1.58984375 3.13671875 3.40234375 C3.23031076 6.67806396 2.67323408 8.64181309 1.19921875 11.58984375 C-1.04315498 13.29857566 -3.23254092 14.35158502 -5.80078125 15.58984375 C-6.46078125 15.91984375 -7.12078125 16.24984375 -7.80078125 16.58984375 C-10.44195814 16.76688967 -13.03274721 16.86725923 -15.67578125 16.90234375 C-16.39636719 16.93134766 -17.11695313 16.96035156 -17.859375 16.99023438 C-21.39798023 17.03259337 -23.39763842 16.88870357 -26.27734375 14.75390625 C-28.36732905 11.78505534 -28.382251 10.15134594 -27.80078125 6.58984375 C-25.81733426 2.88166025 -23.6275946 1.26361972 -19.80078125 -0.22265625 C-13.47805018 -2.05457336 -6.01027639 -3.02609453 0 0 Z " fill="#000000" transform="translate(993.80078125,209.41015625)"/>
</svg>
