<?xml version="1.0" encoding="UTF-8"?>
<svg version="1.1" xmlns="http://www.w3.org/2000/svg" width="1377" height="512">
<path d="M0 0 C0.87391891 0.31411331 1.74783783 0.62822662 2.64823914 0.95185852 C4.47800397 1.60958715 6.30663413 2.27048039 8.13415527 2.93441772 C11.49627834 4.15173684 14.86796308 5.34069616 18.24090576 6.52763367 C22.54766751 8.04395735 26.84985863 9.57315459 31.15234375 11.1015625 C32.57305176 11.60620026 32.57305176 11.60620026 34.02246094 12.12103271 C52.47338484 18.6797833 70.87852015 25.36187967 89.27661133 32.06713867 C105.3384651 37.91993369 121.41297782 43.73662077 137.49649048 49.52954102 C145.12055003 52.27572085 152.74324489 55.02568835 160.36601257 57.77545166 C160.99317138 58.00168591 161.62033018 58.22792015 162.2664938 58.46100998 C163.53562983 58.91882775 164.80476244 59.376655 166.07389164 59.83449173 C169.31064032 61.00206579 172.54754538 62.16920363 175.784729 63.33557129 C183.52818973 66.12558541 191.2699807 68.92013353 199.00927734 71.72167969 C201.41310679 72.59093741 203.81755455 73.45848739 206.22265625 74.32421875 C209.54073262 75.51887604 212.8565428 76.71962698 216.171875 77.921875 C217.13982498 78.26880402 218.10777496 78.61573303 219.10505676 78.97317505 C233.96046497 84.38329204 233.96046497 84.38329204 236.52734375 88.8515625 C236.92173788 92.71662501 236.15925669 93.84895104 233.83984375 96.9140625 C231.23828125 98.390625 231.23828125 98.390625 228.21484375 99.5390625 C227.23257812 99.92320312 226.2503125 100.30734375 225.23828125 100.703125 C222.54271313 101.66361479 219.84273262 102.58774126 217.12744141 103.48974609 C216.32279449 103.75725677 215.51814758 104.02476746 214.68911743 104.30038452 C214.07885712 104.50289825 213.4685968 104.70541199 212.83984375 104.9140625 C212.06248891 124.55058596 211.48401364 144.18391879 211.13004208 163.8327322 C210.96116064 172.96093525 210.73106013 182.0793977 210.3503418 191.20141602 C206.37165131 235.42103997 206.37165131 235.42103997 222.52937031 274.40578175 C227.99285401 279.95928086 234.14371894 284.92748898 240.8616581 288.89344215 C245.5705843 291.82148297 245.5705843 291.82148297 246.384305 295.12333393 C246.51249032 298.53407901 246.37246225 301.03100877 244.59376526 303.97999573 C244.01054001 304.42560349 243.42731476 304.87121124 242.82641602 305.33032227 C242.1690596 305.86270508 241.51170319 306.39508789 240.83442688 306.94360352 C240.11562851 307.49201904 239.39683014 308.04043457 238.65625 308.60546875 C237.14899741 309.86631446 235.64823496 311.13495047 234.15332031 312.41040039 C233.37347778 313.07153839 232.59363525 313.73267639 231.79016113 314.41384888 C216.71228901 327.414184 216.71228901 327.414184 210.6015625 345.6953125 C210.17371668 353.44798288 210.84574414 361.14571164 211.61871338 368.8575592 C212.05938618 374.1177147 211.60318651 377.4313988 208.28881836 381.56811523 C204.04658783 385.50870781 200.63222681 387.13178461 194.77734375 387.3515625 C189.76355829 387.11606652 186.0233814 386.13913484 182.40234375 382.44921875 C180.62659059 380.38591465 179.05980212 378.35397924 177.83984375 375.9140625 C178.01257473 373.98315796 178.19328239 372.0525976 178.41650391 370.12687683 C180.86161945 348.52149981 180.86161945 348.52149981 173.57421875 328.79150391 C166.45949795 320.04887474 157.82480271 312.47974392 148.95849609 305.55256653 C145.99523297 303.18017164 144.10904165 301.47379026 142.44726562 298.01855469 C143.09520598 292.89466814 146.01691542 290.22269681 149.83984375 286.9140625 C151.42336694 285.88934325 153.00840552 284.86636296 154.61552334 283.87905979 C165.14397978 277.29695286 174.65947591 268.94978049 177.67681122 256.44556427 C180.90186063 236.19355128 179.54178085 215.13194759 178.78456891 194.7250756 C178.47884113 186.33693011 178.33334497 177.94809929 178.1985811 169.55574286 C177.9185837 152.33429531 177.42490703 135.12825785 176.83984375 117.9140625 C163.30984375 122.8640625 149.77984375 127.8140625 135.83984375 132.9140625 C135.8258252 138.16763672 135.8258252 138.16763672 135.81152344 143.52734375 C135.77773816 155.10642544 135.72238063 166.68534874 135.65594101 178.26428223 C135.61618884 185.28377651 135.58377706 192.30315931 135.56884766 199.32275391 C135.55441582 206.09858985 135.51926095 212.87406763 135.47153473 219.64974976 C135.45671128 222.23323562 135.44880219 224.81677082 135.4479599 227.40029907 C135.44559155 231.02244806 135.41851967 234.64364102 135.38574219 238.265625 C135.39077255 239.3308992 135.39580292 240.3961734 135.40098572 241.49372864 C135.2957382 249.02412584 133.91473558 254.19665596 129.0078125 260.12890625 C94.64902825 290.01494936 43.88354352 297.76076764 -0.03515625 299.4765625 C-1.09669922 299.5182959 -2.15824219 299.5600293 -3.25195312 299.60302734 C-10.56271451 299.87791018 -17.84443287 300.09289129 -25.16015625 299.9140625 C-25.93037109 299.90149414 -26.70058594 299.88892578 -27.49414062 299.87597656 C-72.07146505 299.06155117 -122.58587005 292.55462962 -159.16015625 264.9140625 C-159.86398438 264.39199219 -160.5678125 263.86992187 -161.29296875 263.33203125 C-166.43133745 259.25788536 -169.88927284 254.47813638 -171.16015625 247.9140625 C-171.24711299 246.27494775 -171.28217195 244.63269073 -171.28041077 242.99127197 C-171.28247276 241.50633995 -171.28247276 241.50633995 -171.28457642 239.9914093 C-171.2791835 238.37192635 -171.2791835 238.37192635 -171.27368164 236.71972656 C-171.27382767 235.5779747 -171.27397369 234.43622284 -171.27412415 233.25987244 C-171.27342706 229.48312485 -171.26564412 225.70642648 -171.2578125 221.9296875 C-171.2559476 219.31223579 -171.25452404 216.69478373 -171.25352478 214.07733154 C-171.25041779 207.89028678 -171.24221292 201.7032597 -171.23217529 195.51622272 C-171.22099453 188.47152643 -171.21549875 181.42682929 -171.21047986 174.38212633 C-171.20002979 159.8927626 -171.18244257 145.4034128 -171.16015625 130.9140625 C-172.32526639 130.68989214 -172.32526639 130.68989214 -173.51391411 130.46119308 C-176.1128778 129.92383768 -178.45630429 129.17601495 -180.94580078 128.26269531 C-181.8746962 127.92389343 -182.80359161 127.58509155 -183.76063538 127.23602295 C-184.76130539 126.86680725 -185.7619754 126.49759155 -186.79296875 126.1171875 C-188.37343239 125.53895233 -188.37343239 125.53895233 -189.98582458 124.94903564 C-193.42036867 123.69124751 -196.85287418 122.42800907 -200.28515625 121.1640625 C-202.64049163 120.29868662 -204.99587924 119.43345287 -207.35131836 118.56835938 C-212.06587836 116.83608049 -216.77949975 115.10127474 -221.49267578 113.36523438 C-226.55535994 111.50178529 -231.62227467 109.65042287 -236.69274902 107.80828857 C-239.95798054 106.62114864 -243.22083144 105.42757306 -246.48309326 104.2322998 C-247.96861042 103.68955751 -249.45513697 103.14956956 -250.94268799 102.61242676 C-252.97772395 101.87690786 -255.00874618 101.13124194 -257.0390625 100.3828125 C-258.15869385 99.97482422 -259.2783252 99.56683594 -260.43188477 99.14648438 C-262.99903439 97.98684488 -264.44308225 97.11461296 -266.16015625 94.9140625 C-266.59375 92.9765625 -266.59375 92.9765625 -266.59765625 90.9140625 C-266.61699219 90.2334375 -266.63632812 89.5528125 -266.65625 88.8515625 C-265.94520479 86.07456704 -264.52808576 85.47100148 -262.16015625 83.9140625 C-260.4752081 83.17563569 -258.75966602 82.50501932 -257.02685547 81.88720703 C-255.99077652 81.51391769 -254.95469757 81.14062836 -253.88722229 80.75602722 C-252.75783737 80.35700699 -251.62845245 79.95798676 -250.46484375 79.546875 C-248.63875569 78.89201744 -246.81266794 78.237159 -244.98659229 77.58226681 C-243.02833122 76.88147882 -241.068879 76.18412265 -239.10903931 75.48776245 C-234.98125296 74.02099158 -230.85692038 72.54468031 -226.7331543 71.06665039 C-222.45423247 69.53344832 -218.17513056 68.00076328 -213.8948822 66.4712677 C-201.09330277 61.89647299 -188.30861499 57.27584352 -175.52862549 52.64105225 C-170.74029303 50.90467457 -165.95128154 49.17017367 -161.16229248 47.43560791 C-157.56206491 46.1315784 -153.96193209 44.82728759 -150.36181641 43.52294922 C-143.13214922 40.90375697 -135.90207251 38.28569664 -128.671875 35.66796875 C-127.47252823 35.23373596 -126.27318146 34.79950317 -125.03749084 34.35211182 C-119.03292792 32.17815245 -113.02831974 30.00431812 -107.02368164 27.83056641 C-95.66554146 23.71863371 -84.30779644 19.60561954 -72.95129395 15.48916626 C-68.22497916 13.77600254 -63.4984846 12.06333508 -58.77194977 10.35077858 C-55.54101032 9.18007415 -52.31017688 8.00907896 -49.07958984 6.83740234 C-45.51815262 5.54586132 -41.95637842 4.2552537 -38.39453125 2.96484375 C-36.8143924 2.39138969 -36.8143924 2.39138969 -35.20233154 1.80635071 C-22.12819945 -2.92756124 -13.36983067 -4.92719096 0 0 Z " fill="#00307E" transform="translate(266.16015625,64.0859375)"/>
<path d="M0 0 C10.12287661 0 10.12287661 0 13.53979492 1.27856445 C14.69213371 1.69648506 14.69213371 1.69648506 15.86775208 2.12284851 C16.66807358 2.42906631 17.46839508 2.73528412 18.29296875 3.05078125 C20.06554201 3.70017024 21.8381672 4.3494175 23.61083984 4.99853516 C24.50768494 5.33274475 25.40453003 5.66695435 26.32855225 6.0112915 C30.48921266 7.55116077 34.6771888 9.0115172 38.86328125 10.48046875 C42.34733569 11.71338216 45.82994358 12.95036225 49.3125 14.1875 C50.25963867 14.52392517 51.20677734 14.86035034 52.18261719 15.20697021 C70.63354109 21.7657208 89.0386764 28.44781717 107.43676758 35.15307617 C123.49862135 41.00587119 139.57313407 46.82255827 155.65664673 52.61547852 C163.28070628 55.36165835 170.90340114 58.11162585 178.52616882 60.86138916 C179.15332763 61.08762341 179.78048643 61.31385765 180.42665005 61.54694748 C181.69578608 62.00476525 182.96491869 62.4625925 184.23404789 62.92042923 C187.47079657 64.08800329 190.70770163 65.25514113 193.94488525 66.42150879 C201.68834598 69.21152291 209.43013695 72.00607103 217.16943359 74.80761719 C219.57326304 75.67687491 221.9777108 76.54442489 224.3828125 77.41015625 C227.70088887 78.60481354 231.01669905 79.80556448 234.33203125 81.0078125 C235.29998123 81.35474152 236.26793121 81.70167053 237.26521301 82.05911255 C252.12062122 87.46922954 252.12062122 87.46922954 254.6875 91.9375 C255.08189413 95.80256251 254.31941294 96.93488854 252 100 C249.3984375 101.4765625 249.3984375 101.4765625 246.375 102.625 C245.39273438 103.00914062 244.41046875 103.39328125 243.3984375 103.7890625 C240.70286938 104.74955229 238.00288887 105.67367876 235.28759766 106.57568359 C234.48295074 106.84319427 233.67830383 107.11070496 232.84927368 107.38632202 C232.23901337 107.58883575 231.62875305 107.79134949 231 108 C230.22264516 127.63652346 229.64416989 147.26985629 229.29019833 166.9186697 C229.12131689 176.04687275 228.89121638 185.1653352 228.51049805 194.28735352 C224.53180756 238.50697747 224.53180756 238.50697747 240.68952656 277.49171925 C246.15301026 283.04521836 252.30387519 288.01342648 259.02181435 291.97937965 C263.73074055 294.90742047 263.73074055 294.90742047 264.54446125 298.20927143 C264.67264657 301.62001651 264.5326185 304.11694627 262.75392151 307.06593323 C262.17069626 307.51154099 261.58747101 307.95714874 260.98657227 308.41625977 C260.32921585 308.94864258 259.67185944 309.48102539 258.99458313 310.02954102 C258.27578476 310.57795654 257.55698639 311.12637207 256.81640625 311.69140625 C255.30915366 312.95225196 253.80839121 314.22088797 252.31347656 315.49633789 C251.53363403 316.15747589 250.7537915 316.81861389 249.95031738 317.49978638 C234.87244526 330.5001215 234.87244526 330.5001215 228.76171875 348.78125 C228.33387293 356.53392038 229.00590039 364.23164914 229.77886963 371.9434967 C230.21954243 377.2036522 229.76334276 380.5173363 226.44897461 384.65405273 C222.20674408 388.59464531 218.79238306 390.21772211 212.9375 390.4375 C207.92371454 390.20200402 204.18353765 389.22507234 200.5625 385.53515625 C198.78674684 383.47185215 197.21995837 381.43991674 196 379 C196.17273098 377.06909546 196.35343864 375.1385351 196.57666016 373.21281433 C199.0217757 351.60743731 199.0217757 351.60743731 191.734375 331.87744141 C184.6196542 323.13481224 175.98495896 315.56568142 167.11865234 308.63850403 C164.15538922 306.26610914 162.2691979 304.55972776 160.60742188 301.10449219 C161.25536223 295.98060564 164.17707167 293.30863431 168 290 C169.58352319 288.97528075 171.16856177 287.95230046 172.77567959 286.96499729 C183.30413603 280.38289036 192.81963216 272.03571799 195.83696747 259.53150177 C199.06201688 239.27948878 197.7019371 218.21788509 196.94472516 197.8110131 C196.63899738 189.42286761 196.49350122 181.03403679 196.35873735 172.64168036 C196.07875829 155.42136092 195.60595708 138.21187675 195 121 C193.81559326 121.43868408 192.63118652 121.87736816 191.41088867 122.3293457 C186.97137865 123.97224764 182.52960442 125.60895257 178.0871582 127.24389648 C176.17313387 127.94926691 174.25970858 128.65626526 172.34692383 129.36499023 C153.70193826 136.27108121 153.70193826 136.27108121 145.34387207 138.37860107 C141.01809038 139.52543674 136.84116673 141.09837173 132.640625 142.6328125 C131.19128319 143.15628769 131.19128319 143.15628769 129.71266174 143.69033813 C126.5569662 144.83119674 123.40349684 145.97807945 120.25 147.125 C118.02187519 147.93172034 115.79360117 148.73802866 113.56518555 149.54394531 C108.9708217 151.2063021 104.37735055 152.87108991 99.78466797 154.53808594 C93.40093658 156.85512802 87.01532919 159.16695077 80.62890625 161.4765625 C79.64103622 161.8338443 78.6531662 162.1911261 77.63536072 162.55923462 C75.66700219 163.27110514 73.69863376 163.98294827 71.73025513 164.69476318 C68.8245554 165.74564004 65.9189763 166.79684979 63.01342773 167.84814453 C50.8121585 172.2625225 38.61003433 176.67453316 26.4012146 181.06799316 C24.69265752 181.68311964 22.98433927 182.29890995 21.27627563 182.91540527 C18.94136213 183.75797327 16.60557664 184.59807622 14.26953125 185.4375 C13.58648926 185.68453674 12.90344727 185.93157349 12.19970703 186.18609619 C7.59706535 187.83558679 3.6462273 189.14410379 -1.25 189.0625 C-3.10625 189.0315625 -3.10625 189.0315625 -5 189 C-5 188.67 -5 188.34 -5 188 C-3.35 188 -1.7 188 0 188 C0 125.96 0 63.92 0 0 Z " fill="#1020A1" transform="translate(248,61)"/>
<path d="M0 0 C0 62.04 0 124.08 0 188 C-5.7648995 188 -9.43356028 187.5176912 -14.640625 185.6640625 C-15.40449524 185.40066071 -16.16836548 185.13725891 -16.9553833 184.86587524 C-28.61928956 180.80004323 -40.18090672 176.44053928 -51.75239563 172.12036514 C-55.14368053 170.85497666 -58.53622528 169.59297551 -61.92871094 168.33081055 C-66.11571173 166.77290475 -70.30264804 165.21482832 -74.48907471 163.65538025 C-83.89437058 160.15230801 -93.30466376 156.66296928 -102.71875 153.18359375 C-103.96942522 152.72122211 -105.22009664 152.25884022 -106.47076416 151.79644775 C-111.21569383 150.04236767 -115.96068292 148.28845221 -120.7064209 146.53656006 C-123.93492837 145.34456887 -127.16283128 144.15095358 -130.390625 142.95703125 C-131.78976135 142.44129799 -131.78976135 142.44129799 -133.21716309 141.91514587 C-137.45966108 140.34454151 -141.66965774 138.73079483 -145.85058594 137.00268555 C-150.67729371 135.05141035 -155.59773738 133.56680287 -160.58074951 132.06973267 C-166.52298324 130.21066982 -172.33481293 128.00753134 -178.1640625 125.82421875 C-179.48989832 125.33071038 -180.81585956 124.83753886 -182.14193726 124.34468079 C-185.60449395 123.05680668 -189.06543456 121.76464646 -192.52600098 120.47143555 C-196.67497033 118.92187572 -200.8258171 117.37735317 -204.97649765 115.83238411 C-208.31837452 114.58826611 -211.65966948 113.34263876 -214.99957275 112.0932312 C-220.68460407 109.9679266 -226.37261508 107.85512909 -232.08886719 105.81494141 C-232.97955902 105.49515823 -233.87025085 105.17537506 -234.78793335 104.84590149 C-236.38220113 104.27575672 -237.97888913 103.71230912 -239.57852173 103.15739441 C-245.89766392 100.89175664 -245.89766392 100.89175664 -248 98 C-248.43359375 96.0625 -248.43359375 96.0625 -248.4375 94 C-248.45683594 93.319375 -248.47617188 92.63875 -248.49609375 91.9375 C-247.78504854 89.16050454 -246.36792951 88.55693898 -244 87 C-242.31505185 86.26157319 -240.59950977 85.59095682 -238.86669922 84.97314453 C-237.83062027 84.59985519 -236.79454132 84.22656586 -235.72706604 83.84196472 C-234.59768112 83.44294449 -233.4682962 83.04392426 -232.3046875 82.6328125 C-230.47859944 81.97795494 -228.65251169 81.3230965 -226.82643604 80.66820431 C-224.86817497 79.96741632 -222.90872275 79.27006015 -220.94888306 78.57369995 C-216.82109671 77.10692908 -212.69676413 75.63061781 -208.57299805 74.15258789 C-204.29407622 72.61938582 -200.01497431 71.08670078 -195.73472595 69.5572052 C-182.93314652 64.98241049 -170.14845874 60.36178102 -157.36846924 55.72698975 C-152.58013678 53.99061207 -147.79112529 52.25611117 -143.00213623 50.52154541 C-139.40190866 49.2175159 -135.80177584 47.91322509 -132.20166016 46.60888672 C-124.97199297 43.98969447 -117.74191626 41.37163414 -110.51171875 38.75390625 C-109.31237198 38.31967346 -108.11302521 37.88544067 -106.87733459 37.43804932 C-100.87277167 35.26408995 -94.86816349 33.09025562 -88.86352539 30.91650391 C-77.50538521 26.80457121 -66.14764019 22.69155704 -54.7911377 18.57510376 C-50.06482291 16.86194004 -45.33832835 15.14927258 -40.61179352 13.43671608 C-37.38085407 12.26601165 -34.15002063 11.09501646 -30.91943359 9.92333984 C-27.35799637 8.63179882 -23.79622217 7.3411912 -20.234375 6.05078125 C-18.65423615 5.47732719 -18.65423615 5.47732719 -17.04217529 4.89228821 C-3.53063918 0 -3.53063918 0 0 0 Z " fill="#182FDB" transform="translate(248,61)"/>
<path d="M0 0 C0.09357804 15.24705383 0.16404507 30.49409438 0.20724869 45.74137115 C0.22784508 52.82149372 0.25590929 59.90143752 0.30175781 66.98144531 C0.34599227 73.81548249 0.36914563 80.6493339 0.37950897 87.48350525 C0.38689334 90.0893801 0.40131322 92.69524492 0.42292023 95.30104065 C0.45200386 98.95417138 0.45595374 102.60653754 0.45410156 106.25976562 C0.46848267 107.33439056 0.48286377 108.4090155 0.49768066 109.51620483 C0.45614364 117.0994511 -0.89084043 122.2411653 -5.83203125 128.21484375 C-45.28747601 162.53407677 -103.61661737 166.35388725 -153 168 C-153 130.38 -153 92.76 -153 54 C-144.09 51.03 -135.18 48.06 -126 45 C-117.84309227 42.11104125 -109.69634852 39.20209962 -101.5625 36.25 C-99.37861431 35.46029399 -97.19461157 34.6709116 -95.01049805 33.88183594 C-89.64739554 31.94356397 -84.28555183 30.00183792 -78.92407227 28.05908203 C-74.66382853 26.51604643 -70.40237442 24.9763713 -66.140625 23.4375 C-65.39016907 23.16650986 -64.63971313 22.89551971 -63.86651611 22.61631775 C-62.39747232 22.08588563 -60.92841739 21.55548437 -59.45935059 21.02511597 C-57.33253772 20.25723458 -55.20581038 19.48911675 -53.07910156 18.72094727 C-42.3807018 14.85703597 -31.68095495 10.9968571 -20.97763062 7.14660645 C-19.21101232 6.51084962 -17.44459138 5.87454411 -15.67837524 5.2376709 C-13.24055031 4.35876144 -10.80201505 3.48185261 -8.36328125 2.60546875 C-7.62980469 2.34056137 -6.89632812 2.07565399 -6.140625 1.80271912 C-1.11418551 0 -1.11418551 0 0 0 Z " fill="#00215A" transform="translate(401,196)"/>
<path d="M0 0 C0.75347717 -0.00700928 1.50695435 -0.01401855 2.28326416 -0.02124023 C4.76474261 -0.03879236 7.2450732 -0.02720819 9.7265625 -0.01367188 C11.45621967 -0.01636761 13.18587535 -0.02025071 14.91552734 -0.02526855 C18.53693092 -0.0311598 22.15793931 -0.02261289 25.77929688 -0.00390625 C30.4165696 0.01888333 35.05291627 0.00575821 39.69015503 -0.01819611 C43.26073153 -0.03266432 46.8310892 -0.02804345 50.40167236 -0.01768494 C52.11126821 -0.01502047 53.82088405 -0.01827758 55.53045654 -0.02760315 C57.92187974 -0.03778596 60.31181255 -0.02224536 62.703125 0 C63.406651 -0.00809692 64.110177 -0.01619385 64.83502197 -0.02453613 C69.60705616 0.05752052 71.97697967 1.18090977 75.3515625 4.51757812 C76.8984375 6.55273438 76.8984375 6.55273438 78.1015625 8.58007812 C78.50890625 9.25167969 78.91625 9.92328125 79.3359375 10.61523438 C80.3515625 12.51757813 80.3515625 12.51757813 81.3515625 15.51757812 C81.8878125 14.63070312 82.4240625 13.74382812 82.9765625 12.83007812 C90.0175416 4.46768278 106.03515812 2.89683654 116.3515625 1.51757812 C121.85074417 1.18369924 121.85074417 1.18369924 125.3515625 3.51757812 C125.61823789 6.35485137 125.69947484 8.97140858 125.64453125 11.80664062 C125.64028641 12.62506439 125.63604156 13.44348816 125.63166809 14.28671265 C125.61484929 16.90566648 125.57719224 19.52385614 125.5390625 22.14257812 C125.52401976 23.91600453 125.51033064 25.68944297 125.49804688 27.46289062 C125.46493542 31.81474843 125.41313202 36.16603364 125.3515625 40.51757812 C128.01481686 38.43040208 130.4527033 36.41125061 132.7890625 33.95507812 C138.81412375 28.2239223 144.5714838 27.93048409 152.578125 28.10351562 C159.28148974 28.83908153 164.69605226 31.41891848 169.3515625 36.33007812 C173.22617357 42.50523952 173.64038626 49.07758386 173.80859375 56.18164062 C173.8695483 57.81448676 173.93142463 59.4472987 173.99414062 61.08007812 C174.08294356 63.61871063 174.16443178 66.15693732 174.22973633 68.69628906 C174.2972812 71.17182057 174.39455671 73.64480123 174.49609375 76.11914062 C174.50776077 76.87240631 174.5194278 77.625672 174.53144836 78.40176392 C174.79239902 84.01621914 176.40654438 86.52650002 180.3515625 90.51757812 C189.50621779 81.61721882 190.50097822 75.16869706 190.8515625 62.83007812 C190.93277344 61.58774414 190.93277344 61.58774414 191.015625 60.3203125 C191.0707165 57.86283789 191.0315013 55.88286421 190.3515625 53.51757812 C188.67218937 51.82503344 187.06722262 50.75480889 184.96899414 49.63183594 C183.3515625 48.51757812 183.3515625 48.51757812 182.2890625 44.95507812 C182.35126937 41.53370027 182.5539654 40.30947112 184.3515625 37.51757812 C193.55528306 30.58961342 209.99351082 27.00151433 221.3515625 28.51757812 C222.0115625 28.84757812 222.6715625 29.17757812 223.3515625 29.51757812 C223.98973317 31.82208332 224.37193573 34.13254136 224.7890625 36.48632812 C224.9746875 37.15664062 225.1603125 37.82695312 225.3515625 38.51757812 C226.0115625 38.84757812 226.6715625 39.17757812 227.3515625 39.51757812 C227.3515625 38.52757812 227.3515625 37.53757813 227.3515625 36.51757812 C228.0115625 36.51757812 228.6715625 36.51757812 229.3515625 36.51757812 C229.60679687 35.90398437 229.86203125 35.29039062 230.125 34.65820312 C232.20516225 31.02785627 235.50347654 29.85013086 239.3515625 28.51757812 C244.55320607 27.51339983 248.90586599 28.58412203 253.51953125 31.09570312 C256.73858205 33.59407091 258.53787502 36.92508178 260.3515625 40.51757812 C260.91488281 39.89882812 261.47820312 39.28007812 262.05859375 38.64257812 C269.88766164 31.38701947 287.21397508 28.38175619 297.7890625 28.14257812 C301.3515625 28.51757812 301.3515625 28.51757812 303.3515625 30.51757812 C303.59638977 32.65386963 303.59638977 32.65386963 303.59106445 35.33105469 C303.59479568 36.33259583 303.59852692 37.33413696 303.60237122 38.36602783 C303.59823715 39.45244568 303.59410309 40.53886353 303.58984375 41.65820312 C303.60526667 43.94857361 303.62157054 46.23893831 303.63867188 48.52929688 C303.65511865 52.14807884 303.66406473 55.7664377 303.65698242 59.38525391 C303.65436182 62.87255934 303.68249619 66.35857045 303.71484375 69.84570312 C303.69953362 71.46318451 303.69953362 71.46318451 303.68391418 73.11334229 C303.72986394 79.62206393 303.72986394 79.62206393 306.76635742 85.18457031 C309.10912883 87.50770706 309.10912883 87.50770706 311.3515625 88.51757812 C311.83112653 95.71103862 311.83112653 95.71103862 309.9765625 98.83007812 C302.65715318 103.53541269 294.39087535 103.99464009 285.9140625 103.89257812 C284.95435547 103.90417969 283.99464844 103.91578125 283.00585938 103.92773438 C276.29193607 103.90060741 269.53927809 103.30735427 263.3515625 100.51757812 C261.10409253 98.08659715 260.41274646 96.8770339 259.8515625 93.58007812 C260.51596114 89.51063644 262.46387496 88.40526566 265.3515625 85.51757812 C269.08189485 78.59606302 268.72964773 71.164352 268.3515625 63.51757812 C268.30515625 62.18533203 268.30515625 62.18533203 268.2578125 60.82617188 C268.01158565 57.0896794 267.79931091 55.09965106 265.4765625 52.08007812 C263.80039032 50.84759858 262.08265889 49.67164239 260.3515625 48.51757812 C259.9390625 49.75507813 259.5265625 50.99257812 259.1015625 52.26757812 C257.77458187 55.81457849 256.40822716 58.15112807 253.3515625 60.51757812 C252.6915625 60.51757812 252.0315625 60.51757812 251.3515625 60.51757812 C251.3515625 61.17757812 251.3515625 61.83757812 251.3515625 62.51757812 C246.80657722 64.86337698 242.35030451 65.47203048 237.3515625 64.51757812 C234.0830492 62.83692302 231.25014529 60.76427081 228.3515625 58.51757812 C227.3615625 57.85757813 226.3715625 57.19757813 225.3515625 56.51757812 C225.29344477 60.26751291 225.25792657 64.01733164 225.2265625 67.76757812 C225.20142578 69.36279297 225.20142578 69.36279297 225.17578125 70.99023438 C225.16611328 72.52744141 225.16611328 72.52744141 225.15625 74.09570312 C225.14053955 75.50964355 225.14053955 75.50964355 225.12451172 76.95214844 C225.36354817 79.65300334 225.90111698 81.243561 227.3515625 83.51757812 C229.24820011 84.77125545 229.24820011 84.77125545 231.4140625 85.64257812 C235.25434028 87.32313368 235.25434028 87.32313368 236.3515625 89.51757812 C236.82808713 93.72687898 236.84864412 95.79600803 234.4140625 99.33007812 C227.06251227 104.58118543 217.67192325 103.85417835 208.9765625 103.83007812 C207.8215625 103.84619141 206.6665625 103.86230469 205.4765625 103.87890625 C198.17448552 103.88302706 191.15209965 103.40096245 184.3515625 100.51757812 C182.1640625 97.83007812 182.1640625 97.83007812 181.3515625 95.51757812 C181.0834375 96.28070313 180.8153125 97.04382813 180.5390625 97.83007812 C176.93910716 102.2528804 172.87779334 102.77233953 167.3515625 103.51757812 C163.66316564 103.78924882 159.98664079 103.90150798 156.2890625 103.95507812 C155.36762451 103.97739502 154.44618652 103.99971191 153.49682617 104.02270508 C146.92676758 104.00106804 141.0875455 102.87603773 135.3515625 99.51757812 C133.9765625 96.70507812 133.9765625 96.70507812 134.3515625 93.51757812 C135.32454267 91.7986465 136.30435813 90.08194642 137.359375 88.41210938 C140.90401702 81.64379685 139.54707061 71.89102684 139.3515625 64.51757812 C139.33480469 63.70289063 139.31804687 62.88820313 139.30078125 62.04882812 C139.06686577 58.46657966 138.51455125 56.7085078 136.1640625 53.95507812 C133.40494736 52.27580037 133.40494736 52.27580037 130.1640625 52.51757812 C127.30312459 53.22074569 127.30312459 53.22074569 126.19238281 55.24072266 C125.19633919 57.937907 125.09278854 60.07325366 125.0859375 62.94726562 C125.08335937 63.99011719 125.08078125 65.03296875 125.078125 66.10742188 C125.08585938 67.19152344 125.09359375 68.275625 125.1015625 69.39257812 C125.09382812 70.46894531 125.08609375 71.5453125 125.078125 72.65429688 C124.95795294 81.68159647 124.95795294 81.68159647 129.0390625 89.45507812 C130.3515625 91.51757812 130.3515625 91.51757812 130.3515625 95.08007812 C129.3515625 98.51757812 129.3515625 98.51757812 127.1640625 100.33007812 C120.43153421 103.17270118 114.92116052 103.87171169 107.6640625 103.83007812 C106.68397217 103.82588867 105.70388184 103.82169922 104.6940918 103.81738281 C91.02878021 103.60377355 91.02878021 103.60377355 85.3515625 100.51757812 C83.22305345 98.14457817 82.41963327 96.85793196 81.7890625 93.70507812 C82.4823362 89.77652713 83.99953157 88.29847683 86.84375 85.61914062 C91.30686851 79.39852468 90.61842591 71.09353033 90.546875 63.79882812 C90.5440451 62.70034546 90.54121521 61.60186279 90.53829956 60.47009277 C90.52716736 56.98580712 90.50207548 53.50178517 90.4765625 50.01757812 C90.46652371 47.64518602 90.45739944 45.27278986 90.44921875 42.90039062 C90.42725084 37.10603089 90.39384296 31.31182335 90.3515625 25.51757812 C89.5471875 25.20820313 88.7428125 24.89882812 87.9140625 24.58007812 C85.3515625 23.51757812 85.3515625 23.51757812 84.3515625 22.51757812 C84.32578125 23.09765625 84.3 23.67773438 84.2734375 24.27539062 C83.87766614 29.72624167 83.01335239 33.22805282 79.3515625 37.51757812 C75.14009858 40.06383979 71.15271087 40.42744042 66.3515625 39.51757812 C61.18264524 36.72245785 58.28732189 32.28552429 55.6875 27.15429688 C53.84648497 24.89878431 52.14955855 24.97806868 49.3515625 24.51757812 C49.27555673 32.13470068 49.2229812 39.7517256 49.18676758 47.36914062 C49.17167235 49.96097468 49.15119426 52.55278315 49.12524414 55.14453125 C49.08889423 58.86790272 49.0718433 62.59093673 49.05859375 66.31445312 C49.04310989 67.47499207 49.02762604 68.63553101 49.01167297 69.83123779 C49.01144638 70.91205627 49.01121979 71.99287476 49.01098633 73.10644531 C49.00432449 74.05686707 48.99766266 75.00728882 48.99079895 75.98651123 C49.42072753 79.00283038 50.26585019 80.32492237 52.3515625 82.51757812 C53.3415625 82.99195313 54.3315625 83.46632813 55.3515625 83.95507812 C58.81748083 85.76024392 59.92263996 86.90324464 61.3515625 90.51757812 C61.27929286 94.05879039 60.90055332 95.85562848 58.62988281 98.59350586 C51.3819392 104.7144921 39.5742996 104.03101886 30.6015625 103.95507812 C29.38106201 103.94968018 28.16056152 103.94428223 26.90307617 103.9387207 C17.85488969 103.78686723 8.72775156 103.26119625 0.3515625 99.51757812 C0.0215625 98.52757812 -0.3084375 97.53757812 -0.6484375 96.51757812 C-1.3084375 96.51757812 -1.9684375 96.51757812 -2.6484375 96.51757812 C-4.08578996 93.6428732 -4.03016399 91.69863224 -3.6484375 88.51757812 C-0.33742541 84.91441791 2.5431438 83.96487289 7.3515625 83.51757812 C7.67233206 82.0819008 7.98251058 80.64385831 8.2890625 79.20507812 C8.55009766 78.00431641 8.55009766 78.00431641 8.81640625 76.77929688 C10.47213403 66.68781735 10.50851732 56.61365288 10.48193359 46.41674805 C10.47650519 43.92881366 10.48194382 41.4410544 10.48828125 38.953125 C10.48762159 37.36914023 10.48634275 35.78515556 10.484375 34.20117188 C10.48639923 33.45854599 10.48842346 32.7159201 10.49050903 31.95079041 C10.54164571 28.1072448 10.54164571 28.1072448 9.3515625 24.51757812 C7.47511302 24.61643621 7.47511302 24.61643621 5.3515625 25.51757812 C3.29502838 27.94565846 3.29502838 27.94565846 1.4140625 30.89257812 C-1.7967927 35.73120286 -4.55119894 38.37649024 -10.0234375 40.39257812 C-13.86194317 40.57536411 -16.31344336 39.34238624 -19.6484375 37.51757812 C-22.86252953 32.77044877 -22.09375816 26.99572909 -21.6484375 21.51757812 C-19.36002872 10.46014077 -11.80546712 -0.13586984 0 0 Z M82.3515625 19.51757812 C83.3515625 21.51757812 83.3515625 21.51757812 83.3515625 21.51757812 Z " fill="#000000" transform="translate(885.6484375,195.482421875)"/>
<path d="M0 0 C-0.02526544 0.76840934 -0.05053087 1.53681868 -0.07656193 2.32851315 C-0.68496739 21.19037737 -1.10263788 40.04813102 -1.31865025 58.9186697 C-1.42754274 68.04622278 -1.59730999 77.16454962 -1.91674805 86.28735352 C-2.27718235 96.81570646 -2.48309346 107.33620896 -2.44140625 117.87109375 C-2.43637612 119.14335855 -2.43637612 119.14335855 -2.43124437 120.44132566 C-2.27443343 140.26256929 -1.66624586 156.90182273 12.98658752 171.79200745 C17.93248934 176.33526054 23.24625649 180.55461632 29.03457069 183.97937965 C33.73115608 186.90687019 33.73115608 186.90687019 34.54334736 190.20927143 C34.67154988 193.6198993 34.5325976 196.11698093 32.75392151 199.06593323 C31.87908363 199.73434486 31.87908363 199.73434486 30.98657227 200.41625977 C30.32921585 200.94864258 29.67185944 201.48102539 28.99458313 202.02954102 C28.27578476 202.57795654 27.55698639 203.12637207 26.81640625 203.69140625 C25.30915366 204.95225196 23.80839121 206.22088797 22.31347656 207.49633789 C21.53363403 208.15747589 20.7537915 208.81861389 19.95031738 209.49978638 C4.87244526 222.5001215 4.87244526 222.5001215 -1.23828125 240.78125 C-1.66612707 248.53392038 -0.99409961 256.23164914 -0.22113037 263.9434967 C0.21954243 269.2036522 -0.23665724 272.5173363 -3.55102539 276.65405273 C-7.79325592 280.59464531 -11.20761694 282.21772211 -17.0625 282.4375 C-22.07628546 282.20200402 -25.81646235 281.22507234 -29.4375 277.53515625 C-31.21325316 275.47185215 -32.78004163 273.43991674 -34 271 C-33.82726902 269.06909546 -33.64656136 267.1385351 -33.42333984 265.21281433 C-30.9782243 243.60743731 -30.9782243 243.60743731 -38.265625 223.87744141 C-45.3803458 215.13481224 -54.01504104 207.56568142 -62.88134766 200.63850403 C-65.84461078 198.26610914 -67.7308021 196.55972776 -69.39257812 193.10449219 C-68.74472441 187.98129082 -65.82262647 185.30791348 -62 182 C-60.42076551 180.97951495 -58.84001522 179.96076672 -57.23714542 178.9778223 C-46.6795541 172.3882487 -37.21336827 164.02154577 -34.14447784 151.51294708 C-30.79806206 131.13236719 -32.00160353 109.92560312 -32.60989273 89.36563098 C-32.85439702 80.91622627 -32.93979189 72.46726318 -33.01450503 64.01492274 C-33.17124108 46.67152436 -33.51951947 29.33739584 -34 12 C-32.10916227 11.20788767 -30.21788011 10.41683618 -28.32641602 9.6262207 C-27.27325699 9.18558792 -26.22009796 8.74495514 -25.13502502 8.29096985 C-20.77015339 6.49356229 -16.3662283 4.81989538 -11.9375 3.1875 C-11.11056641 2.87619141 -10.28363281 2.56488281 -9.43164062 2.24414062 C-8.63822266 1.95087891 -7.84480469 1.65761719 -7.02734375 1.35546875 C-6.32343506 1.09403076 -5.61952637 0.83259277 -4.89428711 0.56323242 C-3 0 -3 0 0 0 Z " fill="#FEBD00" transform="translate(478,169)"/>
<path d="M0 0 C1.15410254 2.30820508 1.1210297 3.60784276 1.11352539 6.17431641 C1.11344986 7.03505768 1.11337433 7.89579895 1.11329651 8.78262329 C1.10813522 9.71287323 1.10297394 10.64312317 1.09765625 11.6015625 C1.0962413 12.55316254 1.09482635 13.50476257 1.09336853 14.48519897 C1.08776012 17.53183097 1.07520619 20.57839013 1.0625 23.625 C1.05748608 25.68749894 1.05292299 27.74999903 1.04882812 29.8125 C1.03778796 34.87502817 1.02051767 39.93750173 1 45 C3.38235201 45.20884682 3.38235201 45.20884682 6 45 C8.81331378 42.60416349 8.81331378 42.60416349 11 40 C10.67 39.34 10.34 38.68 10 38 C9.53789431 32.57025809 9.53789431 32.57025809 11.28515625 30.4140625 C18.54802105 24.42509426 29.15765163 25.34369731 38 26 C42.76922168 26.82578744 46.59431362 28.06287575 50.625 30.75 C52.63721251 34.04271138 52.61703881 36.22920726 52 40 C48.85261743 42.75395975 44.89798358 43.78271648 41.00390625 45.171875 C38.02309689 46.40371045 35.60602131 48.11063455 33 50 C34.6043014 55.14587242 37.80016631 58.93547674 41.0625 63.125 C42.16120302 64.54144641 43.2564147 65.96060975 44.34765625 67.3828125 C44.83242432 68.00559082 45.31719238 68.62836914 45.81665039 69.27001953 C47 71 47 71 48 74 C48.66 74 49.32 74 50 74 C50.58265625 74.74636719 51.1653125 75.49273437 51.765625 76.26171875 C54.18762817 79.22994292 56.48868416 80.83241538 59.75 82.8125 C60.73484375 83.41707031 61.7196875 84.02164063 62.734375 84.64453125 C63.48203125 85.09183594 64.2296875 85.53914063 65 86 C69.43985874 82.84984908 69.43985874 82.84984908 71.375 78 C72.22546336 72.55376349 72.06113154 67.11637297 71.875 61.625 C71.85356934 60.74457031 71.83213867 59.86414063 71.81005859 58.95703125 C71.57833566 53.85770847 71.57833566 53.85770847 69.08984375 49.515625 C68.40019531 49.01546875 67.71054687 48.5153125 67 48 C64.6875 46.125 64.6875 46.125 63 44 C63 40.42995335 63.43545503 38.65801269 65.76953125 35.9375 C71.61771302 30.8574682 80.3058686 29.55768059 87.6875 27.75 C88.73780396 27.48703125 88.73780396 27.48703125 89.80932617 27.21875 C94.64661098 26.09086505 99.03016875 25.6824389 104 26 C104.99 26.66 105.98 27.32 107 28 C107.38526917 30.0223999 107.38526917 30.0223999 107.40063477 32.53808594 C107.42064293 33.95030426 107.42064293 33.95030426 107.4410553 35.39105225 C107.44122902 36.92224701 107.44122902 36.92224701 107.44140625 38.484375 C107.46121803 40.05690033 107.46121803 40.05690033 107.48143005 41.66119385 C107.52244598 45.02415569 107.54401848 48.38684414 107.5625 51.75 C107.58630997 55.09878875 107.61451602 58.44732062 107.65428162 61.79595947 C107.67856601 63.8816028 107.69348355 65.96738157 107.69789124 68.05316162 C107.75116669 73.04298838 107.84551738 77.39135283 110 82 C111.66270287 83.33827304 113.32916181 84.67189785 115 86 C116.38598433 89.29171279 116.09269891 90.71031589 115 94.125 C112.05648249 98.35630642 108.50110346 99.41286622 103.59863281 100.5637207 C99.0056721 101.33482375 94.39657666 101.18454792 89.75 101.1875 C88.25146484 101.20586914 88.25146484 101.20586914 86.72265625 101.22460938 C70.49535614 101.25642761 70.49535614 101.25642761 65 96 C64.4325708 96.30719971 63.8651416 96.61439941 63.28051758 96.9309082 C55.70080455 100.48422834 47.01432403 100.33817885 38.8125 100.3125 C37.77158203 100.32861328 36.73066406 100.34472656 35.65820312 100.36132812 C29.15482782 100.36545725 23.4526892 100.36776348 18.53100586 95.56713867 C17.11073365 93.91242139 15.82937572 92.21190683 14.5625 90.4375 C14.11712891 89.84775391 13.67175781 89.25800781 13.21289062 88.65039062 C10 84.31224798 10 84.31224798 10 82 C9.34 82 8.68 82 8 82 C7.8453125 81.0409375 7.8453125 81.0409375 7.6875 80.0625 C7.460625 79.381875 7.23375 78.70125 7 78 C6.01 77.67 5.02 77.34 4 77 C3.67 76.34 3.34 75.68 3 75 C1.53600923 78.80637601 2.37663243 81.34742296 4 85 C4.99 85.33 5.98 85.66 7 86 C7.87087556 89.40433172 8.24666051 91.37609399 6.9375 94.6875 C3.77509304 98.46198572 -0.25305848 100.0625146 -5 101 C-9.60084984 101.25446752 -14.20534173 101.23130022 -18.8125 101.25 C-20.7006543 101.2809375 -20.7006543 101.2809375 -22.62695312 101.3125 C-34.49266247 101.36253989 -34.49266247 101.36253989 -40 98 C-42.50031654 94.24952518 -42.53603554 92.44143734 -42 88 C-39.625 85.375 -39.625 85.375 -37 83 C-32.98652891 75.9764256 -33.8425177 66.03614736 -33.83203125 58.16015625 C-33.82870285 57.2713829 -33.82537445 56.38260956 -33.82194519 55.46690369 C-33.81692663 53.60904451 -33.81453528 51.75117649 -33.81469727 49.89331055 C-33.81248662 47.04526336 -33.79421257 44.19758951 -33.77539062 41.34960938 C-33.77246046 39.53645965 -33.77047315 37.7233081 -33.76953125 35.91015625 C-33.76234573 35.0601857 -33.75516022 34.21021515 -33.74775696 33.33448792 C-33.76055715 28.37199478 -33.76055715 28.37199478 -36 24 C-38.30965848 22.94647157 -40.6429774 21.94280904 -43 21 C-44 20 -44 20 -44.375 17.25 C-43.8716272 12.88743577 -42.37858586 11.71755819 -39 9 C-28.31509882 2.63993977 -12.36587404 -2.78076816 0 0 Z " fill="#000000" transform="translate(642,198)"/>
<path d="M0 0 C2.05957516 0.81392052 2.05957516 0.81392052 4.01171875 -0.44140625 C9.02723216 -0.81993556 12.12040971 -0.73405236 16.01171875 2.55859375 C18.20922525 5.44487094 20.16658252 8.43647174 22.01171875 11.55859375 C22.39199219 12.19023437 22.77226563 12.821875 23.1640625 13.47265625 C24.96410838 17.90226223 24.54839402 22.88185209 24.01171875 27.55859375 C22.20368471 30.63225161 21.15132411 31.98879107 18.01171875 33.55859375 C13.33910042 34.21276032 10.72118727 33.69765298 7.01171875 30.93359375 C5.02780664 29.31975756 3.11756307 27.6553856 1.23046875 25.9296875 C-3.3294178 21.79469947 -7.86889463 18.47409351 -14.2734375 18.60546875 C-16.19095681 18.83543579 -18.09323466 19.18635246 -19.98828125 19.55859375 C-20.75544976 22.40937466 -20.75544976 22.40937466 -20.98828125 25.55859375 C-18.83079755 28.47626466 -16.28895034 29.39721162 -12.92578125 30.55859375 C-11.94738281 30.89890625 -10.96898437 31.23921875 -9.9609375 31.58984375 C-7.2736259 32.46560364 -4.57904947 33.2765885 -1.86328125 34.05859375 C2.9733716 35.46153312 7.46976661 37.39732667 12.01171875 39.55859375 C12.01171875 40.21859375 12.01171875 40.87859375 12.01171875 41.55859375 C12.59824219 41.65140625 13.18476562 41.74421875 13.7890625 41.83984375 C18.62198017 43.40268532 21.82827144 48.32411281 24.12890625 52.66796875 C27.23919933 60.78435259 27.29418498 70.31407873 24.09375 78.41015625 C19.15561911 88.21510928 10.873234 94.69964368 0.60229492 98.43481445 C-6.67451139 100.66259704 -13.59944142 101.06295015 -21.17578125 100.99609375 C-22.35817383 100.9899707 -23.54056641 100.98384766 -24.75878906 100.97753906 C-36.69052704 100.76534673 -47.85733487 99.29651533 -57.98828125 92.55859375 C-62.79795081 86.54171629 -64.51273394 79.64683585 -65.05078125 72.12109375 C-65.10089355 71.44723633 -65.15100586 70.77337891 -65.20263672 70.07910156 C-65.36082153 65.71320089 -64.73056673 62.97846025 -61.98828125 59.55859375 C-58.52291763 58.35324988 -56.77290414 58.2410083 -53.36328125 59.62109375 C-50.50545403 61.95247912 -48.8198395 64.37032568 -46.98828125 67.55859375 C-46.98828125 68.21859375 -46.98828125 68.87859375 -46.98828125 69.55859375 C-46.32828125 69.55859375 -45.66828125 69.55859375 -44.98828125 69.55859375 C-44.80265625 70.13609375 -44.61703125 70.71359375 -44.42578125 71.30859375 C-42.35590099 74.54840633 -39.32888345 75.88124497 -35.98828125 77.55859375 C-35.37726562 77.92339844 -34.76625 78.28820312 -34.13671875 78.6640625 C-31.3248937 79.8348042 -29.02497176 79.78784824 -25.98828125 79.74609375 C-24.95703125 79.73964844 -23.92578125 79.73320312 -22.86328125 79.7265625 C-20.40759443 79.58309167 -18.3332037 79.26319785 -15.98828125 78.55859375 C-15.68154444 74.85860851 -15.68154444 74.85860851 -16.98828125 71.55859375 C-20.7363307 69.2545702 -24.83401371 67.96212595 -28.98828125 66.55859375 C-41.45565159 62.26509698 -53.33362057 56.58235566 -59.98828125 44.55859375 C-63.40188187 35.69271436 -63.84787841 27.90410383 -60.42578125 19.05859375 C-56.93104795 11.80225661 -51.11610803 5.3321491 -43.98828125 1.55859375 C-43.32570313 1.18863281 -42.663125 0.81867188 -41.98046875 0.4375 C-29.84814474 -5.19954444 -12.5256341 -4.11425937 0 0 Z " fill="#000000" transform="translate(569.98828125,198.44140625)"/>
<path d="M0 0 C0 50.82 0 101.64 0 154 C-4.93469787 151.53265106 -7.70170839 148.17334464 -11.3671875 144.1171875 C-13.8402899 141.82300562 -13.8402899 141.82300562 -16.89453125 141.2890625 C-21.49060491 142.3412454 -23.70489397 145.09120068 -26.8125 148.5 C-28.86490344 150.6768601 -30.92781497 152.84184448 -33 155 C-33.33 155 -33.66 155 -34 155 C-34 107.81 -34 60.62 -34 12 C-26.66635961 8.9443165 -19.38295807 5.9318389 -11.9375 3.1875 C-11.11056641 2.87619141 -10.28363281 2.56488281 -9.43164062 2.24414062 C-8.63822266 1.95087891 -7.84480469 1.65761719 -7.02734375 1.35546875 C-5.97148071 0.96331177 -5.97148071 0.96331177 -4.89428711 0.56323242 C-3 0 -3 0 0 0 Z " fill="#FED92C" transform="translate(478,169)"/>
<path d="M0 0 C0 0.66 0 1.32 0 2 C0.87785156 2.37898437 0.87785156 2.37898437 1.7734375 2.765625 C4.26238661 4.14546346 5.7490142 5.61782231 7.625 7.75 C8.51058594 8.73226562 8.51058594 8.73226562 9.4140625 9.734375 C12.69916629 14.42738041 13.27635956 18.99723393 13.25 24.625 C13.25773437 26.28402344 13.25773437 26.28402344 13.265625 27.9765625 C13.00821457 30.9064989 12.61771297 32.57343055 11 35 C7.78096915 36.60951543 4.25161168 36.24234748 0.7109375 36.31640625 C-0.10748627 36.33718735 -0.92591003 36.35796844 -1.76913452 36.37937927 C-4.38766966 36.44484812 -7.00630639 36.50374726 -9.625 36.5625 C-11.39844807 36.60568776 -13.17188581 36.64930214 -14.9453125 36.69335938 C-19.29677046 36.80052676 -23.64833077 36.90180169 -28 37 C-27.72965366 39.43717258 -27.72965366 39.43717258 -27 42 C-26.01 42.66 -25.02 43.32 -24 44 C-24 44.66 -24 45.32 -24 46 C-17.06515741 48.50834732 -10.99082666 48.40153381 -4.125 45.5625 C-0.94702683 44.0542652 -0.94702683 44.0542652 2 42 C4.4375 42 4.4375 42 7 43 C9.7093974 46.06589706 11 47.86244249 11 52 C8.69062826 58.92811522 5.01930223 61.98525907 -1.07421875 65.60546875 C-8.55238789 69.16982974 -15.1567969 70.53232583 -23.4375 70.4375 C-24.82618286 70.42614014 -24.82618286 70.42614014 -26.24291992 70.41455078 C-38.24560593 70.12415467 -46.4190721 65.70776717 -54.75 57.1875 C-61.73074932 47.29810513 -63.18090387 36.66654168 -61.7265625 24.76171875 C-59.5476104 14.50419896 -53.25298216 7.17850853 -45.25 0.8125 C-30.47189129 -7.42913755 -15.0973166 -7.46863719 0 0 Z M-28 13 C-29.54488317 15.40132774 -29.54488317 15.40132774 -30 18 C-29.01 19.485 -29.01 19.485 -28 21 C-25.89918703 21.43963554 -25.89918703 21.43963554 -23.5625 21.3125 C-22.38880859 21.30669922 -22.38880859 21.30669922 -21.19140625 21.30078125 C-18.71139896 21.12278119 -18.71139896 21.12278119 -16 19 C-16.10792821 16.0957107 -16.10792821 16.0957107 -17 13 C-21.82756981 9.37932264 -23.14309259 9.56462647 -28 13 Z " fill="#000000" transform="translate(1353,229)"/>
<path d="M0 0 C2.79195712 3.1168394 2.70318529 4.63923836 2.5234375 8.7734375 C2.48992188 9.87429687 2.45640625 10.97515625 2.421875 12.109375 C2.29155843 14.44416569 2.11500617 16.7671163 1.90380859 19.09619141 C0.95184569 30.25731325 0.99710558 41.40247561 1.01806641 52.59716797 C1.02347992 56.05049927 1.01806588 59.50370363 1.01171875 62.95703125 C1.01237866 65.15885445 1.013658 67.36067758 1.015625 69.5625 C1.01360077 70.59162506 1.01157654 71.62075012 1.00949097 72.68106079 C1.01264313 73.63660858 1.01579529 74.59215637 1.01904297 75.57666016 C1.01983856 76.41379547 1.02063416 77.25093079 1.02145386 78.11343384 C1.14493208 80.33535923 1.53085443 82.26584297 2.1484375 84.3984375 C3.7984375 84.7284375 5.4484375 85.0584375 7.1484375 85.3984375 C8.3359375 88.0859375 8.3359375 88.0859375 9.1484375 91.3984375 C7.48505367 95.60582012 5.18115601 97.47809535 1.1484375 99.3984375 C-4.53853641 100.78822663 -10.2170752 100.62127954 -16.0390625 100.6484375 C-17.12509766 100.6690625 -18.21113281 100.6896875 -19.33007812 100.7109375 C-27.21238139 100.74881043 -34.82854679 100.17623406 -41.4765625 95.5859375 C-43.32878894 92.63921361 -43.36042491 90.81508511 -42.8515625 87.3984375 C-40.9107168 84.58421124 -39.08172684 84.12589187 -35.8515625 83.3984375 C-35.07711342 76.71676691 -34.69238309 70.13472089 -34.68359375 63.41015625 C-34.68026535 62.50393021 -34.67693695 61.59770416 -34.67350769 60.66401672 C-34.66848688 58.76747133 -34.66609785 56.87091726 -34.66625977 54.97436523 C-34.66405484 52.07586367 -34.64579797 49.17773229 -34.62695312 46.27929688 C-34.62402182 44.42708462 -34.62203527 42.57487058 -34.62109375 40.72265625 C-34.61390823 39.86113449 -34.60672272 38.99961273 -34.59931946 38.11198425 C-34.61596991 33.73798416 -34.83677667 30.38403472 -36.8515625 26.3984375 C-37.1403125 25.6559375 -37.4290625 24.9134375 -37.7265625 24.1484375 C-38.70097945 22.19351097 -38.70097945 22.19351097 -40.8515625 21.8984375 C-42.8515625 21.3984375 -42.8515625 21.3984375 -44.1640625 19.7734375 C-45.19063845 16.22708422 -44.84790446 13.94790573 -43.8515625 10.3984375 C-36.17473779 1.71150428 -10.66596662 -5.9904744 0 0 Z " fill="#000000" transform="translate(855.8515625,198.6015625)"/>
<path d="M0 0 C1.02931641 -0.020625 2.05863281 -0.04125 3.11914062 -0.0625 C11.1019837 -0.10289389 18.42772552 0.74348368 25.1875 5.25 C25.7825788 9.67058538 25.66017294 11.60176283 23 15.25 C22.401875 16.24 21.80375 17.23 21.1875 18.25 C22.43884122 22.51928182 24.33356209 25.85245487 27.1875 29.25 C30.54929923 27.87697042 31.9087881 26.63114791 33.5 23.375 C34.02013672 22.35792969 34.02013672 22.35792969 34.55078125 21.3203125 C35.31584447 18.83268363 35.08220442 17.66865151 34.1875 15.25 C33.630625 14.30125 33.07375 13.3525 32.5 12.375 C31.1875 9.25 31.1875 9.25 31.4375 6.0625 C33.65204128 2.5034158 35.25102746 1.80339101 39.21875 0.71484375 C42.91951184 0.13538236 46.57422923 -0.03230395 50.3125 -0.0625 C50.98104004 -0.06813965 51.64958008 -0.0737793 52.33837891 -0.07958984 C57.5883548 -0.00327829 62.61946512 0.72522929 67.1875 3.4375 C68.1875 5.25 68.1875 5.25 68.375 8.6875 C67.06467613 12.61847161 66.72847425 12.91664038 63.25 14.6875 C61.05120826 15.64124088 59.58582078 16.25 57.1875 16.25 C56.82011719 17.00023437 56.82011719 17.00023437 56.4453125 17.765625 C55.07350514 20.47515755 53.64841063 23.15270323 52.21875 25.83203125 C48.78860949 32.2635447 45.42275892 38.71819283 42.1875 45.25 C39.32651581 50.99710884 36.4475845 56.73424385 33.5 62.4375 C33.14357422 63.14455078 32.78714844 63.85160156 32.41992188 64.58007812 C30.20847112 68.81903271 27.96285471 72.18905857 24.1875 75.25 C20.71848848 76.28355652 17.69182638 76.1190278 14.1875 75.25 C11.47188741 73.36765485 9.92573834 71.02916014 8.1875 68.25 C7.7440625 67.58226562 7.300625 66.91453125 6.84375 66.2265625 C2.30250849 59.03626344 -1.47976304 51.37062142 -5.41015625 43.8359375 C-7.31816992 40.18134022 -9.26502753 36.5510409 -11.25 32.9375 C-16.8125 22.789483 -16.8125 22.789483 -16.8125 20.25 C-17.4725 20.25 -18.1325 20.25 -18.8125 20.25 C-18.8125 19.59 -18.8125 18.93 -18.8125 18.25 C-19.92625 17.96125 -21.04 17.6725 -22.1875 17.375 C-25.8125 16.25 -25.8125 16.25 -27.8125 14.25 C-28.04296875 12.375 -28.04296875 12.375 -28 10.25 C-27.99355469 9.54875 -27.98710938 8.8475 -27.98046875 8.125 C-27.8125 6.25 -27.8125 6.25 -26.8125 4.25 C-17.96884578 0.43808008 -9.53482329 0.04723132 0 0 Z " fill="#000000" transform="translate(1223.8125,223.75)"/>
<path d="M0 0 C2.13102102 3.27282735 2.01365968 5.41863593 1.89453125 9.3046875 C1.85779297 11.09519531 1.85779297 11.09519531 1.8203125 12.921875 C1.71408561 15.35354088 1.55285083 17.76853952 1.34399414 20.19384766 C0.42999116 31.05104505 0.39590958 41.88377827 0.39672852 52.77392578 C0.39451263 56.08248221 0.37621185 59.39071975 0.35742188 62.69921875 C0.35449246 64.8098947 0.35250465 66.92057222 0.3515625 69.03125 C0.34437698 70.0166275 0.33719147 71.002005 0.32978821 72.01724243 C0.33440315 73.39050186 0.33440315 73.39050186 0.33911133 74.79150391 C0.33768631 75.59310944 0.33626129 76.39471497 0.33479309 77.22061157 C0.61536685 79.72754152 1.22875869 81.30689075 2.58203125 83.4296875 C3.85046875 84.1103125 3.85046875 84.1103125 5.14453125 84.8046875 C7.58203125 86.4296875 7.58203125 86.4296875 8.58203125 89.3046875 C8.58203125 93.03149737 7.90515652 94.54580785 5.58203125 97.4296875 C-0.58267945 101.68121212 -9.52323869 100.64610475 -16.66796875 100.6796875 C-17.74949219 100.7003125 -18.83101562 100.7209375 -19.9453125 100.7421875 C-26.64652393 100.77452145 -33.33499969 100.53694176 -39.41796875 97.4296875 C-41.91099708 94.73274761 -42.39341429 93.604638 -42.91796875 89.8671875 C-42.75296875 88.7328125 -42.58796875 87.5984375 -42.41796875 86.4296875 C-40.04296875 84.6796875 -40.04296875 84.6796875 -37.41796875 83.4296875 C-33.61767428 77.7292458 -34.24856017 70.67755631 -34.21484375 64.0234375 C-34.20914368 63.13990601 -34.2034436 62.25637451 -34.1975708 61.34606934 C-34.18817032 59.48707256 -34.18160665 57.62805948 -34.17773438 55.76904297 C-34.16799796 52.93818109 -34.13691543 50.10803667 -34.10546875 47.27734375 C-34.09894026 45.46354594 -34.09368919 43.64974298 -34.08984375 41.8359375 C-34.07749695 40.99720093 -34.06515015 40.15846436 -34.0524292 39.29431152 C-34.07495688 33.30618056 -34.81949376 28.0735507 -39.20703125 23.609375 C-39.81289063 23.17882812 -40.41875 22.74828125 -41.04296875 22.3046875 C-43.38011785 20.44188579 -44.31283756 19.68323918 -45.48046875 16.8671875 C-45.40694698 13.99983835 -44.66475975 11.99661016 -43.41796875 9.4296875 C-42.75796875 9.4296875 -42.09796875 9.4296875 -41.41796875 9.4296875 C-41.41796875 8.7696875 -41.41796875 8.1096875 -41.41796875 7.4296875 C-40.02267746 6.80347834 -38.62670754 6.17878119 -37.23046875 5.5546875 C-36.45316406 5.20664063 -35.67585937 4.85859375 -34.875 4.5 C-34.06417969 4.14679688 -33.25335937 3.79359375 -32.41796875 3.4296875 C-31.67675781 3.089375 -30.93554688 2.7490625 -30.171875 2.3984375 C-26.36132971 1.05799036 -22.52307005 0.44516357 -18.54296875 -0.1953125 C-17.76566406 -0.329375 -16.98835937 -0.4634375 -16.1875 -0.6015625 C-4.01372878 -2.60665423 -4.01372878 -2.60665423 0 0 Z " fill="#000000" transform="translate(802.41796875,198.5703125)"/>
<path d="M0 0 C4.70686179 1.17671545 5.94548966 2.65998488 9.25 6.125 C12.22595611 9.22997155 15.18707356 12.20265498 18.453125 15 C24.36167264 20.11634797 29.97943811 25.53386395 35.56640625 30.99658203 C36.86107915 32.25431098 38.16460234 33.50299011 39.4765625 34.74267578 C41.39184901 36.55447196 43.27593108 38.39420875 45.15625 40.2421875 C45.74361938 40.78624237 46.33098877 41.33029724 46.93615723 41.89083862 C49.90355479 44.87237463 51.4321505 47.1760079 51.79882812 51.43164062 C51.38396732 57.14501507 48.07244998 60.0909013 44.0625 63.8515625 C43.34900391 64.55469574 42.63550781 65.25782898 41.90039062 65.98226929 C39.62057142 68.21851577 37.31124069 70.42129252 35 72.625 C33.47586127 74.11253348 31.95370341 75.60209946 30.43359375 77.09375 C24.3660702 83.01854608 18.25732875 88.85177834 11.84106445 94.39974976 C9.37600133 96.54237863 6.95880487 98.7358141 4.54296875 100.93359375 C3 102 3 102 0 102 C0 68.34 0 34.68 0 0 Z " fill="#FE8B00" transform="translate(461,310)"/>
<path d="M0 0 C1.12614919 0.95444187 2.2507759 1.91068032 3.37475586 2.86767578 C4.00119492 3.3999881 4.62763397 3.93230042 5.27305603 4.48074341 C7.18484904 6.16261855 8.87415392 7.97085028 10.5625 9.875 C12.82808918 12.13051989 13.80557764 12.94208696 16.9375 13.875 C20.83862806 12.76039198 22.97343586 10.79415196 25.875 8.01953125 C28.48152295 5.54237617 31.23005722 3.29326921 34 1 C34.12422629 6.55004849 34.21463317 12.09927582 34.2746582 17.65039062 C34.29969777 19.53595083 34.33373999 21.42141498 34.37719727 23.30664062 C34.43831786 26.02758564 34.46631493 28.74724027 34.48828125 31.46875 C34.51408768 32.30241089 34.5398941 33.13607178 34.56648254 33.99499512 C34.56937895 40.13229666 32.95275472 44.27485993 29 49 C24.49953676 52.86957119 20.22988656 53.5921424 14.359375 53.31640625 C9.40232852 52.65163677 6.37480104 50.64092649 3.1875 46.9375 C0.63661075 43.51202015 -0.12594319 42.06502422 -0.11352539 37.91748047 C-0.11344986 37.07675995 -0.11337433 36.23603943 -0.11329651 35.36984253 C-0.10813522 34.46146637 -0.10297394 33.55309021 -0.09765625 32.6171875 C-0.0962413 31.68778351 -0.09482635 30.75837952 -0.09336853 29.80081177 C-0.08776053 26.82550876 -0.07520668 23.85028036 -0.0625 20.875 C-0.05748603 18.86067817 -0.05292295 16.84635516 -0.04882812 14.83203125 C-0.0377885 9.88799198 -0.02051849 4.94400865 0 0 Z " fill="#FED92C" transform="translate(444,398)"/>
<path d="M0 0 C2.5 2.125 2.5 2.125 4.5 5.125 C4.35992059 8.9071442 3.84924483 11.49926968 2 14.8125 C-4.8790384 21.17561052 -13.50126813 22.26320059 -22.5625 22.3125 C-23.74972656 22.32667969 -24.93695312 22.34085938 -26.16015625 22.35546875 C-29.43383327 22.12956589 -31.60012069 21.6217119 -34.5 20.125 C-36.88143701 17.25085188 -37.47025241 15.33323312 -38 11.625 C-37.36081196 7.15068375 -35.9852652 5.91321216 -32.5 3.125 C-23.40509078 -3.04317373 -9.89289749 -5.29976651 0 0 Z " fill="#000000" transform="translate(1184.5,199.875)"/>
<path d="M0 0 C2.98944869 2.76524004 3.94560677 4.27334932 4.5 8.3125 C3.33357218 13.06152757 1.91767453 15.37598132 -2.125 18.125 C-10.77462864 22.87994956 -20.81991481 23.33088 -30.5 22.3125 C-34.03928552 20.64551607 -35.30640309 19.60289537 -37.5 16.3125 C-38.28873239 9.32658451 -38.28873239 9.32658451 -35.3125 5.5 C-25.52007396 -2.11633136 -11.55668644 -5.57197382 0 0 Z " fill="#000000" transform="translate(744.5,199.6875)"/>
</svg>
