<?xml version="1.0" encoding="UTF-8"?>
<svg version="1.1" xmlns="http://www.w3.org/2000/svg" width="512" height="512">
<path d="M0 0 C0.87391891 0.31411331 1.74783783 0.62822662 2.64823914 0.95185852 C4.47800397 1.60958715 6.30663413 2.27048039 8.13415527 2.93441772 C11.49627834 4.15173684 14.86796308 5.34069616 18.24090576 6.52763367 C22.54766751 8.04395735 26.84985863 9.57315459 31.15234375 11.1015625 C32.57305176 11.60620026 32.57305176 11.60620026 34.02246094 12.12103271 C52.47338484 18.6797833 70.87852015 25.36187967 89.27661133 32.06713867 C105.3384651 37.91993369 121.41297782 43.73662077 137.49649048 49.52954102 C145.12055003 52.27572085 152.74324489 55.02568835 160.36601257 57.77545166 C160.99317138 58.00168591 161.62033018 58.22792015 162.2664938 58.46100998 C163.53562983 58.91882775 164.80476244 59.376655 166.07389164 59.83449173 C169.31064032 61.00206579 172.54754538 62.16920363 175.784729 63.33557129 C183.52818973 66.12558541 191.2699807 68.92013353 199.00927734 71.72167969 C201.41310679 72.59093741 203.81755455 73.45848739 206.22265625 74.32421875 C209.54073262 75.51887604 212.8565428 76.71962698 216.171875 77.921875 C217.13982498 78.26880402 218.10777496 78.61573303 219.10505676 78.97317505 C233.96046497 84.38329204 233.96046497 84.38329204 236.52734375 88.8515625 C236.92173788 92.71662501 236.15925669 93.84895104 233.83984375 96.9140625 C231.23828125 98.390625 231.23828125 98.390625 228.21484375 99.5390625 C227.23257812 99.92320312 226.2503125 100.30734375 225.23828125 100.703125 C222.54271313 101.66361479 219.84273262 102.58774126 217.12744141 103.48974609 C216.32279449 103.75725677 215.51814758 104.02476746 214.68911743 104.30038452 C214.07885712 104.50289825 213.4685968 104.70541199 212.83984375 104.9140625 C212.06248891 124.55058596 211.48401364 144.18391879 211.13004208 163.8327322 C210.96116064 172.96093525 210.73106013 182.0793977 210.3503418 191.20141602 C206.37165131 235.42103997 206.37165131 235.42103997 222.52937031 274.40578175 C227.99285401 279.95928086 234.14371894 284.92748898 240.8616581 288.89344215 C245.5705843 291.82148297 245.5705843 291.82148297 246.384305 295.12333393 C246.51249032 298.53407901 246.37246225 301.03100877 244.59376526 303.97999573 C244.01054001 304.42560349 243.42731476 304.87121124 242.82641602 305.33032227 C242.1690596 305.86270508 241.51170319 306.39508789 240.83442688 306.94360352 C240.11562851 307.49201904 239.39683014 308.04043457 238.65625 308.60546875 C237.14899741 309.86631446 235.64823496 311.13495047 234.15332031 312.41040039 C233.37347778 313.07153839 232.59363525 313.73267639 231.79016113 314.41384888 C216.71228901 327.414184 216.71228901 327.414184 210.6015625 345.6953125 C210.17371668 353.44798288 210.84574414 361.14571164 211.61871338 368.8575592 C212.05938618 374.1177147 211.60318651 377.4313988 208.28881836 381.56811523 C204.04658783 385.50870781 200.63222681 387.13178461 194.77734375 387.3515625 C189.76355829 387.11606652 186.0233814 386.13913484 182.40234375 382.44921875 C180.62659059 380.38591465 179.05980212 378.35397924 177.83984375 375.9140625 C178.01257473 373.98315796 178.19328239 372.0525976 178.41650391 370.12687683 C180.86161945 348.52149981 180.86161945 348.52149981 173.57421875 328.79150391 C166.45949795 320.04887474 157.82480271 312.47974392 148.95849609 305.55256653 C145.99523297 303.18017164 144.10904165 301.47379026 142.44726562 298.01855469 C143.09520598 292.89466814 146.01691542 290.22269681 149.83984375 286.9140625 C151.42336694 285.88934325 153.00840552 284.86636296 154.61552334 283.87905979 C165.14397978 277.29695286 174.65947591 268.94978049 177.67681122 256.44556427 C180.90186063 236.19355128 179.54178085 215.13194759 178.78456891 194.7250756 C178.47884113 186.33693011 178.33334497 177.94809929 178.1985811 169.55574286 C177.9185837 152.33429531 177.42490703 135.12825785 176.83984375 117.9140625 C163.30984375 122.8640625 149.77984375 127.8140625 135.83984375 132.9140625 C135.8258252 138.16763672 135.8258252 138.16763672 135.81152344 143.52734375 C135.77773816 155.10642544 135.72238063 166.68534874 135.65594101 178.26428223 C135.61618884 185.28377651 135.58377706 192.30315931 135.56884766 199.32275391 C135.55441582 206.09858985 135.51926095 212.87406763 135.47153473 219.64974976 C135.45671128 222.23323562 135.44880219 224.81677082 135.4479599 227.40029907 C135.44559155 231.02244806 135.41851967 234.64364102 135.38574219 238.265625 C135.39077255 239.3308992 135.39580292 240.3961734 135.40098572 241.49372864 C135.2957382 249.02412584 133.91473558 254.19665596 129.0078125 260.12890625 C94.64902825 290.01494936 43.88354352 297.76076764 -0.03515625 299.4765625 C-1.09669922 299.5182959 -2.15824219 299.5600293 -3.25195312 299.60302734 C-10.56271451 299.87791018 -17.84443287 300.09289129 -25.16015625 299.9140625 C-25.93037109 299.90149414 -26.70058594 299.88892578 -27.49414062 299.87597656 C-72.07146505 299.06155117 -122.58587005 292.55462962 -159.16015625 264.9140625 C-159.86398438 264.39199219 -160.5678125 263.86992187 -161.29296875 263.33203125 C-166.43133745 259.25788536 -169.88927284 254.47813638 -171.16015625 247.9140625 C-171.24711299 246.27494775 -171.28217195 244.63269073 -171.28041077 242.99127197 C-171.28247276 241.50633995 -171.28247276 241.50633995 -171.28457642 239.9914093 C-171.2791835 238.37192635 -171.2791835 238.37192635 -171.27368164 236.71972656 C-171.27382767 235.5779747 -171.27397369 234.43622284 -171.27412415 233.25987244 C-171.27342706 229.48312485 -171.26564412 225.70642648 -171.2578125 221.9296875 C-171.2559476 219.31223579 -171.25452404 216.69478373 -171.25352478 214.07733154 C-171.25041779 207.89028678 -171.24221292 201.7032597 -171.23217529 195.51622272 C-171.22099453 188.47152643 -171.21549875 181.42682929 -171.21047986 174.38212633 C-171.20002979 159.8927626 -171.18244257 145.4034128 -171.16015625 130.9140625 C-172.32526639 130.68989214 -172.32526639 130.68989214 -173.51391411 130.46119308 C-176.1128778 129.92383768 -178.45630429 129.17601495 -180.94580078 128.26269531 C-181.8746962 127.92389343 -182.80359161 127.58509155 -183.76063538 127.23602295 C-184.76130539 126.86680725 -185.7619754 126.49759155 -186.79296875 126.1171875 C-188.37343239 125.53895233 -188.37343239 125.53895233 -189.98582458 124.94903564 C-193.42036867 123.69124751 -196.85287418 122.42800907 -200.28515625 121.1640625 C-202.64049163 120.29868662 -204.99587924 119.43345287 -207.35131836 118.56835938 C-212.06587836 116.83608049 -216.77949975 115.10127474 -221.49267578 113.36523438 C-226.55535994 111.50178529 -231.62227467 109.65042287 -236.69274902 107.80828857 C-239.95798054 106.62114864 -243.22083144 105.42757306 -246.48309326 104.2322998 C-247.96861042 103.68955751 -249.45513697 103.14956956 -250.94268799 102.61242676 C-252.97772395 101.87690786 -255.00874618 101.13124194 -257.0390625 100.3828125 C-258.15869385 99.97482422 -259.2783252 99.56683594 -260.43188477 99.14648438 C-262.99903439 97.98684488 -264.44308225 97.11461296 -266.16015625 94.9140625 C-266.59375 92.9765625 -266.59375 92.9765625 -266.59765625 90.9140625 C-266.61699219 90.2334375 -266.63632812 89.5528125 -266.65625 88.8515625 C-265.94520479 86.07456704 -264.52808576 85.47100148 -262.16015625 83.9140625 C-260.4752081 83.17563569 -258.75966602 82.50501932 -257.02685547 81.88720703 C-255.99077652 81.51391769 -254.95469757 81.14062836 -253.88722229 80.75602722 C-252.75783737 80.35700699 -251.62845245 79.95798676 -250.46484375 79.546875 C-248.63875569 78.89201744 -246.81266794 78.237159 -244.98659229 77.58226681 C-243.02833122 76.88147882 -241.068879 76.18412265 -239.10903931 75.48776245 C-234.98125296 74.02099158 -230.85692038 72.54468031 -226.7331543 71.06665039 C-222.45423247 69.53344832 -218.17513056 68.00076328 -213.8948822 66.4712677 C-201.09330277 61.89647299 -188.30861499 57.27584352 -175.52862549 52.64105225 C-170.74029303 50.90467457 -165.95128154 49.17017367 -161.16229248 47.43560791 C-157.56206491 46.1315784 -153.96193209 44.82728759 -150.36181641 43.52294922 C-143.13214922 40.90375697 -135.90207251 38.28569664 -128.671875 35.66796875 C-127.47252823 35.23373596 -126.27318146 34.79950317 -125.03749084 34.35211182 C-119.03292792 32.17815245 -113.02831974 30.00431812 -107.02368164 27.83056641 C-95.66554146 23.71863371 -84.30779644 19.60561954 -72.95129395 15.48916626 C-68.22497916 13.77600254 -63.4984846 12.06333508 -58.77194977 10.35077858 C-55.54101032 9.18007415 -52.31017688 8.00907896 -49.07958984 6.83740234 C-45.51815262 5.54586132 -41.95637842 4.2552537 -38.39453125 2.96484375 C-36.8143924 2.39138969 -36.8143924 2.39138969 -35.20233154 1.80635071 C-22.12819945 -2.92756124 -13.36983067 -4.92719096 0 0 Z " fill="#00307E" transform="translate(266.16015625,64.0859375)"/>
<path d="M0 0 C10.12287661 0 10.12287661 0 13.53979492 1.27856445 C14.69213371 1.69648506 14.69213371 1.69648506 15.86775208 2.12284851 C16.66807358 2.42906631 17.46839508 2.73528412 18.29296875 3.05078125 C20.06554201 3.70017024 21.8381672 4.3494175 23.61083984 4.99853516 C24.50768494 5.33274475 25.40453003 5.66695435 26.32855225 6.0112915 C30.48921266 7.55116077 34.6771888 9.0115172 38.86328125 10.48046875 C42.34733569 11.71338216 45.82994358 12.95036225 49.3125 14.1875 C50.25963867 14.52392517 51.20677734 14.86035034 52.18261719 15.20697021 C70.63354109 21.7657208 89.0386764 28.44781717 107.43676758 35.15307617 C123.49862135 41.00587119 139.57313407 46.82255827 155.65664673 52.61547852 C163.28070628 55.36165835 170.90340114 58.11162585 178.52616882 60.86138916 C179.15332763 61.08762341 179.78048643 61.31385765 180.42665005 61.54694748 C181.69578608 62.00476525 182.96491869 62.4625925 184.23404789 62.92042923 C187.47079657 64.08800329 190.70770163 65.25514113 193.94488525 66.42150879 C201.68834598 69.21152291 209.43013695 72.00607103 217.16943359 74.80761719 C219.57326304 75.67687491 221.9777108 76.54442489 224.3828125 77.41015625 C227.70088887 78.60481354 231.01669905 79.80556448 234.33203125 81.0078125 C235.29998123 81.35474152 236.26793121 81.70167053 237.26521301 82.05911255 C252.12062122 87.46922954 252.12062122 87.46922954 254.6875 91.9375 C255.08189413 95.80256251 254.31941294 96.93488854 252 100 C249.3984375 101.4765625 249.3984375 101.4765625 246.375 102.625 C245.39273438 103.00914062 244.41046875 103.39328125 243.3984375 103.7890625 C240.70286938 104.74955229 238.00288887 105.67367876 235.28759766 106.57568359 C234.48295074 106.84319427 233.67830383 107.11070496 232.84927368 107.38632202 C232.23901337 107.58883575 231.62875305 107.79134949 231 108 C230.22264516 127.63652346 229.64416989 147.26985629 229.29019833 166.9186697 C229.12131689 176.04687275 228.89121638 185.1653352 228.51049805 194.28735352 C224.53180756 238.50697747 224.53180756 238.50697747 240.68952656 277.49171925 C246.15301026 283.04521836 252.30387519 288.01342648 259.02181435 291.97937965 C263.73074055 294.90742047 263.73074055 294.90742047 264.54446125 298.20927143 C264.67264657 301.62001651 264.5326185 304.11694627 262.75392151 307.06593323 C262.17069626 307.51154099 261.58747101 307.95714874 260.98657227 308.41625977 C260.32921585 308.94864258 259.67185944 309.48102539 258.99458313 310.02954102 C258.27578476 310.57795654 257.55698639 311.12637207 256.81640625 311.69140625 C255.30915366 312.95225196 253.80839121 314.22088797 252.31347656 315.49633789 C251.53363403 316.15747589 250.7537915 316.81861389 249.95031738 317.49978638 C234.87244526 330.5001215 234.87244526 330.5001215 228.76171875 348.78125 C228.33387293 356.53392038 229.00590039 364.23164914 229.77886963 371.9434967 C230.21954243 377.2036522 229.76334276 380.5173363 226.44897461 384.65405273 C222.20674408 388.59464531 218.79238306 390.21772211 212.9375 390.4375 C207.92371454 390.20200402 204.18353765 389.22507234 200.5625 385.53515625 C198.78674684 383.47185215 197.21995837 381.43991674 196 379 C196.17273098 377.06909546 196.35343864 375.1385351 196.57666016 373.21281433 C199.0217757 351.60743731 199.0217757 351.60743731 191.734375 331.87744141 C184.6196542 323.13481224 175.98495896 315.56568142 167.11865234 308.63850403 C164.15538922 306.26610914 162.2691979 304.55972776 160.60742188 301.10449219 C161.25536223 295.98060564 164.17707167 293.30863431 168 290 C169.58352319 288.97528075 171.16856177 287.95230046 172.77567959 286.96499729 C183.30413603 280.38289036 192.81963216 272.03571799 195.83696747 259.53150177 C199.06201688 239.27948878 197.7019371 218.21788509 196.94472516 197.8110131 C196.63899738 189.42286761 196.49350122 181.03403679 196.35873735 172.64168036 C196.07875829 155.42136092 195.60595708 138.21187675 195 121 C193.81559326 121.43868408 192.63118652 121.87736816 191.41088867 122.3293457 C186.97137865 123.97224764 182.52960442 125.60895257 178.0871582 127.24389648 C176.17313387 127.94926691 174.25970858 128.65626526 172.34692383 129.36499023 C153.70193826 136.27108121 153.70193826 136.27108121 145.34387207 138.37860107 C141.01809038 139.52543674 136.84116673 141.09837173 132.640625 142.6328125 C131.19128319 143.15628769 131.19128319 143.15628769 129.71266174 143.69033813 C126.5569662 144.83119674 123.40349684 145.97807945 120.25 147.125 C118.02187519 147.93172034 115.79360117 148.73802866 113.56518555 149.54394531 C108.9708217 151.2063021 104.37735055 152.87108991 99.78466797 154.53808594 C93.40093658 156.85512802 87.01532919 159.16695077 80.62890625 161.4765625 C79.64103622 161.8338443 78.6531662 162.1911261 77.63536072 162.55923462 C75.66700219 163.27110514 73.69863376 163.98294827 71.73025513 164.69476318 C68.8245554 165.74564004 65.9189763 166.79684979 63.01342773 167.84814453 C50.8121585 172.2625225 38.61003433 176.67453316 26.4012146 181.06799316 C24.69265752 181.68311964 22.98433927 182.29890995 21.27627563 182.91540527 C18.94136213 183.75797327 16.60557664 184.59807622 14.26953125 185.4375 C13.58648926 185.68453674 12.90344727 185.93157349 12.19970703 186.18609619 C7.59706535 187.83558679 3.6462273 189.14410379 -1.25 189.0625 C-3.10625 189.0315625 -3.10625 189.0315625 -5 189 C-5 188.67 -5 188.34 -5 188 C-3.35 188 -1.7 188 0 188 C0 125.96 0 63.92 0 0 Z " fill="#1020A1" transform="translate(248,61)"/>
<path d="M0 0 C0 62.04 0 124.08 0 188 C-5.77734885 188 -9.45969506 187.50748704 -14.6796875 185.6484375 C-15.44562225 185.3842099 -16.21155701 185.1199823 -17.0007019 184.8477478 C-28.44622092 180.85836471 -39.79647381 176.59501907 -51.15272903 172.35998917 C-53.82624453 171.36367327 -56.50075 170.37002961 -59.17524815 169.37635517 C-73.66932973 163.99078014 -88.15152893 158.57393165 -102.62278748 153.12733459 C-104.82649081 152.29799399 -107.03035005 151.46906896 -109.23425293 150.64025879 C-110.6814034 150.09596564 -112.128547 149.55165424 -113.57568359 149.00732422 C-114.28429157 148.74078663 -114.99289955 148.47424904 -115.7229805 148.19963455 C-119.89621673 146.62932979 -124.06789422 145.05496653 -128.23841381 143.47746181 C-130.21461354 142.73058221 -132.1914659 141.98546034 -134.16859436 141.24104309 C-136.56449186 140.33878675 -138.95932151 139.43368652 -141.35276794 138.52494812 C-146.67273952 136.52573637 -151.9903195 134.66040416 -157.43286133 133.02148438 C-164.45391269 130.90644114 -171.29903989 128.3954743 -178.1640625 125.82421875 C-179.48989832 125.33071038 -180.81585956 124.83753886 -182.14193726 124.34468079 C-185.60449395 123.05680668 -189.06543456 121.76464646 -192.52600098 120.47143555 C-196.67497033 118.92187572 -200.8258171 117.37735317 -204.97649765 115.83238411 C-208.31837452 114.58826611 -211.65966948 113.34263876 -214.99957275 112.0932312 C-220.68460407 109.9679266 -226.37261508 107.85512909 -232.08886719 105.81494141 C-232.97955902 105.49515823 -233.87025085 105.17537506 -234.78793335 104.84590149 C-236.38220113 104.27575672 -237.97888913 103.71230912 -239.57852173 103.15739441 C-245.89766392 100.89175664 -245.89766392 100.89175664 -248 98 C-248.43359375 96.0625 -248.43359375 96.0625 -248.4375 94 C-248.45683594 93.319375 -248.47617188 92.63875 -248.49609375 91.9375 C-247.78504854 89.16050454 -246.36792951 88.55693898 -244 87 C-242.31505185 86.26157319 -240.59950977 85.59095682 -238.86669922 84.97314453 C-237.83062027 84.59985519 -236.79454132 84.22656586 -235.72706604 83.84196472 C-234.59768112 83.44294449 -233.4682962 83.04392426 -232.3046875 82.6328125 C-230.47859944 81.97795494 -228.65251169 81.3230965 -226.82643604 80.66820431 C-224.86817497 79.96741632 -222.90872275 79.27006015 -220.94888306 78.57369995 C-216.82109671 77.10692908 -212.69676413 75.63061781 -208.57299805 74.15258789 C-204.29407622 72.61938582 -200.01497431 71.08670078 -195.73472595 69.5572052 C-182.93314652 64.98241049 -170.14845874 60.36178102 -157.36846924 55.72698975 C-152.58013678 53.99061207 -147.79112529 52.25611117 -143.00213623 50.52154541 C-139.40190866 49.2175159 -135.80177584 47.91322509 -132.20166016 46.60888672 C-124.97199297 43.98969447 -117.74191626 41.37163414 -110.51171875 38.75390625 C-109.31237198 38.31967346 -108.11302521 37.88544067 -106.87733459 37.43804932 C-100.87277167 35.26408995 -94.86816349 33.09025562 -88.86352539 30.91650391 C-77.50538521 26.80457121 -66.14764019 22.69155704 -54.7911377 18.57510376 C-50.06482291 16.86194004 -45.33832835 15.14927258 -40.61179352 13.43671608 C-37.38085407 12.26601165 -34.15002063 11.09501646 -30.91943359 9.92333984 C-27.35799637 8.63179882 -23.79622217 7.3411912 -20.234375 6.05078125 C-18.65423615 5.47732719 -18.65423615 5.47732719 -17.04217529 4.89228821 C-3.53063918 0 -3.53063918 0 0 0 Z " fill="#182FDB" transform="translate(248,61)"/>
<path d="M0 0 C0.09357804 15.24705383 0.16404507 30.49409438 0.20724869 45.74137115 C0.22784508 52.82149372 0.25590929 59.90143752 0.30175781 66.98144531 C0.34599227 73.81548249 0.36914563 80.6493339 0.37950897 87.48350525 C0.38689334 90.0893801 0.40131322 92.69524492 0.42292023 95.30104065 C0.45200386 98.95417138 0.45595374 102.60653754 0.45410156 106.25976562 C0.46848267 107.33439056 0.48286377 108.4090155 0.49768066 109.51620483 C0.45614364 117.0994511 -0.89084043 122.2411653 -5.83203125 128.21484375 C-45.28747601 162.53407677 -103.61661737 166.35388725 -153 168 C-153 130.38 -153 92.76 -153 54 C-144.09 51.03 -135.18 48.06 -126 45 C-117.84309227 42.11104125 -109.69634852 39.20209962 -101.5625 36.25 C-99.37861431 35.46029399 -97.19461157 34.6709116 -95.01049805 33.88183594 C-89.64739554 31.94356397 -84.28555183 30.00183792 -78.92407227 28.05908203 C-74.66382853 26.51604643 -70.40237442 24.9763713 -66.140625 23.4375 C-65.39016907 23.16650986 -64.63971313 22.89551971 -63.86651611 22.61631775 C-62.39747232 22.08588563 -60.92841739 21.55548437 -59.45935059 21.02511597 C-57.33253772 20.25723458 -55.20581038 19.48911675 -53.07910156 18.72094727 C-42.3807018 14.85703597 -31.68095495 10.9968571 -20.97763062 7.14660645 C-19.21101232 6.51084962 -17.44459138 5.87454411 -15.67837524 5.2376709 C-13.24055031 4.35876144 -10.80201505 3.48185261 -8.36328125 2.60546875 C-7.62980469 2.34056137 -6.89632812 2.07565399 -6.140625 1.80271912 C-1.11418551 0 -1.11418551 0 0 0 Z " fill="#00215A" transform="translate(401,196)"/>
<path d="M0 0 C-0.02526544 0.76840934 -0.05053087 1.53681868 -0.07656193 2.32851315 C-0.68496739 21.19037737 -1.10263788 40.04813102 -1.31865025 58.9186697 C-1.42754274 68.04622278 -1.59730999 77.16454962 -1.91674805 86.28735352 C-2.27718235 96.81570646 -2.48309346 107.33620896 -2.44140625 117.87109375 C-2.43637612 119.14335855 -2.43637612 119.14335855 -2.43124437 120.44132566 C-2.27443343 140.26256929 -1.66624586 156.90182273 12.98658752 171.79200745 C17.93248934 176.33526054 23.24625649 180.55461632 29.03457069 183.97937965 C33.73115608 186.90687019 33.73115608 186.90687019 34.54334736 190.20927143 C34.67154988 193.6198993 34.5325976 196.11698093 32.75392151 199.06593323 C31.87908363 199.73434486 31.87908363 199.73434486 30.98657227 200.41625977 C30.32921585 200.94864258 29.67185944 201.48102539 28.99458313 202.02954102 C28.27578476 202.57795654 27.55698639 203.12637207 26.81640625 203.69140625 C25.30915366 204.95225196 23.80839121 206.22088797 22.31347656 207.49633789 C21.53363403 208.15747589 20.7537915 208.81861389 19.95031738 209.49978638 C4.87244526 222.5001215 4.87244526 222.5001215 -1.23828125 240.78125 C-1.66612707 248.53392038 -0.99409961 256.23164914 -0.22113037 263.9434967 C0.21954243 269.2036522 -0.23665724 272.5173363 -3.55102539 276.65405273 C-7.79325592 280.59464531 -11.20761694 282.21772211 -17.0625 282.4375 C-22.07628546 282.20200402 -25.81646235 281.22507234 -29.4375 277.53515625 C-31.21325316 275.47185215 -32.78004163 273.43991674 -34 271 C-33.82726902 269.06909546 -33.64656136 267.1385351 -33.42333984 265.21281433 C-30.9782243 243.60743731 -30.9782243 243.60743731 -38.265625 223.87744141 C-45.3803458 215.13481224 -54.01504104 207.56568142 -62.88134766 200.63850403 C-65.84461078 198.26610914 -67.7308021 196.55972776 -69.39257812 193.10449219 C-68.74472441 187.98129082 -65.82262647 185.30791348 -62 182 C-60.42076551 180.97951495 -58.84001522 179.96076672 -57.23714542 178.9778223 C-46.6795541 172.3882487 -37.21336827 164.02154577 -34.14447784 151.51294708 C-30.79806206 131.13236719 -32.00160353 109.92560312 -32.60989273 89.36563098 C-32.85439702 80.91622627 -32.93979189 72.46726318 -33.01450503 64.01492274 C-33.17124108 46.67152436 -33.51951947 29.33739584 -34 12 C-32.10916227 11.20788767 -30.21788011 10.41683618 -28.32641602 9.6262207 C-27.27325699 9.18558792 -26.22009796 8.74495514 -25.13502502 8.29096985 C-20.77015339 6.49356229 -16.3662283 4.81989538 -11.9375 3.1875 C-11.11056641 2.87619141 -10.28363281 2.56488281 -9.43164062 2.24414062 C-8.63822266 1.95087891 -7.84480469 1.65761719 -7.02734375 1.35546875 C-6.32343506 1.09403076 -5.61952637 0.83259277 -4.89428711 0.56323242 C-3 0 -3 0 0 0 Z " fill="#FFBD00" transform="translate(478,169)"/>
<path d="M0 0 C0 50.82 0 101.64 0 154 C-4.93469787 151.53265106 -7.70170839 148.17334464 -11.3671875 144.1171875 C-13.8402899 141.82300562 -13.8402899 141.82300562 -16.89453125 141.2890625 C-21.49060491 142.3412454 -23.70489397 145.09120068 -26.8125 148.5 C-28.86490344 150.6768601 -30.92781497 152.84184448 -33 155 C-33.33 155 -33.66 155 -34 155 C-34 107.81 -34 60.62 -34 12 C-26.66635961 8.9443165 -19.38295807 5.9318389 -11.9375 3.1875 C-11.11056641 2.87619141 -10.28363281 2.56488281 -9.43164062 2.24414062 C-8.63822266 1.95087891 -7.84480469 1.65761719 -7.02734375 1.35546875 C-5.97148071 0.96331177 -5.97148071 0.96331177 -4.89428711 0.56323242 C-3 0 -3 0 0 0 Z " fill="#FED92D" transform="translate(478,169)"/>
<path d="M0 0 C4.70686179 1.17671545 5.94548966 2.65998488 9.25 6.125 C12.22595611 9.22997155 15.18707356 12.20265498 18.453125 15 C24.36167264 20.11634797 29.97943811 25.53386395 35.56640625 30.99658203 C36.86107915 32.25431098 38.16460234 33.50299011 39.4765625 34.74267578 C41.39184901 36.55447196 43.27593108 38.39420875 45.15625 40.2421875 C45.74361938 40.78624237 46.33098877 41.33029724 46.93615723 41.89083862 C49.90355479 44.87237463 51.4321505 47.1760079 51.79882812 51.43164062 C51.38396732 57.14501507 48.07244998 60.0909013 44.0625 63.8515625 C43.34900391 64.55469574 42.63550781 65.25782898 41.90039062 65.98226929 C39.62057142 68.21851577 37.31124069 70.42129252 35 72.625 C33.47586127 74.11253348 31.95370341 75.60209946 30.43359375 77.09375 C24.3660702 83.01854608 18.25732875 88.85177834 11.84106445 94.39974976 C9.37600133 96.54237863 6.95880487 98.7358141 4.54296875 100.93359375 C3 102 3 102 0 102 C0 68.34 0 34.68 0 0 Z " fill="#FF8B00" transform="translate(461,310)"/>
<path d="M0 0 C1.12614919 0.95444187 2.2507759 1.91068032 3.37475586 2.86767578 C4.00119492 3.3999881 4.62763397 3.93230042 5.27305603 4.48074341 C7.18484904 6.16261855 8.87415392 7.97085028 10.5625 9.875 C12.82808918 12.13051989 13.80557764 12.94208696 16.9375 13.875 C20.83862806 12.76039198 22.97343586 10.79415196 25.875 8.01953125 C28.48152295 5.54237617 31.23005722 3.29326921 34 1 C34.12422629 6.55004849 34.21463317 12.09927582 34.2746582 17.65039062 C34.29969777 19.53595083 34.33373999 21.42141498 34.37719727 23.30664062 C34.43831786 26.02758564 34.46631493 28.74724027 34.48828125 31.46875 C34.51408768 32.30241089 34.5398941 33.13607178 34.56648254 33.99499512 C34.56937895 40.13229666 32.95275472 44.27485993 29 49 C24.49953676 52.86957119 20.22988656 53.5921424 14.359375 53.31640625 C9.40232852 52.65163677 6.37480104 50.64092649 3.1875 46.9375 C0.63661075 43.51202015 -0.12594319 42.06502422 -0.11352539 37.91748047 C-0.11344986 37.07675995 -0.11337433 36.23603943 -0.11329651 35.36984253 C-0.10813522 34.46146637 -0.10297394 33.55309021 -0.09765625 32.6171875 C-0.0962413 31.68778351 -0.09482635 30.75837952 -0.09336853 29.80081177 C-0.08776053 26.82550876 -0.07520668 23.85028036 -0.0625 20.875 C-0.05748603 18.86067817 -0.05292295 16.84635516 -0.04882812 14.83203125 C-0.0377885 9.88799198 -0.02051849 4.94400865 0 0 Z " fill="#FFD92C" transform="translate(444,398)"/>
</svg>
