<?xml version="1.0" encoding="UTF-8"?>
<svg version="1.1" xmlns="http://www.w3.org/2000/svg" width="1278" height="512">
<path d="M0 0 C0.87391891 0.31411331 1.74783783 0.62822662 2.64823914 0.95185852 C4.47800397 1.60958715 6.30663413 2.27048039 8.13415527 2.93441772 C11.49627834 4.15173684 14.86796308 5.34069616 18.24090576 6.52763367 C22.54766751 8.04395735 26.84985863 9.57315459 31.15234375 11.1015625 C32.57305176 11.60620026 32.57305176 11.60620026 34.02246094 12.12103271 C52.47338484 18.6797833 70.87852015 25.36187967 89.27661133 32.06713867 C105.3384651 37.91993369 121.41297782 43.73662077 137.49649048 49.52954102 C145.12055003 52.27572085 152.74324489 55.02568835 160.36601257 57.77545166 C160.99317138 58.00168591 161.62033018 58.22792015 162.2664938 58.46100998 C163.53562983 58.91882775 164.80476244 59.376655 166.07389164 59.83449173 C169.31064032 61.00206579 172.54754538 62.16920363 175.784729 63.33557129 C183.52818973 66.12558541 191.2699807 68.92013353 199.00927734 71.72167969 C201.41310679 72.59093741 203.81755455 73.45848739 206.22265625 74.32421875 C209.54073262 75.51887604 212.8565428 76.71962698 216.171875 77.921875 C217.13982498 78.26880402 218.10777496 78.61573303 219.10505676 78.97317505 C233.96046497 84.38329204 233.96046497 84.38329204 236.52734375 88.8515625 C236.92173788 92.71662501 236.15925669 93.84895104 233.83984375 96.9140625 C231.23828125 98.390625 231.23828125 98.390625 228.21484375 99.5390625 C227.23257812 99.92320312 226.2503125 100.30734375 225.23828125 100.703125 C222.54271313 101.66361479 219.84273262 102.58774126 217.12744141 103.48974609 C216.32279449 103.75725677 215.51814758 104.02476746 214.68911743 104.30038452 C214.07885712 104.50289825 213.4685968 104.70541199 212.83984375 104.9140625 C212.06248891 124.55058596 211.48401364 144.18391879 211.13004208 163.8327322 C210.96116064 172.96093525 210.73106013 182.0793977 210.3503418 191.20141602 C206.37165131 235.42103997 206.37165131 235.42103997 222.52937031 274.40578175 C227.99285401 279.95928086 234.14371894 284.92748898 240.8616581 288.89344215 C245.5705843 291.82148297 245.5705843 291.82148297 246.384305 295.12333393 C246.51249032 298.53407901 246.37246225 301.03100877 244.59376526 303.97999573 C244.01054001 304.42560349 243.42731476 304.87121124 242.82641602 305.33032227 C242.1690596 305.86270508 241.51170319 306.39508789 240.83442688 306.94360352 C240.11562851 307.49201904 239.39683014 308.04043457 238.65625 308.60546875 C237.14899741 309.86631446 235.64823496 311.13495047 234.15332031 312.41040039 C233.37347778 313.07153839 232.59363525 313.73267639 231.79016113 314.41384888 C216.71228901 327.414184 216.71228901 327.414184 210.6015625 345.6953125 C210.17371668 353.44798288 210.84574414 361.14571164 211.61871338 368.8575592 C212.05938618 374.1177147 211.60318651 377.4313988 208.28881836 381.56811523 C204.04658783 385.50870781 200.63222681 387.13178461 194.77734375 387.3515625 C189.76355829 387.11606652 186.0233814 386.13913484 182.40234375 382.44921875 C180.62659059 380.38591465 179.05980212 378.35397924 177.83984375 375.9140625 C178.01257473 373.98315796 178.19328239 372.0525976 178.41650391 370.12687683 C180.86161945 348.52149981 180.86161945 348.52149981 173.57421875 328.79150391 C166.45949795 320.04887474 157.82480271 312.47974392 148.95849609 305.55256653 C145.99523297 303.18017164 144.10904165 301.47379026 142.44726562 298.01855469 C143.09520598 292.89466814 146.01691542 290.22269681 149.83984375 286.9140625 C151.42336694 285.88934325 153.00840552 284.86636296 154.61552334 283.87905979 C165.14397978 277.29695286 174.65947591 268.94978049 177.67681122 256.44556427 C180.90186063 236.19355128 179.54178085 215.13194759 178.78456891 194.7250756 C178.47884113 186.33693011 178.33334497 177.94809929 178.1985811 169.55574286 C177.9185837 152.33429531 177.42490703 135.12825785 176.83984375 117.9140625 C163.30984375 122.8640625 149.77984375 127.8140625 135.83984375 132.9140625 C135.8258252 138.16763672 135.8258252 138.16763672 135.81152344 143.52734375 C135.77773816 155.10642544 135.72238063 166.68534874 135.65594101 178.26428223 C135.61618884 185.28377651 135.58377706 192.30315931 135.56884766 199.32275391 C135.55441582 206.09858985 135.51926095 212.87406763 135.47153473 219.64974976 C135.45671128 222.23323562 135.44880219 224.81677082 135.4479599 227.40029907 C135.44559155 231.02244806 135.41851967 234.64364102 135.38574219 238.265625 C135.39077255 239.3308992 135.39580292 240.3961734 135.40098572 241.49372864 C135.2957382 249.02412584 133.91473558 254.19665596 129.0078125 260.12890625 C94.64902825 290.01494936 43.88354352 297.76076764 -0.03515625 299.4765625 C-1.09669922 299.5182959 -2.15824219 299.5600293 -3.25195312 299.60302734 C-10.56271451 299.87791018 -17.84443287 300.09289129 -25.16015625 299.9140625 C-25.93037109 299.90149414 -26.70058594 299.88892578 -27.49414062 299.87597656 C-72.07146505 299.06155117 -122.58587005 292.55462962 -159.16015625 264.9140625 C-159.86398438 264.39199219 -160.5678125 263.86992187 -161.29296875 263.33203125 C-166.43133745 259.25788536 -169.88927284 254.47813638 -171.16015625 247.9140625 C-171.24711299 246.27494775 -171.28217195 244.63269073 -171.28041077 242.99127197 C-171.28247276 241.50633995 -171.28247276 241.50633995 -171.28457642 239.9914093 C-171.2791835 238.37192635 -171.2791835 238.37192635 -171.27368164 236.71972656 C-171.27382767 235.5779747 -171.27397369 234.43622284 -171.27412415 233.25987244 C-171.27342706 229.48312485 -171.26564412 225.70642648 -171.2578125 221.9296875 C-171.2559476 219.31223579 -171.25452404 216.69478373 -171.25352478 214.07733154 C-171.25041779 207.89028678 -171.24221292 201.7032597 -171.23217529 195.51622272 C-171.22099453 188.47152643 -171.21549875 181.42682929 -171.21047986 174.38212633 C-171.20002979 159.8927626 -171.18244257 145.4034128 -171.16015625 130.9140625 C-172.32526639 130.68989214 -172.32526639 130.68989214 -173.51391411 130.46119308 C-176.1128778 129.92383768 -178.45630429 129.17601495 -180.94580078 128.26269531 C-181.8746962 127.92389343 -182.80359161 127.58509155 -183.76063538 127.23602295 C-184.76130539 126.86680725 -185.7619754 126.49759155 -186.79296875 126.1171875 C-188.37343239 125.53895233 -188.37343239 125.53895233 -189.98582458 124.94903564 C-193.42036867 123.69124751 -196.85287418 122.42800907 -200.28515625 121.1640625 C-202.64049163 120.29868662 -204.99587924 119.43345287 -207.35131836 118.56835938 C-212.06587836 116.83608049 -216.77949975 115.10127474 -221.49267578 113.36523438 C-226.55535994 111.50178529 -231.62227467 109.65042287 -236.69274902 107.80828857 C-239.95798054 106.62114864 -243.22083144 105.42757306 -246.48309326 104.2322998 C-247.96861042 103.68955751 -249.45513697 103.14956956 -250.94268799 102.61242676 C-252.97772395 101.87690786 -255.00874618 101.13124194 -257.0390625 100.3828125 C-258.15869385 99.97482422 -259.2783252 99.56683594 -260.43188477 99.14648438 C-262.99903439 97.98684488 -264.44308225 97.11461296 -266.16015625 94.9140625 C-266.59375 92.9765625 -266.59375 92.9765625 -266.59765625 90.9140625 C-266.61699219 90.2334375 -266.63632812 89.5528125 -266.65625 88.8515625 C-265.94520479 86.07456704 -264.52808576 85.47100148 -262.16015625 83.9140625 C-260.4752081 83.17563569 -258.75966602 82.50501932 -257.02685547 81.88720703 C-255.99077652 81.51391769 -254.95469757 81.14062836 -253.88722229 80.75602722 C-252.75783737 80.35700699 -251.62845245 79.95798676 -250.46484375 79.546875 C-248.63875569 78.89201744 -246.81266794 78.237159 -244.98659229 77.58226681 C-243.02833122 76.88147882 -241.068879 76.18412265 -239.10903931 75.48776245 C-234.98125296 74.02099158 -230.85692038 72.54468031 -226.7331543 71.06665039 C-222.45423247 69.53344832 -218.17513056 68.00076328 -213.8948822 66.4712677 C-201.09330277 61.89647299 -188.30861499 57.27584352 -175.52862549 52.64105225 C-170.74029303 50.90467457 -165.95128154 49.17017367 -161.16229248 47.43560791 C-157.56206491 46.1315784 -153.96193209 44.82728759 -150.36181641 43.52294922 C-143.13214922 40.90375697 -135.90207251 38.28569664 -128.671875 35.66796875 C-127.47252823 35.23373596 -126.27318146 34.79950317 -125.03749084 34.35211182 C-119.03292792 32.17815245 -113.02831974 30.00431812 -107.02368164 27.83056641 C-95.66554146 23.71863371 -84.30779644 19.60561954 -72.95129395 15.48916626 C-68.22497916 13.77600254 -63.4984846 12.06333508 -58.77194977 10.35077858 C-55.54101032 9.18007415 -52.31017688 8.00907896 -49.07958984 6.83740234 C-45.51815262 5.54586132 -41.95637842 4.2552537 -38.39453125 2.96484375 C-36.8143924 2.39138969 -36.8143924 2.39138969 -35.20233154 1.80635071 C-22.12819945 -2.92756124 -13.36983067 -4.92719096 0 0 Z " fill="#00307E" transform="translate(266.16015625,64.0859375)"/>
<path d="M0 0 C10.12287661 0 10.12287661 0 13.53979492 1.27856445 C14.69213371 1.69648506 14.69213371 1.69648506 15.86775208 2.12284851 C16.66807358 2.42906631 17.46839508 2.73528412 18.29296875 3.05078125 C20.06554201 3.70017024 21.8381672 4.3494175 23.61083984 4.99853516 C24.50768494 5.33274475 25.40453003 5.66695435 26.32855225 6.0112915 C30.48921266 7.55116077 34.6771888 9.0115172 38.86328125 10.48046875 C42.34733569 11.71338216 45.82994358 12.95036225 49.3125 14.1875 C50.25963867 14.52392517 51.20677734 14.86035034 52.18261719 15.20697021 C70.63354109 21.7657208 89.0386764 28.44781717 107.43676758 35.15307617 C123.49862135 41.00587119 139.57313407 46.82255827 155.65664673 52.61547852 C163.28070628 55.36165835 170.90340114 58.11162585 178.52616882 60.86138916 C179.15332763 61.08762341 179.78048643 61.31385765 180.42665005 61.54694748 C181.69578608 62.00476525 182.96491869 62.4625925 184.23404789 62.92042923 C187.47079657 64.08800329 190.70770163 65.25514113 193.94488525 66.42150879 C201.68834598 69.21152291 209.43013695 72.00607103 217.16943359 74.80761719 C219.57326304 75.67687491 221.9777108 76.54442489 224.3828125 77.41015625 C227.70088887 78.60481354 231.01669905 79.80556448 234.33203125 81.0078125 C235.29998123 81.35474152 236.26793121 81.70167053 237.26521301 82.05911255 C252.12062122 87.46922954 252.12062122 87.46922954 254.6875 91.9375 C255.08189413 95.80256251 254.31941294 96.93488854 252 100 C249.3984375 101.4765625 249.3984375 101.4765625 246.375 102.625 C245.39273438 103.00914062 244.41046875 103.39328125 243.3984375 103.7890625 C240.70286938 104.74955229 238.00288887 105.67367876 235.28759766 106.57568359 C234.48295074 106.84319427 233.67830383 107.11070496 232.84927368 107.38632202 C232.23901337 107.58883575 231.62875305 107.79134949 231 108 C230.22264516 127.63652346 229.64416989 147.26985629 229.29019833 166.9186697 C229.12131689 176.04687275 228.89121638 185.1653352 228.51049805 194.28735352 C224.53180756 238.50697747 224.53180756 238.50697747 240.68952656 277.49171925 C246.15301026 283.04521836 252.30387519 288.01342648 259.02181435 291.97937965 C263.73074055 294.90742047 263.73074055 294.90742047 264.54446125 298.20927143 C264.67264657 301.62001651 264.5326185 304.11694627 262.75392151 307.06593323 C262.17069626 307.51154099 261.58747101 307.95714874 260.98657227 308.41625977 C260.32921585 308.94864258 259.67185944 309.48102539 258.99458313 310.02954102 C258.27578476 310.57795654 257.55698639 311.12637207 256.81640625 311.69140625 C255.30915366 312.95225196 253.80839121 314.22088797 252.31347656 315.49633789 C251.53363403 316.15747589 250.7537915 316.81861389 249.95031738 317.49978638 C234.87244526 330.5001215 234.87244526 330.5001215 228.76171875 348.78125 C228.33387293 356.53392038 229.00590039 364.23164914 229.77886963 371.9434967 C230.21954243 377.2036522 229.76334276 380.5173363 226.44897461 384.65405273 C222.20674408 388.59464531 218.79238306 390.21772211 212.9375 390.4375 C207.92371454 390.20200402 204.18353765 389.22507234 200.5625 385.53515625 C198.78674684 383.47185215 197.21995837 381.43991674 196 379 C196.17273098 377.06909546 196.35343864 375.1385351 196.57666016 373.21281433 C199.0217757 351.60743731 199.0217757 351.60743731 191.734375 331.87744141 C184.6196542 323.13481224 175.98495896 315.56568142 167.11865234 308.63850403 C164.15538922 306.26610914 162.2691979 304.55972776 160.60742188 301.10449219 C161.25536223 295.98060564 164.17707167 293.30863431 168 290 C169.58352319 288.97528075 171.16856177 287.95230046 172.77567959 286.96499729 C183.30413603 280.38289036 192.81963216 272.03571799 195.83696747 259.53150177 C199.06201688 239.27948878 197.7019371 218.21788509 196.94472516 197.8110131 C196.63899738 189.42286761 196.49350122 181.03403679 196.35873735 172.64168036 C196.07875829 155.42136092 195.60595708 138.21187675 195 121 C193.81559326 121.43868408 192.63118652 121.87736816 191.41088867 122.3293457 C186.97137865 123.97224764 182.52960442 125.60895257 178.0871582 127.24389648 C176.17313387 127.94926691 174.25970858 128.65626526 172.34692383 129.36499023 C153.70193826 136.27108121 153.70193826 136.27108121 145.34387207 138.37860107 C141.01809038 139.52543674 136.84116673 141.09837173 132.640625 142.6328125 C131.19128319 143.15628769 131.19128319 143.15628769 129.71266174 143.69033813 C126.5569662 144.83119674 123.40349684 145.97807945 120.25 147.125 C118.02187519 147.93172034 115.79360117 148.73802866 113.56518555 149.54394531 C108.9708217 151.2063021 104.37735055 152.87108991 99.78466797 154.53808594 C93.40093658 156.85512802 87.01532919 159.16695077 80.62890625 161.4765625 C79.64103622 161.8338443 78.6531662 162.1911261 77.63536072 162.55923462 C75.66700219 163.27110514 73.69863376 163.98294827 71.73025513 164.69476318 C68.8245554 165.74564004 65.9189763 166.79684979 63.01342773 167.84814453 C50.8121585 172.2625225 38.61003433 176.67453316 26.4012146 181.06799316 C24.69265752 181.68311964 22.98433927 182.29890995 21.27627563 182.91540527 C18.94136213 183.75797327 16.60557664 184.59807622 14.26953125 185.4375 C13.58648926 185.68453674 12.90344727 185.93157349 12.19970703 186.18609619 C7.59706535 187.83558679 3.6462273 189.14410379 -1.25 189.0625 C-3.10625 189.0315625 -3.10625 189.0315625 -5 189 C-5 188.67 -5 188.34 -5 188 C-3.35 188 -1.7 188 0 188 C0 125.96 0 63.92 0 0 Z " fill="#1020A1" transform="translate(248,61)"/>
<path d="M0 0 C0 62.04 0 124.08 0 188 C-5.7648995 188 -9.43356028 187.5176912 -14.640625 185.6640625 C-15.40449524 185.40066071 -16.16836548 185.13725891 -16.9553833 184.86587524 C-28.61928956 180.80004323 -40.18090672 176.44053928 -51.75239563 172.12036514 C-55.14368053 170.85497666 -58.53622528 169.59297551 -61.92871094 168.33081055 C-66.11571173 166.77290475 -70.30264804 165.21482832 -74.48907471 163.65538025 C-83.89437058 160.15230801 -93.30466376 156.66296928 -102.71875 153.18359375 C-103.96942522 152.72122211 -105.22009664 152.25884022 -106.47076416 151.79644775 C-111.21569383 150.04236767 -115.96068292 148.28845221 -120.7064209 146.53656006 C-123.93492837 145.34456887 -127.16283128 144.15095358 -130.390625 142.95703125 C-131.78976135 142.44129799 -131.78976135 142.44129799 -133.21716309 141.91514587 C-137.45966108 140.34454151 -141.66965774 138.73079483 -145.85058594 137.00268555 C-150.67729371 135.05141035 -155.59773738 133.56680287 -160.58074951 132.06973267 C-166.52298324 130.21066982 -172.33481293 128.00753134 -178.1640625 125.82421875 C-179.48989832 125.33071038 -180.81585956 124.83753886 -182.14193726 124.34468079 C-185.60449395 123.05680668 -189.06543456 121.76464646 -192.52600098 120.47143555 C-196.67497033 118.92187572 -200.8258171 117.37735317 -204.97649765 115.83238411 C-208.31837452 114.58826611 -211.65966948 113.34263876 -214.99957275 112.0932312 C-220.68460407 109.9679266 -226.37261508 107.85512909 -232.08886719 105.81494141 C-232.97955902 105.49515823 -233.87025085 105.17537506 -234.78793335 104.84590149 C-236.38220113 104.27575672 -237.97888913 103.71230912 -239.57852173 103.15739441 C-245.89766392 100.89175664 -245.89766392 100.89175664 -248 98 C-248.43359375 96.0625 -248.43359375 96.0625 -248.4375 94 C-248.45683594 93.319375 -248.47617188 92.63875 -248.49609375 91.9375 C-247.78504854 89.16050454 -246.36792951 88.55693898 -244 87 C-242.31505185 86.26157319 -240.59950977 85.59095682 -238.86669922 84.97314453 C-237.83062027 84.59985519 -236.79454132 84.22656586 -235.72706604 83.84196472 C-234.59768112 83.44294449 -233.4682962 83.04392426 -232.3046875 82.6328125 C-230.47859944 81.97795494 -228.65251169 81.3230965 -226.82643604 80.66820431 C-224.86817497 79.96741632 -222.90872275 79.27006015 -220.94888306 78.57369995 C-216.82109671 77.10692908 -212.69676413 75.63061781 -208.57299805 74.15258789 C-204.29407622 72.61938582 -200.01497431 71.08670078 -195.73472595 69.5572052 C-182.93314652 64.98241049 -170.14845874 60.36178102 -157.36846924 55.72698975 C-152.58013678 53.99061207 -147.79112529 52.25611117 -143.00213623 50.52154541 C-139.40190866 49.2175159 -135.80177584 47.91322509 -132.20166016 46.60888672 C-124.97199297 43.98969447 -117.74191626 41.37163414 -110.51171875 38.75390625 C-109.31237198 38.31967346 -108.11302521 37.88544067 -106.87733459 37.43804932 C-100.87277167 35.26408995 -94.86816349 33.09025562 -88.86352539 30.91650391 C-77.50538521 26.80457121 -66.14764019 22.69155704 -54.7911377 18.57510376 C-50.06482291 16.86194004 -45.33832835 15.14927258 -40.61179352 13.43671608 C-37.38085407 12.26601165 -34.15002063 11.09501646 -30.91943359 9.92333984 C-27.35799637 8.63179882 -23.79622217 7.3411912 -20.234375 6.05078125 C-18.65423615 5.47732719 -18.65423615 5.47732719 -17.04217529 4.89228821 C-3.53063918 0 -3.53063918 0 0 0 Z " fill="#182FDB" transform="translate(248,61)"/>
<path d="M0 0 C0.09357804 15.24705383 0.16404507 30.49409438 0.20724869 45.74137115 C0.22784508 52.82149372 0.25590929 59.90143752 0.30175781 66.98144531 C0.34599227 73.81548249 0.36914563 80.6493339 0.37950897 87.48350525 C0.38689334 90.0893801 0.40131322 92.69524492 0.42292023 95.30104065 C0.45200386 98.95417138 0.45595374 102.60653754 0.45410156 106.25976562 C0.46848267 107.33439056 0.48286377 108.4090155 0.49768066 109.51620483 C0.45614364 117.0994511 -0.89084043 122.2411653 -5.83203125 128.21484375 C-45.28747601 162.53407677 -103.61661737 166.35388725 -153 168 C-153 130.38 -153 92.76 -153 54 C-144.09 51.03 -135.18 48.06 -126 45 C-117.84309227 42.11104125 -109.69634852 39.20209962 -101.5625 36.25 C-99.37861431 35.46029399 -97.19461157 34.6709116 -95.01049805 33.88183594 C-89.64739554 31.94356397 -84.28555183 30.00183792 -78.92407227 28.05908203 C-74.66382853 26.51604643 -70.40237442 24.9763713 -66.140625 23.4375 C-65.39016907 23.16650986 -64.63971313 22.89551971 -63.86651611 22.61631775 C-62.39747232 22.08588563 -60.92841739 21.55548437 -59.45935059 21.02511597 C-57.33253772 20.25723458 -55.20581038 19.48911675 -53.07910156 18.72094727 C-42.3807018 14.85703597 -31.68095495 10.9968571 -20.97763062 7.14660645 C-19.21101232 6.51084962 -17.44459138 5.87454411 -15.67837524 5.2376709 C-13.24055031 4.35876144 -10.80201505 3.48185261 -8.36328125 2.60546875 C-7.62980469 2.34056137 -6.89632812 2.07565399 -6.140625 1.80271912 C-1.11418551 0 -1.11418551 0 0 0 Z " fill="#00215A" transform="translate(401,196)"/>
<path d="M0 0 C-0.02526544 0.76840934 -0.05053087 1.53681868 -0.07656193 2.32851315 C-0.68496739 21.19037737 -1.10263788 40.04813102 -1.31865025 58.9186697 C-1.42754274 68.04622278 -1.59730999 77.16454962 -1.91674805 86.28735352 C-2.27718235 96.81570646 -2.48309346 107.33620896 -2.44140625 117.87109375 C-2.43637612 119.14335855 -2.43637612 119.14335855 -2.43124437 120.44132566 C-2.27443343 140.26256929 -1.66624586 156.90182273 12.98658752 171.79200745 C17.93248934 176.33526054 23.24625649 180.55461632 29.03457069 183.97937965 C33.73115608 186.90687019 33.73115608 186.90687019 34.54334736 190.20927143 C34.67154988 193.6198993 34.5325976 196.11698093 32.75392151 199.06593323 C31.87908363 199.73434486 31.87908363 199.73434486 30.98657227 200.41625977 C30.32921585 200.94864258 29.67185944 201.48102539 28.99458313 202.02954102 C28.27578476 202.57795654 27.55698639 203.12637207 26.81640625 203.69140625 C25.30915366 204.95225196 23.80839121 206.22088797 22.31347656 207.49633789 C21.53363403 208.15747589 20.7537915 208.81861389 19.95031738 209.49978638 C4.87244526 222.5001215 4.87244526 222.5001215 -1.23828125 240.78125 C-1.66612707 248.53392038 -0.99409961 256.23164914 -0.22113037 263.9434967 C0.21954243 269.2036522 -0.23665724 272.5173363 -3.55102539 276.65405273 C-7.79325592 280.59464531 -11.20761694 282.21772211 -17.0625 282.4375 C-22.07628546 282.20200402 -25.81646235 281.22507234 -29.4375 277.53515625 C-31.21325316 275.47185215 -32.78004163 273.43991674 -34 271 C-33.82726902 269.06909546 -33.64656136 267.1385351 -33.42333984 265.21281433 C-30.9782243 243.60743731 -30.9782243 243.60743731 -38.265625 223.87744141 C-45.3803458 215.13481224 -54.01504104 207.56568142 -62.88134766 200.63850403 C-65.84461078 198.26610914 -67.7308021 196.55972776 -69.39257812 193.10449219 C-68.74472441 187.98129082 -65.82262647 185.30791348 -62 182 C-60.42076551 180.97951495 -58.84001522 179.96076672 -57.23714542 178.9778223 C-46.6795541 172.3882487 -37.21336827 164.02154577 -34.14447784 151.51294708 C-30.79806206 131.13236719 -32.00160353 109.92560312 -32.60989273 89.36563098 C-32.85439702 80.91622627 -32.93979189 72.46726318 -33.01450503 64.01492274 C-33.17124108 46.67152436 -33.51951947 29.33739584 -34 12 C-32.10916227 11.20788767 -30.21788011 10.41683618 -28.32641602 9.6262207 C-27.27325699 9.18558792 -26.22009796 8.74495514 -25.13502502 8.29096985 C-20.77015339 6.49356229 -16.3662283 4.81989538 -11.9375 3.1875 C-11.11056641 2.87619141 -10.28363281 2.56488281 -9.43164062 2.24414062 C-8.63822266 1.95087891 -7.84480469 1.65761719 -7.02734375 1.35546875 C-6.32343506 1.09403076 -5.61952637 0.83259277 -4.89428711 0.56323242 C-3 0 -3 0 0 0 Z " fill="#FEBD00" transform="translate(478,169)"/>
<path d="M0 0 C0.99112793 -0.00315216 1.98225586 -0.00630432 3.00341797 -0.009552 C4.07221191 -0.00752777 5.14100586 -0.00550354 6.2421875 -0.00341797 C7.34062988 -0.00437469 8.43907227 -0.00533142 9.57080078 -0.00631714 C11.89420631 -0.00699792 14.21761374 -0.00515072 16.54101562 -0.00097656 C20.10290793 0.00437308 23.66467413 -0.00092503 27.2265625 -0.00732422 C29.48177111 -0.00666342 31.73697965 -0.00538222 33.9921875 -0.00341797 C35.59537842 -0.00645432 35.59537842 -0.00645432 37.23095703 -0.009552 C38.22208496 -0.00639984 39.21321289 -0.00324768 40.234375 0 C41.10690918 0.00079559 41.97944336 0.00159119 42.87841797 0.00241089 C46.44526988 0.20472374 47.868141 0.85900119 50.3046875 3.50439453 C52.1171875 6.12939453 52.1171875 6.12939453 52.1171875 9.12939453 C53.14779297 8.20900391 53.14779297 8.20900391 54.19921875 7.27001953 C61.4875116 1.92332009 72.18146196 -0.05814198 81.1171875 1.12939453 C82.80019419 2.81240122 82.34527827 4.9494818 82.43359375 7.25830078 C82.47548828 8.29277344 82.51738281 9.32724609 82.56054688 10.39306641 C82.59986328 11.48167969 82.63917969 12.57029297 82.6796875 13.69189453 C82.72287109 14.784375 82.76605469 15.87685547 82.81054688 17.00244141 C82.91700818 19.71129017 83.01902266 22.42023446 83.1171875 25.12939453 C84.05691406 24.33146484 84.99664063 23.53353516 85.96484375 22.71142578 C89.64802643 19.58400455 92.57574697 18.30389723 97.4296875 17.75439453 C103.1432734 18.33543716 108.38442183 20.6326125 112.1171875 25.12939453 C113.96857453 29.86187261 114.15071786 35.06575724 114.3203125 40.09423828 C114.35108887 40.98183838 114.38186523 41.86943848 114.41357422 42.78393555 C114.46546215 44.57954809 114.49872689 46.37580763 114.51220703 48.17211914 C114.5875959 53.35024344 114.5875959 53.35024344 117.15625 57.73095703 C117.80335938 58.19244141 118.45046875 58.65392578 119.1171875 59.12939453 C119.7771875 57.80939453 120.4371875 56.48939453 121.1171875 55.12939453 C121.7771875 55.12939453 122.4371875 55.12939453 123.1171875 55.12939453 C123.23327476 51.85885937 123.30439461 48.58885273 123.3671875 45.31689453 C123.41746094 43.92374023 123.41746094 43.92374023 123.46875 42.50244141 C123.48164062 41.60976562 123.49453125 40.71708984 123.5078125 39.79736328 C123.52875977 38.97518311 123.54970703 38.15300293 123.57128906 37.3059082 C122.95651847 34.35930617 121.52715137 33.79758346 119.1171875 32.12939453 C118.5546875 29.19189453 118.5546875 29.19189453 119.1171875 26.12939453 C123.06980638 21.35899243 129.24242705 20.16072439 135.1171875 19.12939453 C138.80232083 18.9153015 142.43199156 18.93693749 146.1171875 19.12939453 C147.1071875 21.60439453 147.1071875 21.60439453 148.1171875 24.12939453 C148.9009375 23.30439453 149.6846875 22.47939453 150.4921875 21.62939453 C154.07808079 18.64824809 157.21665952 18.41596985 161.78125 18.62158203 C165.28352947 19.38294713 166.89292032 21.4333131 169.1171875 24.12939453 C172.16129029 24.36580338 172.16129029 24.36580338 174.6796875 22.75439453 C182.19025122 19.20394623 189.91750161 18.81536401 198.1171875 19.12939453 C199.60881595 22.11265144 199.32161544 24.89443679 199.3984375 28.21923828 C199.41684692 28.9195668 199.43525635 29.61989532 199.45422363 30.34144592 C199.51301657 32.58317616 199.56580386 34.82498295 199.6171875 37.06689453 C199.6848858 40.01366879 199.75858808 42.96020337 199.8359375 45.90673828 C199.86623047 47.21892334 199.89652344 48.5311084 199.92773438 49.88305664 C199.97650502 53.14138117 199.97650502 53.14138117 201.1171875 56.12939453 C202.1071875 56.78939453 203.0971875 57.44939453 204.1171875 58.12939453 C204.5546875 61.06689453 204.5546875 61.06689453 204.1171875 64.12939453 C200.65327628 67.59330576 197.12519761 68.25581281 192.37109375 68.26220703 C191.45134766 68.26349609 190.53160156 68.26478516 189.58398438 68.26611328 C188.14635742 68.2603125 188.14635742 68.2603125 186.6796875 68.25439453 C185.72513672 68.25826172 184.77058594 68.26212891 183.78710938 68.26611328 C182.86607422 68.26482422 181.94503906 68.26353516 180.99609375 68.26220703 C180.1563501 68.2610791 179.31660645 68.25995117 178.45141602 68.25878906 C176.20960263 68.13451743 174.26823296 67.75336192 172.1171875 67.12939453 C172.1171875 66.46939453 172.1171875 65.80939453 172.1171875 65.12939453 C171.4571875 65.12939453 170.7971875 65.12939453 170.1171875 65.12939453 C169.8671875 61.87939453 169.8671875 61.87939453 170.1171875 58.12939453 C172.0546875 55.87939453 172.0546875 55.87939453 174.1171875 54.12939453 C175.13524354 51.0752264 175.25094265 48.95002492 175.2421875 45.75439453 C175.24476563 44.81853516 175.24734375 43.88267578 175.25 42.91845703 C175.12160191 40.22209706 174.71907459 37.75667944 174.1171875 35.12939453 C172.7971875 34.79939453 171.4771875 34.46939453 170.1171875 34.12939453 C169.5190625 35.07814453 168.9209375 36.02689453 168.3046875 37.00439453 C166.1171875 40.12939453 166.1171875 40.12939453 163.1171875 42.12939453 C160.8125 42.43017578 160.8125 42.43017578 158.2421875 42.44189453 C157.39914062 42.45865234 156.55609375 42.47541016 155.6875 42.49267578 C153.1171875 42.12939453 153.1171875 42.12939453 148.1171875 39.12939453 C148.1171875 44.40939453 148.1171875 49.68939453 148.1171875 55.12939453 C149.4371875 55.45939453 150.7571875 55.78939453 152.1171875 56.12939453 C153.1071875 56.78939453 154.0971875 57.44939453 155.1171875 58.12939453 C155.52595288 61.33139001 155.73669551 63.27388347 153.8046875 65.94189453 C148.92747073 69.37401003 142.49503439 68.35366091 136.8046875 68.37939453 C135.67611328 68.40001953 134.54753906 68.42064453 133.38476562 68.44189453 C127.22379022 68.47090442 123.65055449 67.90863484 118.1171875 65.12939453 C116.09467018 66.08303162 114.09782756 67.09157714 112.1171875 68.12939453 C108.73729861 68.56110049 105.39469461 68.50380332 101.9921875 68.44189453 C101.09886719 68.44511719 100.20554687 68.44833984 99.28515625 68.45166016 C94.94498527 68.41597863 91.95227307 68.32313334 88.1171875 66.12939453 C87.8671875 58.50439453 87.8671875 58.50439453 90.1171875 55.12939453 C90.33890407 52.43712194 90.44173019 49.88223043 90.4296875 47.19189453 C90.44580078 46.47582031 90.46191406 45.75974609 90.47851562 45.02197266 C90.48245626 40.77003028 90.15782943 38.20212767 87.1171875 35.12939453 C85.7971875 35.45939453 84.4771875 35.78939453 83.1171875 36.12939453 C83.05899326 39.37931899 83.02352634 42.62910888 82.9921875 45.87939453 C82.96705078 47.25998047 82.96705078 47.25998047 82.94140625 48.66845703 C82.93496094 49.55791016 82.92851563 50.44736328 82.921875 51.36376953 C82.91140137 52.18071289 82.90092773 52.99765625 82.89013672 53.83935547 C83.14027139 56.3622191 83.96477712 57.8980708 85.1171875 60.12939453 C84.9921875 63.25439453 84.9921875 63.25439453 84.1171875 66.12939453 C79.69340446 69.05337123 74.8523335 68.45939503 69.7421875 68.44189453 C68.34226562 68.46606445 68.34226562 68.46606445 66.9140625 68.49072266 C61.53634206 68.49453124 57.79489972 68.09403154 53.1171875 65.12939453 C52.8671875 61.87939453 52.8671875 61.87939453 53.1171875 58.12939453 C55.0546875 55.94189453 55.0546875 55.94189453 57.1171875 54.12939453 C59.17104838 48.61066059 58.34215438 42.08890096 58.35742188 36.265625 C58.36718486 34.00500474 58.39825882 31.74527262 58.4296875 29.48486328 C58.43621264 28.05127492 58.44146503 26.61768008 58.4453125 25.18408203 C58.4546582 23.87938965 58.46400391 22.57469727 58.47363281 21.23046875 C58.29719238 19.69543701 58.29719238 19.69543701 58.1171875 18.12939453 C57.1271875 17.46939453 56.1371875 16.80939453 55.1171875 16.12939453 C55.0346875 17.22251953 54.9521875 18.31564453 54.8671875 19.44189453 C54.1171875 23.12939453 54.1171875 23.12939453 52.5546875 25.06689453 C49.04882236 26.59509216 45.82583278 26.92410423 42.1171875 26.12939453 C39.18975616 23.8871067 37.53112767 22.30753192 36.3046875 18.81689453 C36.2428125 18.26001953 36.1809375 17.70314453 36.1171875 17.12939453 C35.1271875 17.12939453 34.1371875 17.12939453 33.1171875 17.12939453 C32.7871875 29.00939453 32.4571875 40.88939453 32.1171875 53.12939453 C33.7671875 53.78939453 35.4171875 54.44939453 37.1171875 55.12939453 C38.1071875 55.78939453 39.0971875 56.44939453 40.1171875 57.12939453 C40.5546875 60.00439453 40.5546875 60.00439453 40.1171875 63.12939453 C37.73169599 66.28165117 35.93350653 67.43056698 32.1171875 68.12939453 C27.84966211 68.38130105 23.57888928 68.36063775 19.3046875 68.37939453 C18.14130859 68.40001953 16.97792969 68.42064453 15.77929688 68.44189453 C9.45211773 68.47070354 4.65442917 68.31118472 -0.8828125 65.12939453 C-2.8828125 63.12939453 -2.8828125 63.12939453 -3.0078125 60.00439453 C-2.9665625 59.05564453 -2.9253125 58.10689453 -2.8828125 57.12939453 C-1.09244792 56.2179362 0.69791667 55.30647786 2.48828125 54.39501953 C4.61765978 52.74053837 4.74383621 51.77552178 5.1171875 49.12939453 C6.00114501 41.76308193 6.23464451 34.3546466 6.3046875 26.94189453 C6.31765869 26.19915283 6.33062988 25.45641113 6.34399414 24.69116211 C6.34722253 22.83570152 6.24061109 20.98074837 6.1171875 19.12939453 C5.4571875 18.46939453 4.7971875 17.80939453 4.1171875 17.12939453 C3.70726562 17.69529297 3.29734375 18.26119141 2.875 18.84423828 C2.33617187 19.57771484 1.79734375 20.31119141 1.2421875 21.06689453 C0.70851563 21.79779297 0.17484375 22.52869141 -0.375 23.28173828 C-1.8828125 25.12939453 -1.8828125 25.12939453 -3.8828125 26.12939453 C-11.09425924 26.58726417 -11.09425924 26.58726417 -13.8203125 25.00439453 C-15.90383572 21.32758885 -16.26801065 18.60310205 -15.1875 14.46923828 C-13.46526058 9.43134895 -11.78094192 4.90177784 -7.8828125 1.12939453 C-4.94801805 0.15112972 -3.05664098 0.0027871 0 0 Z " fill="#000000" transform="translate(798.8828125,212.87060546875)"/>
<path d="M0 0 C1 1 1 1 1.11352539 3.86743164 C1.10828857 5.11903076 1.10305176 6.37062988 1.09765625 7.66015625 C1.0962413 8.32462265 1.09482635 8.98908905 1.09336853 9.6736908 C1.08775518 11.80333899 1.07520054 13.93288339 1.0625 16.0625 C1.05748671 17.50325369 1.05292351 18.94400903 1.04882812 20.38476562 C1.03778145 23.92321102 1.02050792 27.46159539 1 31 C3.56416745 29.75338204 3.56416745 29.75338204 6 28 C6 26.845 6 25.69 6 24.5 C6 23.345 6 22.19 6 21 C10.14987735 17.43357076 14.24557718 17.54380572 19.4375 17.625 C20.17548828 17.61339844 20.91347656 17.60179687 21.67382812 17.58984375 C26.48744381 17.61551637 29.83286866 18.35522624 34 21 C35.38244042 23.94920623 35.05356655 24.83930034 34 28 C31.49609375 29.38671875 31.49609375 29.38671875 28.4375 30.6875 C27.42558594 31.12449219 26.41367187 31.56148437 25.37109375 32.01171875 C24.58863281 32.33785156 23.80617188 32.66398437 23 33 C23.56368248 37.2019967 26.03793404 40.12547107 28.5625 43.375 C29.00706543 43.95209717 29.45163086 44.52919434 29.90966797 45.1237793 C33.4147284 49.54170712 37.16511253 53.04234537 42 56 C44.8788077 54.09122313 44.8788077 54.09122313 46.75 51.3125 C47.42095937 45.10612586 47.26090435 39.87835131 45 34 C43.9171875 32.9790625 43.9171875 32.9790625 42.8125 31.9375 C41 30 41 30 40.75 27 C42.34759772 23.16576547 43.90539947 22.40544408 47.62890625 20.8125 C55.05127079 18.26908678 62.19518253 17.7010921 70 18 C71.48579802 20.97159604 71.15636411 24.01431605 71.17578125 27.2734375 C71.19897975 28.75261839 71.2230971 30.23178511 71.24804688 31.7109375 C71.28316133 34.04371627 71.3125056 36.37597348 71.32592773 38.70898438 C71.3414161 40.96027808 71.38162614 43.21004728 71.42578125 45.4609375 C71.42387283 46.15585297 71.42196442 46.85076843 71.41999817 47.56674194 C71.5053551 50.95146341 71.81043321 52.74709531 73.86401367 55.48681641 C75.94105196 57.30553841 75.94105196 57.30553841 78.75 56.75 C79.4925 56.5025 80.235 56.255 81 56 C82.25262972 49.15094394 82.22031274 42.32181844 82.25 35.375 C82.270625 34.16070312 82.29125 32.94640625 82.3125 31.6953125 C82.31765625 30.52484375 82.3228125 29.354375 82.328125 28.1484375 C82.3374707 27.08802246 82.34681641 26.02760742 82.35644531 24.93505859 C81.94537064 21.55016841 81.0250753 19.72204761 79 17 C78.01 16.34 77.02 15.68 76 15 C75.38349515 9.45145631 75.38349515 9.45145631 76 7 C81.76480852 1.23519148 92.42972345 -0.23088767 100.25 -0.4375 C102.890625 -0.43359375 102.890625 -0.43359375 105 0 C107.16150069 3.24225104 107.21854915 3.80636689 106.9765625 7.48046875 C106.92483887 8.38619629 106.87311523 9.29192383 106.81982422 10.22509766 C106.75553223 11.20269043 106.69124023 12.1802832 106.625 13.1875 C106.15089955 21.83879655 105.87899821 30.46021668 105.875 39.125 C105.87064941 40.13715576 105.86629883 41.14931152 105.86181641 42.19213867 C105.86358887 43.14193604 105.86536133 44.0917334 105.8671875 45.0703125 C105.86887939 46.31965576 105.86887939 46.31965576 105.87060547 47.59423828 C106.00930236 50.17295369 106.32290256 52.50629969 107 55 C107.680625 55.495 108.36125 55.99 109.0625 56.5 C111 58 111 58 111.5625 60.4375 C111 63 111 63 109.17578125 65.12890625 C104.4214116 67.93006623 100.04260987 67.58187823 94.625 67.5 C93.60921875 67.51546875 92.5934375 67.5309375 91.546875 67.546875 C85.1547334 67.51366907 81.23442475 66.71570433 76 63 C75.401875 63.474375 74.80375 63.94875 74.1875 64.4375 C70.8658582 66.81010129 68.22243358 67.12747487 64.25390625 67.1328125 C63.33416016 67.13410156 62.41441406 67.13539063 61.46679688 67.13671875 C60.50837891 67.13285156 59.54996094 67.12898438 58.5625 67.125 C57.13067383 67.13080078 57.13067383 67.13080078 55.66992188 67.13671875 C54.74888672 67.13542969 53.82785156 67.13414062 52.87890625 67.1328125 C52.0391626 67.13168457 51.19941895 67.13055664 50.33422852 67.12939453 C48.09241513 67.0051229 46.15104546 66.62396739 44 66 C44 65.34 44 64.68 44 64 C43.28972656 64.32234619 42.57945312 64.64469238 41.84765625 64.97680664 C37.00409673 66.7171494 32.09996352 66.41011356 27 66.4375 C25.91976562 66.47037109 24.83953125 66.50324219 23.7265625 66.53710938 C15.80225836 66.59091638 15.80225836 66.59091638 12.01953125 63.8046875 C11.35308594 62.87914062 10.68664062 61.95359375 10 61 C9.26136719 60.11699219 8.52273438 59.23398437 7.76171875 58.32421875 C6.73498047 57.01904297 6.73498047 57.01904297 5.6875 55.6875 C4.99011719 54.80449219 4.29273438 53.92148437 3.57421875 53.01171875 C3.05472656 52.34785156 2.53523437 51.68398438 2 51 C3.08784968 54.24983135 3.08784968 54.24983135 5 57 C5.46580407 62.35674677 5.46580407 62.35674677 3.6875 64.8125 C-1.00528101 68.11482738 -6.95799516 67.22318897 -12.4375 67.25 C-14.01241211 67.2809375 -14.01241211 67.2809375 -15.61914062 67.3125 C-17.13604492 67.32023437 -17.13604492 67.32023437 -18.68359375 67.328125 C-19.60712646 67.3374707 -20.53065918 67.34681641 -21.48217773 67.35644531 C-24.50274975 66.92882627 -25.86691997 66.16680095 -28 64 C-28.25 60.3125 -28.25 60.3125 -28 57 C-26.02 56.505 -26.02 56.505 -24 56 C-22.93653556 47.78242924 -22.88209675 39.65139345 -22.9375 31.375 C-22.94201172 30.08464844 -22.94652344 28.79429687 -22.95117188 27.46484375 C-22.96285705 24.30984625 -22.97923956 21.15494863 -23 18 C-25.475 17.01 -25.475 17.01 -28 16 C-28.8125 12.75 -28.8125 12.75 -29 9 C-25.46624437 5.41876589 -21.45936858 3.76028272 -16.75 2.25 C-16.0904834 2.0339209 -15.4309668 1.8178418 -14.75146484 1.59521484 C-9.59739205 -0.00415088 -5.34398512 -0.55282605 0 0 Z " fill="#000000" transform="translate(639,214)"/>
<path d="M0 0 C0 50.82 0 101.64 0 154 C-4.93469787 151.53265106 -7.70170839 148.17334464 -11.3671875 144.1171875 C-13.8402899 141.82300562 -13.8402899 141.82300562 -16.89453125 141.2890625 C-21.49060491 142.3412454 -23.70489397 145.09120068 -26.8125 148.5 C-28.86490344 150.6768601 -30.92781497 152.84184448 -33 155 C-33.33 155 -33.66 155 -34 155 C-34 107.81 -34 60.62 -34 12 C-26.66635961 8.9443165 -19.38295807 5.9318389 -11.9375 3.1875 C-11.11056641 2.87619141 -10.28363281 2.56488281 -9.43164062 2.24414062 C-8.63822266 1.95087891 -7.84480469 1.65761719 -7.02734375 1.35546875 C-5.97148071 0.96331177 -5.97148071 0.96331177 -4.89428711 0.56323242 C-3 0 -3 0 0 0 Z " fill="#FED92C" transform="translate(478,169)"/>
<path d="M0 0 C1.97735055 0.234068 3.97088657 0.32038372 5.9609375 0.38671875 C10.51695027 1.61333757 12.76802985 4.30224091 15.2109375 8.26171875 C16.40298751 11.95994618 16.4878229 15.38532308 16.2109375 19.26171875 C14.87511386 21.79978367 13.93136868 22.88908193 11.3984375 24.19921875 C5.65790103 24.36323408 1.28379622 19.79152964 -2.7890625 16.26171875 C-6.2242673 13.97158222 -7.7743935 14.08328902 -11.7890625 14.26171875 C-12.1190625 15.25171875 -12.4490625 16.24171875 -12.7890625 17.26171875 C-11.99407667 19.38760834 -11.99407667 19.38760834 -10.10253906 19.99194336 C-9.38549805 20.21374268 -8.66845703 20.43554199 -7.9296875 20.6640625 C-7.14335938 20.91478516 -6.35703125 21.16550781 -5.546875 21.42382812 C-4.71929688 21.67970703 -3.89171875 21.93558594 -3.0390625 22.19921875 C5.47031477 24.83982709 11.42622315 27.11664491 16.30078125 35.03125 C18.4743298 40.35784323 17.99760481 47.17977532 16.59375 52.6796875 C13.65207716 59.40908952 8.12482736 62.91364443 1.65625 65.90625 C-3.55960125 67.77986416 -8.67731792 67.70135318 -14.1640625 67.63671875 C-15.14117188 67.64832031 -16.11828125 67.65992188 -17.125 67.671875 C-23.93036179 67.64472595 -31.83401647 67.31061901 -37.44287109 62.98681641 C-42.41606235 57.53741098 -43.01748788 51.20474804 -42.95703125 44.1796875 C-42.7890625 42.26171875 -42.7890625 42.26171875 -41.7890625 40.26171875 C-36.94215696 39.29233764 -36.94215696 39.29233764 -33.7890625 40.26171875 C-31.15480232 42.91746555 -29.03170361 45.70958208 -26.8671875 48.7578125 C-25.06308771 51.30956876 -25.06308771 51.30956876 -22.8828125 52.10546875 C-20.25749343 52.30138808 -17.67206837 52.35556406 -15.0390625 52.32421875 C-13.56179688 52.31068359 -13.56179688 52.31068359 -12.0546875 52.296875 C-10.93320312 52.27947266 -10.93320312 52.27947266 -9.7890625 52.26171875 C-10.44565486 49.20280747 -10.44565486 49.20280747 -12.57421875 48.19921875 C-13.32574219 47.88984375 -14.07726562 47.58046875 -14.8515625 47.26171875 C-15.66238281 46.92269531 -16.47320313 46.58367187 -17.30859375 46.234375 C-19.54229178 45.35848396 -21.78446897 44.51946135 -24.0390625 43.69921875 C-31.23246614 41.01235455 -35.83241771 36.93969783 -39.9296875 30.45703125 C-41.94280365 25.31443453 -41.55164974 19.64121011 -40.7890625 14.26171875 C-37.78302308 7.8476164 -32.24122857 3.0956113 -25.7890625 0.26171875 C-17.56407161 -1.89341983 -8.36207761 -1.04187698 0 0 Z " fill="#000000" transform="translate(591.7890625,213.73828125)"/>
<path d="M0 0 C4.70686179 1.17671545 5.94548966 2.65998488 9.25 6.125 C12.22595611 9.22997155 15.18707356 12.20265498 18.453125 15 C24.36167264 20.11634797 29.97943811 25.53386395 35.56640625 30.99658203 C36.86107915 32.25431098 38.16460234 33.50299011 39.4765625 34.74267578 C41.39184901 36.55447196 43.27593108 38.39420875 45.15625 40.2421875 C45.74361938 40.78624237 46.33098877 41.33029724 46.93615723 41.89083862 C49.90355479 44.87237463 51.4321505 47.1760079 51.79882812 51.43164062 C51.38396732 57.14501507 48.07244998 60.0909013 44.0625 63.8515625 C43.34900391 64.55469574 42.63550781 65.25782898 41.90039062 65.98226929 C39.62057142 68.21851577 37.31124069 70.42129252 35 72.625 C33.47586127 74.11253348 31.95370341 75.60209946 30.43359375 77.09375 C24.3660702 83.01854608 18.25732875 88.85177834 11.84106445 94.39974976 C9.37600133 96.54237863 6.95880487 98.7358141 4.54296875 100.93359375 C3 102 3 102 0 102 C0 68.34 0 34.68 0 0 Z " fill="#FE8B00" transform="translate(461,310)"/>
<path d="M0 0 C0 0.66 0 1.32 0 2 C0.99 2.33 1.98 2.66 3 3 C6.89129755 8.33251886 6.73146296 14.6543213 6 21 C3.39911378 23.60088622 2.17862887 23.29962225 -1.4453125 23.4140625 C-2.52167969 23.45273437 -3.59804687 23.49140625 -4.70703125 23.53125 C-6.39892578 23.57765625 -6.39892578 23.57765625 -8.125 23.625 C-9.26066406 23.66367187 -10.39632813 23.70234375 -11.56640625 23.7421875 C-14.37743956 23.83667601 -17.18846233 23.92223541 -20 24 C-19.24849977 27.27773504 -19.24849977 27.27773504 -16 29 C-10.0037721 29.78255856 -6.11146062 29.2129181 -1 26 C1.75 26.5 1.75 26.5 4 28 C5.17417075 30.89628786 5.11298458 32.53676324 4.375 35.5625 C1.47184362 40.7090045 -3.4989191 43.25902496 -9 45 C-11.97013724 45.45176066 -14.87394091 45.52279766 -17.875 45.5 C-18.66567871 45.49935547 -19.45635742 45.49871094 -20.27099609 45.49804688 C-26.47726147 45.33946931 -31.11272454 44.00127816 -36 40 C-36 39.34 -36 38.68 -36 38 C-36.66 38 -37.32 38 -38 38 C-38.81498562 36.3970947 -39.62689927 34.79262722 -40.4375 33.1875 C-40.88996094 32.29417969 -41.34242187 31.40085937 -41.80859375 30.48046875 C-44.96411938 23.91076785 -44.62446582 18.24140596 -42.5 11.4375 C-39.75860566 4.45324091 -35.03556354 0.18944805 -28.25 -2.875 C-27.1775 -3.24625 -26.105 -3.6175 -25 -4 C-24.0409375 -4.3403125 -24.0409375 -4.3403125 -23.0625 -4.6875 C-14.90959873 -5.92278807 -6.91346316 -4.60897544 0 0 Z M-19 6 C-21.2773501 8.81509993 -21.2773501 8.81509993 -21 12 C-18.69 12 -16.38 12 -14 12 C-13.67 11.01 -13.34 10.02 -13 9 C-14.31201173 7.43750191 -14.31201173 7.43750191 -16 6 C-16.99 6 -17.98 6 -19 6 Z " fill="#000000" transform="translate(1107,236)"/>
<path d="M0 0 C1.56234375 -0.01836914 1.56234375 -0.01836914 3.15625 -0.03710938 C4.16429687 -0.03904297 5.17234375 -0.04097656 6.2109375 -0.04296875 C7.1292334 -0.04707764 8.0475293 -0.05118652 8.99365234 -0.05541992 C12.1381325 0.2348712 15.32026375 0.88276375 17.625 3.1875 C17.8125 5.625 17.8125 5.625 17.625 8.1875 C16.965 8.8475 16.305 9.5075 15.625 10.1875 C15.60124074 12.1806567 15.60124074 12.1806567 16 14.3125 C16.20625 15.59125 16.4125 16.87 16.625 18.1875 C18.56574861 17.91132467 18.56574861 17.91132467 20.625 17.1875 C22.92120858 14.45941143 22.92120858 14.45941143 22.3125 11.875 C22.085625 10.988125 21.85875 10.10125 21.625 9.1875 C21.28555205 7.18852872 20.95078384 5.18874361 20.625 3.1875 C24.87288547 0.04522856 28.56546327 -0.27200656 33.6875 -0.1875 C34.39455078 -0.19910156 35.10160156 -0.21070313 35.83007812 -0.22265625 C40.04064353 -0.19893475 42.57785491 0.19575755 45.625 3.1875 C45.625 5.3125 45.625 5.3125 44.625 8.1875 C43.46830006 9.0038244 42.27397579 9.76742462 41.0625 10.5 C35.01176804 14.72043937 32.69041456 21.43238342 29.69873047 27.91748047 C27.83361271 31.86060573 25.79243166 35.70906552 23.75 39.5625 C23.36851807 40.29380127 22.98703613 41.02510254 22.59399414 41.77856445 C21.12719778 44.5568726 19.8601175 46.9523825 17.625 49.1875 C14.5236243 49.87601759 11.72813977 49.86327086 8.625 49.1875 C6.23704795 46.74401418 5.12649482 45.15545476 3.625 42.1875 C3.15578125 41.26839844 2.6865625 40.34929687 2.203125 39.40234375 C1.18017949 37.35908919 0.17002995 35.30938512 -0.828125 33.25390625 C-2.72238632 29.49886804 -4.86111188 25.94231334 -7.078125 22.37109375 C-8.375 20.1875 -8.375 20.1875 -9.8125 16.875 C-11.42844724 14.09557075 -12.4396107 13.32463226 -15.0625 11.625 C-18.29431735 9.49556103 -18.29431735 9.49556103 -19.0625 6.5625 C-18.17948175 3.51207332 -17.09958108 2.74440347 -14.375 1.1875 C-9.6725989 -0.37996703 -4.92465157 0.00302497 0 0 Z " fill="#000000" transform="translate(1019.375,231.8125)"/>
<path d="M0 0 C2.39531816 3.69354403 2.02661262 6.44828259 1.625 10.75 C1.00805375 19.01518143 0.75161189 27.28518206 0.65594482 35.57092285 C0.63538197 37.018921 0.60553421 38.46681823 0.56622314 39.91442871 C0.51188818 41.97986838 0.49047621 44.04331624 0.4765625 46.109375 C0.45674316 47.31561523 0.43692383 48.52185547 0.41650391 49.76464844 C1.16240489 53.90049772 2.91792353 55.25837499 6 58 C6.625 60.5625 6.625 60.5625 6 63 C3.74567555 65.67762555 1.9043455 66.87067329 -1.57958984 67.36889648 C-4.72897711 67.50319267 -7.84839238 67.49579346 -11 67.4375 C-12.08023438 67.44458984 -13.16046875 67.45167969 -14.2734375 67.45898438 C-23.68594117 67.38345194 -23.68594117 67.38345194 -28 64 C-28.3125 60.3125 -28.3125 60.3125 -28 57 C-26.02 56.505 -26.02 56.505 -24 56 C-23.11455074 49.10206461 -22.7862089 42.32710973 -22.75 35.375 C-22.729375 34.37726563 -22.70875 33.37953125 -22.6875 32.3515625 C-22.65618995 26.43396337 -23.12896531 22.21300893 -26 17 C-26.8353125 16.2265625 -26.8353125 16.2265625 -27.6875 15.4375 C-29 14 -29 14 -29.4375 11.0625 C-28.88994914 7.22964398 -27.96442087 6.42499347 -25 4 C-16.85336781 0.63756837 -8.75869639 -0.64349606 0 0 Z " fill="#000000" transform="translate(779,214)"/>
<path d="M0 0 C1.12614919 0.95444187 2.2507759 1.91068032 3.37475586 2.86767578 C4.00119492 3.3999881 4.62763397 3.93230042 5.27305603 4.48074341 C7.18484904 6.16261855 8.87415392 7.97085028 10.5625 9.875 C12.82808918 12.13051989 13.80557764 12.94208696 16.9375 13.875 C20.83862806 12.76039198 22.97343586 10.79415196 25.875 8.01953125 C28.48152295 5.54237617 31.23005722 3.29326921 34 1 C34.12422629 6.55004849 34.21463317 12.09927582 34.2746582 17.65039062 C34.29969777 19.53595083 34.33373999 21.42141498 34.37719727 23.30664062 C34.43831786 26.02758564 34.46631493 28.74724027 34.48828125 31.46875 C34.51408768 32.30241089 34.5398941 33.13607178 34.56648254 33.99499512 C34.56937895 40.13229666 32.95275472 44.27485993 29 49 C24.49953676 52.86957119 20.22988656 53.5921424 14.359375 53.31640625 C9.40232852 52.65163677 6.37480104 50.64092649 3.1875 46.9375 C0.63661075 43.51202015 -0.12594319 42.06502422 -0.11352539 37.91748047 C-0.11344986 37.07675995 -0.11337433 36.23603943 -0.11329651 35.36984253 C-0.10813522 34.46146637 -0.10297394 33.55309021 -0.09765625 32.6171875 C-0.0962413 31.68778351 -0.09482635 30.75837952 -0.09336853 29.80081177 C-0.08776053 26.82550876 -0.07520668 23.85028036 -0.0625 20.875 C-0.05748603 18.86067817 -0.05292295 16.84635516 -0.04882812 14.83203125 C-0.0377885 9.88799198 -0.02051849 4.94400865 0 0 Z " fill="#FED92C" transform="translate(444,398)"/>
<path d="M0 0 C2.32579101 3.48868651 2.41865457 4.89718519 2 9 C0.55453567 11.73877453 -0.55891456 12.77349667 -3.3125 14.1875 C-9.31580322 16.00245214 -18.05665218 17.74308361 -24 15 C-26.00554719 12.42143933 -26.015367 11.15367 -25.6875 7.875 C-24.61790607 3.40215264 -24.61790607 3.40215264 -22.35546875 1.9296875 C-15.26076471 -1.52179014 -7.59878394 -2.53292798 0 0 Z " fill="#000000" transform="translate(707,215)"/>
<path d="M0 0 C2.34549674 3.51824511 2.57991403 4.85775694 2 9 C-0.60251674 12.69389473 -3.01935811 14.2503559 -7.3125 15.3125 C-12.7175488 16.24781626 -17.69937846 16.8810891 -22.9375 14.875 C-25 13 -25 13 -25.9375 10.0625 C-26.00378981 6.8142993 -25.71367899 5.68064519 -24 3 C-17.23274151 -1.916125 -7.80010092 -2.60003364 0 0 Z " fill="#000000" transform="translate(995,215)"/>
</svg>
